<?xml version="1.0" encoding="UTF-8"?>
<svg xmlns="http://www.w3.org/2000/svg" xmlns:xlink="http://www.w3.org/1999/xlink" version="1.2" >
<font id="Maxwell SmCaps Italic">
<font-face  font-family="Maxwell SmCaps" units-per-em="1000" ascent="750" descent="-250" font-style="normal" font-weight="400" font-stretch="normal" cap-height="810" x-height="740" underline-position="-75" underline-thickness="50" />
<missing-glyph  horiz-adv-x="173" d="" />
<glyph glyph-name="space" unicode="&#x20;" horiz-adv-x="173" d="" />
<glyph glyph-name="exclam" unicode="&#x21;" horiz-adv-x="162" d="M48 0 L112 0 L122 59 L58 59 L48 0 L48 0 Z M75 157 L139 157 L255 816 L191 816 L75 157 L75 157 Z " />
<glyph glyph-name="quotedbl" unicode="&#x22;" horiz-adv-x="221" d="M248 720 L290 720 L312 809 L258 809 L248 720 L248 720 Z M180 720 L222 720 L243 809 L190 809 L180 720 L180 720 Z " />
<glyph glyph-name="numbersign" unicode="&#x23;" horiz-adv-x="598" d="M615 805 L551 805 L513 589 L306 589 L344 805 L280 805 L242 589 L139 589 L128 526 L231 526 L193 311 L90 311 L79 248 L182 248 L139 0 L203 0 L246 248 L453 248 L410 0 L474 0 L517 248 L601 248 L612 311 L528 311 L566 526 L650 526 L661 589 L577 589 L615 805 L615 805 Z M464 311 L257 311 L295 526 L502 526 L464 311 L464 311 Z " />
<glyph glyph-name="dollar" unicode="&#x24;" horiz-adv-x="438" d="M317 396 L371 700 C410 686 435 646 427 599 L490 599 C504 680 458 749 382 764 L399 858 L336 858 L319 764 C239 750 169 686 155 608 C134 497 193 427 249 367 L195 58 C155 71 132 110 140 157 L76 157 C62 76 109 7 183 -7 L167 -97 L230 -97 L246 -8 C281 -4 312 8 339 29 C376 58 401 100 411 150 C434 265 375 335 317 396 L317 396 Z M219 608 C226 652 263 688 308 700 L265 454 C229 498 205 542 219 608 L219 608 Z M348 151 C335 86 293 62 257 55 L302 310 C338 265 362 218 348 151 L348 151 Z " />
<glyph glyph-name="percent" unicode="&#x25;" horiz-adv-x="864" d="M434 528 L451 624 C467 715 414 790 332 790 C252 790 173 715 157 624 L140 528 C124 437 176 361 256 361 C338 361 418 437 434 528 L434 528 Z M370 528 C360 472 313 425 267 425 C223 425 193 472 203 528 L220 624 C229 679 277 727 321 727 C367 727 396 679 387 624 L370 528 L370 528 Z M745 443 C665 443 585 368 569 276 L552 181 C536 89 589 14 669 14 C751 14 830 89 846 181 L863 276 C879 368 827 443 745 443 L745 443 Z M782 181 C773 125 726 77 680 77 C635 77 605 125 614 181 L631 276 C641 332 688 379 733 379 C779 379 809 332 799 276 L782 181 L782 181 Z M682 805 L257 0 L336 0 L761 805 L682 805 L682 805 Z " />
<glyph glyph-name="ampersand" unicode="&#x26;" horiz-adv-x="551" d="M470 164 C500 239 532 356 549 450 L487 450 C475 382 453 295 430 228 C393 318 359 408 335 485 C358 510 379 530 395 545 C406 556 413 564 418 569 C490 648 488 708 479 737 C471 775 441 803 402 808 C372 812 340 802 310 780 C272 751 244 706 236 661 C233 646 227 611 262 492 C187 409 100 296 82 197 C61 76 133 11 215 1 C280 -6 361 20 417 82 C454 -2 481 -62 481 -64 L540 -30 C516 23 489 84 463 148 C465 152 467 158 470 164 L470 164 Z M344 732 C352 738 364 745 377 745 C379 745 381 745 383 745 C400 743 414 730 418 712 C425 683 409 646 374 606 C370 602 362 594 354 586 C343 575 331 563 316 548 C302 599 296 638 300 661 C305 688 322 715 344 732 L344 732 Z M233 65 C180 71 131 108 146 197 C159 270 220 356 283 427 C299 378 321 317 350 242 C365 208 378 174 392 142 C351 82 285 59 233 65 L233 65 Z " />
<glyph glyph-name="quotesingle" unicode="&#x27;" horiz-adv-x="144" d="M178 720 L220 720 L240 809 L188 809 L178 720 L178 720 Z " />
<glyph glyph-name="parenleft" unicode="&#x28;" horiz-adv-x="292" d="M297 864 C117 575 57 233 135 -56 C166 -56 182 -56 213 -56 C136 233 196 575 375 864 C344 864 328 864 297 864 L297 864 Z " />
<glyph glyph-name="parenright" unicode="&#x29;" horiz-adv-x="265" d="M200 864 C277 575 217 233 38 -56 C69 -56 85 -56 117 -56 C297 233 357 575 279 864 C247 864 231 864 200 864 L200 864 Z " />
<glyph glyph-name="asterisk" unicode="&#x2a;" horiz-adv-x="330" d="M381 780 L325 751 L335 809 L273 809 L263 751 L216 781 L176 726 L222 697 L166 668 L188 613 L244 642 L233 584 L295 584 L306 642 L350 614 L391 668 L348 697 L403 726 L381 780 L381 780 Z " />
<glyph glyph-name="plus" unicode="&#x2b;" horiz-adv-x="396" d="M314 496 L251 496 L228 365 L98 365 L87 302 L217 302 L194 172 L257 172 L280 302 L411 302 L422 365 L291 365 L314 496 L314 496 Z " />
<glyph glyph-name="comma" unicode="&#x2c;" horiz-adv-x="156" d="M128 124 L69 124 L60 69 L86 69 L86 69 C81 44 64 46 64 46 L60 24 C112 24 119 69 119 69 L128 124 L128 124 Z " />
<glyph glyph-name="hyphen" unicode="&#x2d;" horiz-adv-x="380" d="M97 371 L402 371 L413 433 L108 433 L97 371 L97 371 Z " />
<glyph glyph-name="period" unicode="&#x2e;" horiz-adv-x="142" d="M49 69 L108 69 L118 128 L59 128 L49 69 L49 69 Z " />
<glyph glyph-name="slash" unicode="&#x2f;" horiz-adv-x="446" d="M48 0 L127 0 L551 805 L473 805 L48 0 L48 0 Z " />
<glyph glyph-name="zero" unicode="0" horiz-adv-x="508" d="M425 808 L369 808 C276 808 189 733 173 642 L89 168 C73 77 134 2 227 2 L283 2 C374 2 462 77 478 168 L562 642 C578 733 516 808 425 808 L425 808 Z M415 168 C405 112 351 65 294 65 L238 65 C180 65 143 112 153 168 L237 642 C247 698 300 745 358 745 L414 745 C471 745 509 698 499 642 L415 168 Z " />
<glyph glyph-name="one" unicode="1" horiz-adv-x="281" d="M278 809 L188 731 L226 686 L265 721 L138 0 L200 0 L338 786 L342 808 L280 808 L278 809 L278 809 Z " />
<glyph glyph-name="two" unicode="2" horiz-adv-x="456" d="M505 616 C523 724 462 808 366 808 C272 808 179 716 159 602 L222 602 C236 682 295 745 355 745 C415 745 455 688 442 614 C422 496 344 425 263 349 C173 266 81 179 58 31 L54 0 L396 0 L406 62 L126 62 C154 168 226 236 301 306 C391 388 481 472 505 616 L505 616 Z " />
<glyph glyph-name="three" unicode="3" horiz-adv-x="456" d="M309 572 L532 808 L191 808 L180 745 L393 745 L175 516 L239 516 C294 516 334 498 358 463 C386 422 392 362 378 282 C353 138 285 64 231 64 C171 64 134 127 148 206 L84 206 C64 92 125 0 220 0 C270 0 319 29 360 82 C399 132 427 202 441 282 C458 378 449 452 413 504 C390 539 355 563 309 572 L309 572 Z " />
<glyph glyph-name="four" unicode="4" horiz-adv-x="517" d="M509 809 L440 809 L97 282 L354 282 L305 0 L367 0 L416 282 L519 282 L531 346 L428 346 L509 809 L509 809 Z M366 346 L209 346 L424 677 L366 346 L366 346 Z " />
<glyph glyph-name="five" unicode="5" horiz-adv-x="454" d="M402 559 C364 590 309 599 239 584 L268 745 L502 745 L513 808 L216 808 L161 499 L205 512 C275 535 325 533 357 508 C395 475 406 400 387 290 C368 187 328 64 235 64 C201 64 171 86 157 124 C148 148 147 176 152 205 L89 205 C82 166 84 127 96 94 C118 35 166 0 224 0 C277 0 326 24 362 71 C403 119 432 193 449 290 C472 424 457 514 402 559 L402 559 Z " />
<glyph glyph-name="six" unicode="6" horiz-adv-x="407" d="M334 745 C384 745 417 696 406 635 L469 635 C486 731 430 809 345 809 C260 809 176 731 159 635 L113 370 L79 176 L78 173 C61 77 118 0 203 0 C288 0 371 77 388 173 L388 173 C388 174 388 175 389 176 L423 370 C439 461 382 536 297 536 C262 536 229 524 200 503 L223 635 C234 696 283 745 334 745 L334 745 Z M286 473 C336 473 370 426 360 370 L326 176 C315 119 265 72 215 72 C164 72 132 119 143 176 L177 370 C187 426 235 473 286 473 L286 473 Z " />
<glyph glyph-name="seven" unicode="7" horiz-adv-x="461" d="M550 808 L190 808 L179 745 L469 745 C440 707 398 647 352 569 C276 439 178 250 134 0 L198 0 C239 238 333 420 405 544 C460 638 512 706 538 738 L550 808 L550 808 Z " />
<glyph glyph-name="eight" unicode="8" horiz-adv-x="448" d="M402 523 C445 552 477 598 486 650 C501 737 446 808 362 808 C276 808 195 737 180 650 C171 598 187 552 220 523 C167 494 125 440 115 380 L77 167 C61 76 122 0 215 0 L223 0 C316 0 403 76 419 167 L457 380 C467 440 445 494 402 523 L402 523 Z M242 650 C251 702 300 744 351 744 C400 744 433 702 424 650 C415 599 367 557 318 557 C267 557 233 599 242 650 L242 650 Z M357 167 C347 110 292 64 234 64 L226 64 C168 64 131 110 141 167 L179 380 C189 437 242 484 300 484 L308 484 C366 484 405 437 395 380 L357 167 L357 167 Z " />
<glyph glyph-name="nine" unicode="9" horiz-adv-x="412" d="M345 808 C345 808 345 808 345 808 L345 808 L345 808 C260 808 177 733 161 642 L127 452 C111 361 168 286 253 286 C288 286 321 299 351 319 L325 173 C314 113 264 64 214 64 C163 64 131 113 142 173 L78 173 C61 78 118 0 203 0 C288 0 371 78 388 173 L437 452 L469 635 L471 642 C487 733 430 808 345 808 L345 808 Z M374 452 C364 396 314 349 264 349 C213 349 181 396 191 452 L223 635 C234 696 283 745 334 745 C384 745 417 696 406 635 L374 452 L374 452 Z " />
<glyph glyph-name="colon" unicode="&#x3a;" horiz-adv-x="162" d="M60 69 L119 69 L129 129 L70 129 L60 69 L60 69 Z M118 398 L177 398 L187 458 L128 458 L118 398 L118 398 Z " />
<glyph glyph-name="semicolon" unicode="&#x3b;" horiz-adv-x="163" d="M187 459 L128 459 L118 399 L177 399 L187 459 L187 459 Z M129 126 L70 126 L60 71 L86 71 C81 45 64 47 64 47 L60 27 C112 27 119 71 119 71 L129 126 L129 126 Z " />
<glyph glyph-name="less" unicode="&#x3c;" horiz-adv-x="373" d="M379 715 L113 394 L254 79 L314 113 L188 394 L427 682 L379 715 Z " />
<glyph glyph-name="equal" unicode="&#x3d;" horiz-adv-x="380" d="M106 438 L411 438 L422 500 L117 500 L106 438 L106 438 Z M79 287 L384 287 L395 349 L90 349 L79 287 L79 287 Z " />
<glyph glyph-name="greater" unicode="&#x3e;" horiz-adv-x="373" d="M164 682 L302 394 L75 113 L123 79 L376 394 L224 715 L164 682 Z " />
<glyph glyph-name="question" unicode="&#x3f;" horiz-adv-x="422" d="M143 0 L205 0 L215 59 L153 59 L143 0 L143 0 Z M353 800 C259 800 166 712 147 602 L210 602 C223 677 281 737 341 737 C401 737 442 683 430 613 C410 499 364 457 311 407 C254 354 189 294 166 151 L231 154 C249 271 296 314 351 365 C407 416 469 475 493 613 C510 719 449 800 353 800 L353 800 Z " />
<glyph glyph-name="at" unicode="&#x40;" horiz-adv-x="673" d="M681 371 C708 527 603 654 446 654 C290 654 140 527 113 371 L77 166 C49 10 154 -118 310 -118 L321 -54 C200 -54 119 44 141 166 L177 371 C198 492 314 592 435 592 C558 592 638 492 617 371 L581 166 L582 166 L575 127 C570 101 539 73 508 67 C498 65 489 67 482 73 C474 82 471 97 474 115 L488 198 L514 342 L543 510 L480 510 L476 485 C459 499 438 508 414 508 C342 508 272 433 256 342 L230 198 C214 107 258 32 330 32 C358 32 386 44 412 65 C416 49 424 35 435 25 C449 11 468 4 490 4 C497 4 503 4 509 5 C571 17 628 71 638 127 L651 203 L651 203 L681 371 L681 371 Z M341 95 C305 95 283 144 292 198 L318 342 C328 397 367 445 403 445 C438 445 461 397 451 342 L425 198 C416 144 376 95 341 95 L341 95 Z " />
<glyph glyph-name="A" unicode="A" horiz-adv-x="486" d="M347 811 L48 0 L112 0 L197 232 L356 232 L360 0 L424 0 L414 811 L347 811 L347 811 Z M220 294 L352 649 L355 294 L220 294 L220 294 Z " />
<glyph glyph-name="B" unicode="B" horiz-adv-x="420" d="M367 492 C408 523 437 572 447 628 L450 644 C465 737 415 811 339 811 L196 811 L53 0 L209 0 C294 0 377 74 393 166 L425 346 C436 409 411 464 367 492 L367 492 Z M247 748 L327 748 C369 748 398 700 388 641 L385 625 C374 569 331 523 289 523 L208 523 L247 748 L247 748 Z M330 166 C320 109 270 64 220 64 L127 64 L195 449 L288 449 C338 449 371 402 362 346 L330 166 L330 166 Z " />
<glyph glyph-name="C" unicode="C" horiz-adv-x="445" d="M347 749 L355 749 C383 749 406 738 422 718 C432 704 439 688 441 670 L504 686 C502 715 491 740 475 762 C450 794 411 811 366 811 L358 811 C265 811 177 734 160 640 L78 173 C61 78 122 0 215 0 L223 0 C294 0 364 47 400 114 L343 136 C322 92 277 64 234 64 L226 64 C168 64 131 113 142 173 L224 640 C235 700 289 749 347 749 L347 749 Z " />
<glyph glyph-name="D" unicode="D" horiz-adv-x="448" d="M373 811 L208 811 L65 0 L233 0 C319 0 403 74 419 166 L504 648 C520 738 461 811 373 811 L373 811 Z M355 166 C345 109 295 64 244 64 L139 64 L260 749 L362 749 C415 749 449 703 440 648 L355 166 L355 166 Z " />
<glyph glyph-name="E" unicode="E" horiz-adv-x="379" d="M53 0 L310 0 L320 62 L126 62 L175 338 L306 338 L317 401 L186 401 L247 748 L441 748 L453 811 L196 811 L53 0 L53 0 Z " />
<glyph glyph-name="F" unicode="F" horiz-adv-x="368" d="M53 0 L116 0 L175 338 L306 338 L317 401 L186 401 L248 749 L442 749 L453 811 L196 811 L53 0 L53 0 Z " />
<glyph glyph-name="G" unicode="G" horiz-adv-x="448" d="M261 337 L387 337 L358 172 C347 112 292 64 234 64 L226 64 C168 64 131 112 142 172 L224 640 C235 700 289 749 347 749 L355 749 C383 749 405 737 422 718 C432 704 439 688 441 670 L504 686 C502 715 491 740 475 761 C449 793 411 811 366 811 L358 811 C265 811 177 734 160 640 L78 172 C61 77 122 0 215 0 L223 0 C316 0 403 77 420 172 L460 401 L272 401 L261 337 L261 337 Z " />
<glyph glyph-name="H" unicode="H" horiz-adv-x="452" d="M401 401 L198 401 L271 811 L208 811 L65 0 L128 0 L187 338 L390 338 L331 0 L395 0 L538 811 L474 811 L401 401 L401 401 Z " />
<glyph glyph-name="I" unicode="I" horiz-adv-x="199" d="M62 0 L126 0 L269 811 L205 811 L62 0 L62 0 Z " />
<glyph glyph-name="J" unicode="J" horiz-adv-x="450" d="M354 173 C343 112 287 62 230 62 C172 62 135 112 146 173 L181 372 L118 372 L83 173 C66 77 127 0 220 0 C312 0 399 77 416 173 L529 811 L467 811 L354 173 L354 173 Z " />
<glyph glyph-name="K" unicode="K" horiz-adv-x="480" d="M559 811 L484 811 L207 473 L267 811 L203 811 L60 0 L124 0 L187 359 L258 451 L343 0 L419 0 L313 514 L559 811 Z " />
<glyph glyph-name="L" unicode="L" horiz-adv-x="379" d="M269 811 L205 811 L62 0 L319 0 L330 64 L137 64 L269 811 L269 811 Z " />
<glyph glyph-name="M" unicode="M" horiz-adv-x="540" d="M546 811 L329 365 L270 811 L205 811 L62 0 L126 0 L231 601 L281 234 L331 234 L514 610 L407 0 L470 0 L613 811 L546 811 Z " />
<glyph glyph-name="N" unicode="N" horiz-adv-x="488" d="M503 811 L389 168 L277 811 L203 811 L60 0 L124 0 L238 649 L352 0 L422 0 L565 811 L503 811 L503 811 Z " />
<glyph glyph-name="O" unicode="O" horiz-adv-x="452" d="M371 811 L363 811 C270 811 182 737 166 644 L82 167 C66 74 127 0 220 0 L228 0 C320 0 408 74 424 167 L508 644 C524 737 463 811 371 811 L371 811 Z M361 167 C351 109 296 62 238 62 L230 62 C172 62 135 109 145 167 L229 644 C239 702 293 748 351 748 L359 748 C417 748 455 702 445 644 L361 167 L361 167 Z " />
<glyph glyph-name="P" unicode="P" horiz-adv-x="445" d="M364 811 L196 811 L116 362 L105 299 L53 0 L116 0 L168 299 L273 299 C359 299 442 373 458 464 L490 646 C506 737 450 811 364 811 L364 811 Z M394 464 C384 408 335 362 284 362 L179 362 L247 748 L352 748 C403 748 436 702 426 646 L394 464 L394 464 Z " />
<glyph glyph-name="Q" unicode="Q" horiz-adv-x="469" d="M430 166 L514 646 C530 737 469 811 377 811 L369 811 C276 811 188 737 172 646 L88 166 C72 74 133 0 226 0 L234 0 C269 0 301 10 330 28 L368 -23 L422 22 L383 71 C407 98 424 131 430 166 L430 166 Z M367 166 C364 149 357 132 346 118 L302 174 L250 131 L294 74 C279 67 261 62 244 62 L236 62 C178 62 141 109 151 166 L235 646 C245 702 300 749 358 749 L366 749 C424 749 461 702 451 646 L367 166 L367 166 Z " />
<glyph glyph-name="R" unicode="R" horiz-adv-x="448" d="M369 330 C413 360 449 409 459 466 L491 647 C507 738 450 811 364 811 L196 811 L53 0 L116 0 L168 300 L264 300 C321 300 360 253 350 197 L316 0 L379 0 L413 197 C423 252 404 300 369 330 L369 330 Z M285 364 L180 364 L248 749 L353 749 C404 749 436 703 427 647 L395 466 C385 409 336 364 285 364 L285 364 Z " />
<glyph glyph-name="S" unicode="S" horiz-adv-x="452" d="M318 432 C262 493 212 554 230 648 C240 704 295 749 354 749 C412 749 449 700 438 638 L502 638 C519 734 457 811 365 811 C271 811 184 740 167 648 C144 527 209 450 267 386 C323 324 375 264 355 168 C338 77 271 64 233 64 C175 64 137 113 148 174 L84 174 C67 78 130 0 222 0 C269 0 312 14 345 41 C383 71 409 114 419 166 C443 292 377 367 318 432 L318 432 Z " />
<glyph glyph-name="T" unicode="T" horiz-adv-x="415" d="M179 748 L300 748 L169 0 L232 0 L363 748 L483 748 L495 811 L191 811 L179 748 L179 748 Z " />
<glyph glyph-name="U" unicode="U" horiz-adv-x="458" d="M361 167 C351 109 297 64 239 64 L231 64 C173 64 135 109 145 167 L259 811 L196 811 L82 167 C66 74 127 0 220 0 L228 0 C320 0 408 74 424 167 L538 811 L475 811 L361 167 L361 167 Z " />
<glyph glyph-name="V" unicode="V" horiz-adv-x="456" d="M255 811 L191 811 L198 0 L250 0 L544 811 L479 811 L260 206 L255 811 Z " />
<glyph glyph-name="W" unicode="W" horiz-adv-x="698" d="M520 263 L482 137 L488 263 L493 702 L436 702 L283 254 L247 137 L252 254 C252 254 255 811 255 811 L191 811 L198 0 L250 0 L407 450 L438 553 L434 450 L432 0 L484 0 L778 811 L713 811 L520 263 L520 263 Z " />
<glyph glyph-name="X" unicode="X" horiz-adv-x="480" d="M483 811 L311 480 L258 811 L191 811 L261 383 L62 0 L130 0 L277 286 L325 0 L392 0 L327 383 L550 811 L483 811 L483 811 Z " />
<glyph glyph-name="Y" unicode="Y" horiz-adv-x="464" d="M304 428 L257 811 L191 811 L253 312 L198 0 L262 0 L317 314 L550 811 L484 811 L304 428 L304 428 Z " />
<glyph glyph-name="Z" unicode="Z" horiz-adv-x="469" d="M216 811 L204 746 L437 746 L48 0 L377 0 L377 0 L387 62 L147 62 L538 811 L216 811 Z " />
<glyph glyph-name="bracketleft" unicode="&#x5b;" horiz-adv-x="317" d="M42 -31 L277 -31 L288 32 L117 32 L248 775 L419 775 L430 839 L195 839 L42 -31 L42 -31 Z " />
<glyph glyph-name="backslash" unicode="&#x5c;" horiz-adv-x="462" d="M410 0 L267 805 L189 805 L331 0 L410 0 L410 0 Z " />
<glyph glyph-name="bracketright" unicode="&#x5d;" horiz-adv-x="320" d="M171 775 L344 775 L213 32 L40 32 L29 -31 L264 -31 L417 839 L182 839 L171 775 L171 775 Z " />
<glyph glyph-name="asciicircum" unicode="&#x5e;" horiz-adv-x="533" d="M168 688 L200 640 L400 787 L554 640 L602 688 L415 869 L168 688 L168 688 Z " />
<glyph glyph-name="underscore" unicode="&#x5f;" horiz-adv-x="551" d="M43 5 L517 5 L529 69 L55 69 L43 5 L43 5 Z " />
<glyph glyph-name="grave" unicode="&#x60;" horiz-adv-x="169" d="M184 773 L194 684 L236 684 L237 773 L184 773 L184 773 Z " />
<glyph glyph-name="a" unicode="a" horiz-adv-x="420" d="M306 740 L62 70 L126 70 L197 262 L316 262 L318 70 L382 70 L376 740 L306 740 L306 740 Z M220 326 L313 582 L316 326 L220 326 L220 326 Z " />
<glyph glyph-name="b" unicode="b" horiz-adv-x="361" d="M329 476 C362 503 388 548 396 594 C411 675 368 740 302 740 L182 740 L180 740 L62 70 L62 70 L193 70 C265 70 335 132 348 209 L374 354 C383 406 365 452 329 476 L329 476 Z M233 675 L291 675 C322 675 341 639 333 594 C325 549 289 506 259 506 L203 506 L233 675 L233 675 Z M286 209 C279 167 241 132 204 132 L137 132 L189 431 L256 431 C293 431 319 396 312 354 L286 209 L286 209 Z " />
<glyph glyph-name="c" unicode="c" horiz-adv-x="383" d="M321 676 L328 676 C347 676 364 668 377 653 C384 644 389 630 390 617 L453 634 C452 658 443 680 429 696 C408 724 376 740 339 740 L332 740 C255 740 181 675 166 594 L99 214 C85 135 137 70 214 70 L221 70 C280 70 338 108 369 166 L312 186 C296 154 263 134 232 134 L225 134 C183 134 155 170 163 214 L230 594 C238 640 279 676 321 676 L321 676 Z " />
<glyph glyph-name="d" unicode="d" horiz-adv-x="371" d="M322 740 L184 740 L66 70 L206 70 C278 70 348 132 361 209 L431 604 C444 679 396 740 322 740 L322 740 Z M299 209 C292 167 255 134 217 134 L141 134 L237 678 L311 678 C351 678 376 644 369 604 L299 209 L299 209 Z " />
<glyph glyph-name="e" unicode="e" horiz-adv-x="319" d="M67 70 L284 70 L295 132 L142 132 L178 340 L275 340 L286 402 L189 402 L238 676 L391 676 L402 740 L185 740 L67 70 L67 70 Z " />
<glyph glyph-name="f" unicode="f" horiz-adv-x="314" d="M64 70 L127 70 L174 338 L271 338 L282 401 L185 401 L234 677 L387 677 L398 740 L182 740 L64 70 L64 70 Z " />
<glyph glyph-name="g" unicode="g" horiz-adv-x="388" d="M240 341 L334 341 L311 214 C303 170 262 132 221 132 L213 132 C172 132 144 170 152 214 L219 594 C227 640 268 676 309 676 L317 676 C336 676 352 669 365 653 C372 644 377 632 378 617 L442 634 C440 658 431 680 418 698 C396 725 364 740 328 740 L320 740 C244 740 171 675 156 594 L89 214 C75 135 126 70 202 70 L210 70 C286 70 359 135 373 214 L407 405 L251 405 L240 341 L240 341 Z " />
<glyph glyph-name="h" unicode="h" horiz-adv-x="376" d="M336 404 L186 404 L245 740 L182 740 L64 70 L127 70 L175 341 L325 341 L277 70 L340 70 L458 740 L395 740 L336 404 L336 404 Z " />
<glyph glyph-name="i" unicode="i" horiz-adv-x="156" d="M56 70 L120 70 L238 740 L174 740 L56 70 L56 70 Z " />
<glyph glyph-name="j" unicode="j" horiz-adv-x="391" d="M400 740 L313 243 C303 183 258 132 215 132 C173 132 146 182 156 240 L180 378 L116 378 L92 240 C75 146 126 70 204 70 C283 70 360 147 377 243 L464 740 L400 740 L400 740 Z " />
<glyph glyph-name="k" unicode="k" horiz-adv-x="443" d="M454 740 L202 432 L256 740 L192 740 L74 70 L138 70 L182 318 L264 412 L335 70 L396 70 L312 477 L528 740 L454 740 L454 740 Z " />
<glyph glyph-name="l" unicode="l" horiz-adv-x="312" d="M245 740 L182 740 L64 70 L280 70 L291 132 L138 132 L245 740 L245 740 Z " />
<glyph glyph-name="m" unicode="m" horiz-adv-x="452" d="M460 740 L293 396 L248 740 L182 740 L180 740 L62 70 L126 70 L209 540 L245 266 L296 266 L433 546 L349 70 L412 70 L530 740 L460 740 Z " />
<glyph glyph-name="n" unicode="n" horiz-adv-x="431" d="M350 248 L264 740 L192 740 L74 70 L138 70 L227 574 L316 70 L383 70 L383 70 L501 740 L437 740 L350 248 L350 248 Z " />
<glyph glyph-name="o" unicode="o" horiz-adv-x="398" d="M323 740 C244 740 167 665 151 574 L91 237 C75 144 126 70 205 70 C284 70 361 144 377 237 L437 574 C453 665 402 740 323 740 L323 740 Z M315 237 C305 180 259 134 216 134 C173 134 145 180 155 237 L215 574 C224 629 269 677 312 677 C355 677 384 629 375 574 L315 237 L315 237 Z " />
<glyph glyph-name="p" unicode="p" horiz-adv-x="383" d="M326 740 L182 740 L119 380 L107 316 L64 70 L127 70 L170 316 L251 316 C324 316 394 378 408 454 L434 603 C447 678 399 740 326 740 L326 740 Z M345 454 C337 412 301 380 263 380 L182 380 L234 677 L315 677 C353 677 378 644 371 603 L345 454 L345 454 Z " />
<glyph glyph-name="q" unicode="q" horiz-adv-x="391" d="M377 236 L437 573 C453 664 402 740 323 740 C244 740 166 664 150 573 L90 236 C74 144 126 70 205 70 C232 70 257 78 281 93 L316 47 L369 92 L332 138 C355 166 371 200 377 236 L377 236 Z M315 236 C312 218 304 201 295 185 L266 222 L212 179 L244 140 C234 135 226 132 216 132 C172 132 144 180 154 236 L214 573 C223 629 268 676 312 676 C355 676 384 629 375 573 L315 236 L315 236 Z " />
<glyph glyph-name="r" unicode="r" horiz-adv-x="383" d="M332 333 C369 359 398 400 406 446 L433 599 C447 676 398 740 326 740 L183 740 L65 70 L128 70 L169 305 L238 305 C282 305 311 258 301 202 L278 70 L341 70 L364 202 C373 255 360 303 332 333 L332 333 Z M261 369 L181 369 L235 676 L315 676 C352 676 377 642 369 599 L342 446 C335 404 298 369 261 369 L261 369 Z " />
<glyph glyph-name="s" unicode="s" horiz-adv-x="390" d="M289 431 C244 482 206 528 219 600 C227 644 268 676 312 676 C355 676 383 639 375 593 L439 593 C453 674 401 740 323 740 C244 740 171 680 156 602 C137 501 191 438 237 384 C284 333 324 287 308 212 C296 148 251 134 216 134 C173 134 145 171 153 218 L90 218 C75 136 127 70 205 70 C289 70 354 125 372 210 C392 315 337 377 289 431 L289 431 Z " />
<glyph glyph-name="t" unicode="t" horiz-adv-x="352" d="M169 676 L267 676 L160 70 L222 70 L329 676 L425 676 L436 740 L180 740 L169 676 L169 676 Z " />
<glyph glyph-name="u" unicode="u" horiz-adv-x="392" d="M319 237 C309 180 263 134 219 134 C174 134 145 180 155 237 L244 740 L180 740 L91 237 C75 144 127 70 208 70 C288 70 366 144 382 237 L471 740 L408 740 L319 237 L319 237 Z " />
<glyph glyph-name="v" unicode="v" horiz-adv-x="422" d="M256 740 L192 740 L199 70 L251 70 L492 740 L429 740 L260 276 L256 740 Z " />
<glyph glyph-name="w" unicode="w" horiz-adv-x="598" d="M473 314 L437 195 L444 314 L450 653 L395 653 L282 315 L246 195 L252 316 L256 740 L192 740 L198 70 L251 70 L386 452 L388 70 L440 70 L682 740 L618 740 L473 314 L473 314 Z " />
<glyph glyph-name="x" unicode="x" horiz-adv-x="418" d="M428 740 L291 476 L248 740 L180 740 L240 378 L80 70 L146 70 L257 281 L292 70 L359 70 L306 378 L494 740 L428 740 L428 740 Z " />
<glyph glyph-name="y" unicode="y" horiz-adv-x="415" d="M295 446 L258 740 L192 740 L244 330 L198 70 L262 70 L308 332 L498 740 L434 740 L295 446 L295 446 Z " />
<glyph glyph-name="z" unicode="z" horiz-adv-x="392" d="M483 740 L203 740 L192 676 L382 676 L62 70 L347 70 L358 132 L163 132 L163 132 L483 740 L483 740 Z " />
<glyph glyph-name="braceleft" unicode="&#x7b;" horiz-adv-x="320" d="M246 649 L232 570 C224 526 191 476 167 462 C139 445 122 421 117 396 C113 370 125 346 147 329 C167 314 183 264 175 221 L159 126 C146 55 175 0 226 0 L283 0 L293 62 L236 62 C227 62 214 86 221 126 L237 221 C248 283 228 354 189 382 C182 388 181 392 181 396 C180 400 186 406 193 409 C239 437 283 508 294 570 L308 649 C315 688 339 712 348 712 L408 712 L419 775 L359 775 C308 775 258 720 246 649 L246 649 Z " />
<glyph glyph-name="bar" unicode="&#x7c;" horiz-adv-x="163" d="M30 -97 L94 -97 L263 858 L199 858 L30 -97 L30 -97 Z " />
<glyph glyph-name="braceright" unicode="&#x7d;" horiz-adv-x="320" d="M326 462 C306 476 291 526 299 570 L313 649 C325 720 296 775 244 775 L184 775 L173 712 L233 712 C243 712 258 688 251 649 L237 570 C226 508 246 437 282 409 C287 406 291 400 290 396 C289 392 285 388 276 382 C228 354 181 283 170 221 L154 126 C147 86 124 62 116 62 L58 62 L48 0 L106 0 C156 0 203 55 216 126 L232 221 C240 264 275 314 300 329 C329 346 348 370 352 396 C357 421 348 445 326 462 L326 462 Z " />
<glyph glyph-name="asciitilde" unicode="&#x7e;" horiz-adv-x="510" d="M238 337 C238 337 238 337 238 337 C258 337 274 326 294 313 C337 282 397 240 527 349 L490 394 C403 319 376 338 336 366 C314 382 287 401 250 401 C214 401 168 384 106 331 L142 287 C183 320 214 337 238 337 L238 337 Z " />
<glyph glyph-name="exclamdown" unicode="&#xa1;" horiz-adv-x="162" d="M156 617 L146 558 L210 558 L220 617 L156 617 Z M129 460 L12 -199 L76 -199 L193 460 L129 460 Z " />
<glyph glyph-name="cent" unicode="&#xa2;" horiz-adv-x="388" d="M357 566 C366 559 370 550 372 539 L435 558 C432 580 423 599 408 614 C392 631 371 642 347 647 L361 726 L291 726 L276 643 C218 626 159 578 150 522 L93 204 C83 146 125 98 177 82 L163 0 L233 0 L246 78 C293 88 338 118 363 160 L308 182 C297 164 278 151 258 144 L335 582 C343 578 352 574 357 566 L357 566 Z M156 204 L213 522 C216 544 243 564 264 575 L189 150 C172 162 152 181 156 204 L156 204 Z " />
<glyph glyph-name="sterling" unicode="&#xa3;" horiz-adv-x="494" d="M405 101 C390 77 371 66 345 66 C298 66 229 65 173 65 C195 92 210 128 217 167 L238 289 L374 289 L386 353 L250 353 L296 618 C306 674 354 722 399 722 C417 722 433 716 445 703 L496 750 C473 773 444 786 410 786 C330 786 251 710 234 618 L188 353 L110 353 L98 289 L176 289 L155 167 C144 103 101 64 74 62 C72 62 72 62 72 62 L62 0 C64 0 65 0 66 0 C88 0 247 2 334 2 C385 2 430 29 458 76 C478 107 484 138 485 142 L422 142 C422 142 417 120 405 101 L405 101 Z " />
<glyph glyph-name="currency" unicode="&#xa4;" horiz-adv-x="446" d="M438 553 L377 467 C360 485 337 496 309 496 C283 496 255 485 231 467 L201 553 L140 524 L179 408 C165 384 157 358 152 329 L126 186 C121 157 121 131 127 108 L46 -8 L97 -37 L157 49 C175 30 199 19 225 19 C253 19 280 30 303 49 L334 -37 L395 -8 L356 103 L351 101 C368 126 379 155 384 186 L410 329 C415 358 413 384 407 408 L489 524 L438 553 L438 553 Z M236 83 C201 83 179 131 188 186 L214 329 C223 384 263 433 298 433 C334 433 356 384 347 329 L321 186 C312 131 272 83 236 83 L236 83 Z " />
<glyph glyph-name="yen" unicode="&#xa5;" horiz-adv-x="481" d="M499 827 L299 412 L241 827 L178 808 L236 392 L155 392 L144 330 L244 330 L247 307 L241 276 L134 276 L123 214 L230 214 L193 0 L257 0 L294 214 L401 214 L412 276 L305 276 L308 293 L326 330 L422 330 L433 392 L356 392 L556 808 L499 827 L499 827 Z " />
<glyph glyph-name="brokenbar" unicode="&#xa6;" horiz-adv-x="185" d="M135 494 L199 494 L254 809 L190 809 L135 494 L135 494 Z M68 118 L132 118 L188 432 L124 432 L68 118 L68 118 Z " />
<glyph glyph-name="section" unicode="&#xa7;" horiz-adv-x="592" d="M462 438 C405 496 354 544 370 625 C378 674 432 713 491 713 C550 713 590 670 580 617 L642 617 C658 704 596 776 502 776 C408 776 323 710 307 626 C300 587 303 553 314 523 C313 523 310 523 308 523 C216 523 129 457 113 373 C93 262 159 196 218 137 C276 79 328 30 310 -55 C294 -134 228 -145 190 -145 C134 -145 95 -102 104 -49 L40 -49 C24 -137 88 -209 179 -209 C226 -209 267 -196 300 -172 C338 -145 363 -106 373 -56 C380 -18 378 16 368 44 C371 44 372 44 373 44 C420 44 462 58 496 82 C534 108 559 148 568 197 C593 312 522 379 462 438 L462 438 Z M506 198 C490 120 423 108 385 108 C357 108 332 118 316 137 L315 136 C301 154 283 169 267 185 C210 241 161 290 177 372 C186 421 239 460 297 460 C327 460 357 449 371 431 L373 431 C386 416 400 403 412 390 C472 332 522 283 506 198 L506 198 Z " />
<glyph glyph-name="dieresis" unicode="&#xa8;" horiz-adv-x="270" d="M265 701 L323 701 L334 761 L276 761 L265 701 L265 701 Z M171 701 L230 701 L241 761 L182 761 L171 701 L171 701 Z " />
<glyph glyph-name="copyright" unicode="&#xa9;" horiz-adv-x="635" d="M456 814 C310 814 168 686 141 530 L97 283 C70 127 167 0 313 0 C460 0 600 127 627 283 L671 530 C698 686 603 814 456 814 L456 814 Z M565 283 C544 162 435 62 323 62 C212 62 140 162 161 283 L205 530 C226 652 334 751 445 751 C557 751 630 652 609 530 L565 283 L565 283 Z M428 619 C452 619 472 606 484 583 L542 620 C520 660 484 683 439 683 C358 683 279 607 262 516 L224 298 C208 206 261 131 342 131 C385 131 430 154 465 191 L420 228 C401 206 376 194 353 194 C308 194 277 241 287 298 L325 516 C335 572 383 619 428 619 L428 619 Z " />
<glyph glyph-name="ordfeminine" unicode="&#xaa;" horiz-adv-x="250" d="M263 790 L260 790 L260 790 C222 788 186 758 180 721 L216 721 C219 739 236 753 254 754 C273 753 285 738 281 718 L273 672 C262 684 246 691 228 691 C183 691 139 648 130 597 L123 558 C114 506 143 464 188 464 C206 464 225 471 239 481 L236 464 L272 464 L317 718 C324 756 299 788 263 790 L263 790 Z M252 558 C246 527 220 500 195 500 C170 500 153 527 159 558 L166 597 C171 629 197 655 222 655 C247 655 264 629 259 597 L252 558 L252 558 Z " />
<glyph glyph-name="guillemotleft" unicode="&#xab;" horiz-adv-x="443" d="M285 600 L116 389 L210 173 L270 206 L190 389 L333 566 L285 600 Z M429 600 L260 389 L354 173 L414 206 L334 389 L477 566 L429 600 Z " />
<glyph glyph-name="logicalnot" unicode="&#xac;" horiz-adv-x="628" d="M91 325 L569 325 L544 187 L608 187 L644 389 L102 389 L91 325 L91 325 Z " />
<glyph glyph-name="uni00AD" unicode="&#xad;" horiz-adv-x="373" d="M97 371 L402 371 L413 433 L108 433 L97 371 Z " />
<glyph glyph-name="registered" unicode="&#xae;" horiz-adv-x="568" d="M477 475 L494 570 C504 626 467 672 412 672 L305 672 L305 671 L294 608 L263 436 L252 372 L228 233 L291 233 L315 372 L352 372 C376 372 391 344 386 312 L369 220 L433 220 L450 312 C456 347 448 378 432 401 C455 419 472 445 477 475 L477 475 Z M357 608 L401 608 C421 608 434 592 430 570 L413 475 C410 454 390 436 370 436 L326 436 L357 608 L357 608 Z M476 808 L380 808 C275 808 175 724 157 619 L95 272 C77 168 147 84 252 84 L348 84 C451 84 551 168 569 272 L631 619 C649 724 579 808 476 808 L476 808 Z M507 272 C495 203 427 146 359 146 L263 146 C193 146 147 203 159 272 L221 619 C233 689 299 745 369 745 L465 745 C533 745 581 689 569 619 L507 272 L507 272 Z " />
<glyph glyph-name="macron" unicode="&#xaf;" horiz-adv-x="374" d="M163 746 L468 746 L479 809 L174 809 L163 746 Z " />
<glyph glyph-name="degree" unicode="&#xb0;" horiz-adv-x="241" d="M338 720 C347 769 315 809 266 809 C218 809 171 769 162 720 C154 672 187 632 235 632 C284 632 330 672 338 720 L338 720 Z M244 684 C224 684 213 701 216 720 C220 740 237 756 257 756 C277 756 288 740 284 720 C281 701 264 684 244 684 L244 684 Z " />
<glyph glyph-name="plusminus" unicode="&#xb1;" horiz-adv-x="392" d="M54 115 L378 115 L389 179 L65 179 L54 115 L54 115 Z M325 556 L262 556 L238 425 L108 425 L97 361 L227 361 L204 232 L267 232 L290 361 L421 361 L432 425 L301 425 L325 556 L325 556 Z " />
<glyph glyph-name="twosuperior" unicode="&#xb2;" horiz-adv-x="260" d="M338 698 C348 761 314 809 261 809 C208 809 157 758 146 692 L205 692 C211 726 234 750 251 750 C271 750 283 727 278 698 C269 642 235 610 197 570 C155 528 107 480 94 401 L89 372 L264 372 L274 431 L160 431 C175 472 203 500 236 533 C277 575 324 622 338 698 L338 698 Z " />
<glyph glyph-name="threesuperior" unicode="&#xb3;" horiz-adv-x="258" d="M250 684 L362 810 L176 810 L166 751 L238 751 L135 636 L192 636 C252 636 249 569 242 528 C231 466 204 432 189 432 C172 432 157 456 163 490 L104 490 C92 425 125 373 178 373 C226 373 283 421 302 528 C317 618 290 666 250 684 L250 684 Z " />
<glyph glyph-name="acute" unicode="&#xb4;" horiz-adv-x="170" d="M168 684 L210 684 L252 773 L200 773 L168 684 L168 684 Z " />
<glyph glyph-name="&amp;#xb5;" unicode="&#xb5;" horiz-adv-x="392" d="M371 528 L307 167 C297 112 251 64 205 64 C161 64 131 112 141 167 L212 568 L212 568 L148 568 L148 568 L77 167 L22 -142 L86 -142 L117 31 C136 12 163 1 194 1 C226 1 256 12 283 31 L277 -4 L341 -4 L371 167 L435 528 L442 568 L378 568 L371 528 L371 528 Z " />
<glyph glyph-name="&amp;#x3bc;" unicode="&#x3bc;" horiz-adv-x="392" d="M371 528 L307 167 C297 112 251 64 205 64 C161 64 131 112 141 167 L212 568 L212 568 L148 568 L148 568 L77 167 L22 -142 L86 -142 L117 31 C136 12 163 1 194 1 C226 1 256 12 283 31 L277 -4 L341 -4 L371 167 L435 528 L442 568 L378 568 L371 528 L371 528 Z " />
<glyph glyph-name="paragraph" unicode="&#xb6;" horiz-adv-x="556" d="M509 778 L341 778 C255 778 172 706 156 618 L126 446 C111 358 168 286 254 286 L358 286 L308 0 L372 0 L422 286 L433 349 L497 713 L565 713 L440 0 L504 0 L640 776 L508 776 L509 778 L509 778 Z " />
<glyph glyph-name="periodcentered" unicode="&#xb7;" horiz-adv-x="170" d="M167 476 C138 476 110 452 105 422 C100 394 120 370 149 370 C178 370 206 394 211 422 C216 452 196 476 167 476 L167 476 Z " />
<glyph glyph-name="cedilla" unicode="&#xb8;" horiz-adv-x="206" d="M124 22 L62 22 C54 -24 70 -49 80 -65 C85 -73 89 -79 88 -82 C86 -92 60 -103 29 -103 L18 -166 C88 -166 142 -132 151 -82 C156 -56 144 -40 137 -26 C128 -12 120 -1 124 22 L124 22 Z " />
<glyph glyph-name="onesuperior" unicode="&#xb9;" horiz-adv-x="205" d="M299 810 L219 810 L164 757 L202 719 L228 743 L162 372 L222 372 L299 809 L298 809 L299 810 Z " />
<glyph glyph-name="ordmasculine" unicode="&#xba;" horiz-adv-x="391" d="M307 626 C226 626 147 552 131 461 L87 211 C71 120 124 46 205 46 C286 46 365 120 381 211 L425 461 C441 552 388 626 307 626 L307 626 Z M318 211 C308 156 261 108 216 108 C171 108 141 156 151 211 L195 461 C204 516 251 564 296 564 C341 564 371 516 362 461 L318 211 Z " />
<glyph glyph-name="guillemotright" unicode="&#xbb;" horiz-adv-x="449" d="M303 566 L384 389 L240 206 L288 173 L458 389 L363 600 L303 566 Z M159 566 L240 389 L96 206 L144 173 L314 389 L219 600 L159 566 Z " />
<glyph glyph-name="onequarter" unicode="&#xbc;" horiz-adv-x="556" d="M299 810 L219 810 L164 757 L202 719 L228 743 L162 372 L222 372 L299 809 L298 809 L299 810 Z M534 440 L480 440 L296 144 L423 144 L398 2 L457 2 L482 144 L516 144 L526 203 L492 203 L534 440 Z M433 203 L397 203 L448 286 L433 203 Z M79 0 L158 0 L582 805 L504 805 L79 0 L79 0 Z " />
<glyph glyph-name="onehalf" unicode="&#xbd;" horiz-adv-x="520" d="M299 810 L219 810 L164 757 L202 719 L228 743 L162 372 L222 372 L299 809 L298 809 L299 810 Z M568 329 C577 391 544 439 491 439 C438 439 387 389 375 323 L434 323 C440 356 464 380 481 380 C501 380 513 358 508 329 C498 272 466 240 427 200 C385 158 337 110 324 31 L319 2 L494 2 L504 61 L390 61 C405 102 433 131 466 163 C508 205 554 252 568 329 L568 329 Z M64 0 L143 0 L567 805 L489 805 L64 0 L64 0 Z " />
<glyph glyph-name="threequarters" unicode="&#xbe;" horiz-adv-x="553" d="M176 810 L166 751 L238 751 L135 636 L192 636 C252 636 249 569 242 528 C231 466 204 432 189 432 C172 432 157 456 163 490 L104 490 C92 425 125 373 178 373 C226 373 283 421 302 528 C317 618 290 666 250 684 L362 810 L176 810 Z M176 810 L166 751 L238 751 L135 636 L192 636 C252 636 249 569 242 528 C231 466 204 432 189 432 C172 432 157 456 163 490 L104 490 C92 425 125 373 178 373 C226 373 283 421 302 528 C317 618 290 666 250 684 L362 810 L176 810 Z M176 810 L166 751 L238 751 L135 636 L192 636 C252 636 249 569 242 528 C231 466 204 432 189 432 C172 432 157 456 163 490 L104 490 C92 425 125 373 178 373 C226 373 283 421 302 528 C317 618 290 666 250 684 L362 810 L176 810 Z M570 440 L516 440 L332 144 L459 144 L434 2 L493 2 L518 144 L552 144 L562 203 L528 203 L570 440 Z M469 203 L433 203 L484 286 L469 203 Z M107 0 L186 0 L610 805 L532 805 L107 0 L107 0 Z " />
<glyph glyph-name="questiondown" unicode="&#xbf;" horiz-adv-x="422" d="M389 644 L327 644 L317 586 L379 586 L389 644 Z M178 -156 C273 -156 366 -67 385 42 L321 42 C308 -32 249 -92 189 -92 C129 -92 90 -38 102 31 C121 145 166 187 220 238 C278 290 342 350 364 493 L301 491 C282 373 236 330 181 280 C125 228 61 169 39 31 C21 -74 82 -156 178 -156 L178 -156 Z " />
<glyph glyph-name="Agrave" unicode="&#xc0;" horiz-adv-x="458" d="M328 811 L29 0 L93 0 L178 232 L337 232 L341 0 L405 0 L395 811 L328 811 L328 811 Z M201 294 L333 649 L336 294 L201 294 L201 294 Z M369 997 L379 908 L421 908 L422 997 L369 997 L369 997 Z " />
<glyph glyph-name="Aacute" unicode="&#xc1;" horiz-adv-x="458" d="M328 811 L29 0 L93 0 L178 232 L337 232 L341 0 L405 0 L395 811 L328 811 L328 811 Z M201 294 L333 649 L336 294 L201 294 L201 294 Z M353 908 L395 908 L437 997 L385 997 L353 908 L353 908 Z " />
<glyph glyph-name="Acircumflex" unicode="&#xc2;" horiz-adv-x="458" d="M328 811 L29 0 L93 0 L178 232 L337 232 L341 0 L405 0 L395 811 L328 811 L328 811 Z M201 294 L333 649 L336 294 L201 294 L201 294 Z M202 825 L234 777 L384 882 L488 773 L536 821 L398 964 L202 825 Z " />
<glyph glyph-name="Atilde" unicode="&#xc3;" horiz-adv-x="458" d="M328 811 L29 0 L93 0 L178 232 L337 232 L341 0 L405 0 L395 811 L328 811 L328 811 Z M201 294 L333 649 L336 294 L201 294 L201 294 Z M364 909 C408 878 469 836 598 945 L561 990 C473 915 448 934 408 962 C384 978 358 997 321 997 C285 997 239 980 176 927 L215 883 C254 916 286 933 310 933 C310 933 310 933 310 933 C329 933 347 922 364 909 L364 909 Z " />
<glyph glyph-name="Adieresis" unicode="&#xc4;" horiz-adv-x="458" d="M328 811 L29 0 L93 0 L178 232 L337 232 L341 0 L405 0 L395 811 L328 811 L328 811 Z M201 294 L333 649 L336 294 L201 294 L201 294 Z M387 925 L445 925 L456 985 L398 985 L387 925 L387 925 Z M293 925 L352 925 L363 985 L304 985 L293 925 L293 925 Z " />
<glyph glyph-name="Aring" unicode="&#xc5;" horiz-adv-x="458" d="M328 811 L29 0 L93 0 L178 232 L337 232 L341 0 L405 0 L395 811 L328 811 L328 811 Z M201 294 L333 649 L336 294 L201 294 L201 294 Z M481 922 C490 971 458 1011 409 1011 C361 1011 314 971 305 922 C297 874 330 834 378 834 C427 834 473 874 481 922 L481 922 L481 922 Z M387 886 C367 886 356 903 359 922 C363 942 380 958 400 958 C420 958 431 942 427 922 C424 903 407 886 387 886 L387 886 Z " />
<glyph glyph-name="AE" unicode="&#xc6;" horiz-adv-x="677" d="M741 745 L752 809 L551 809 L495 809 L484 809 L43 0 L107 0 L233 232 L392 232 L380 154 L353 0 L355 0 L419 0 L610 0 L620 62 L428 62 L450 194 L475 338 L606 338 L617 401 L486 401 L547 745 L741 745 L741 745 Z M267 294 L461 649 L401 294 L267 294 L267 294 Z " />
<glyph glyph-name="Ccedilla" unicode="&#xc7;" horiz-adv-x="437" d="M328 749 L336 749 C364 749 387 738 403 718 C413 704 420 688 422 670 L485 686 C483 715 472 740 456 762 C431 794 392 811 347 811 L339 811 C246 811 158 734 141 640 L59 173 C42 78 103 0 196 0 L204 0 C275 0 345 47 381 114 L324 136 C303 92 258 64 215 64 L207 64 C149 64 112 113 123 173 L205 640 C216 700 270 749 328 749 L328 749 Z M245 -8 L183 -8 C175 -54 191 -79 201 -95 C206 -103 210 -109 209 -112 C207 -122 181 -133 150 -133 L139 -196 C209 -196 263 -162 272 -112 C277 -86 265 -70 258 -56 C249 -42 241 -31 245 -8 L245 -8 Z " />
<glyph glyph-name="Egrave" unicode="&#xc8;" horiz-adv-x="359" d="M34 0 L291 0 L301 62 L107 62 L156 338 L287 338 L298 401 L167 401 L228 748 L422 748 L434 811 L177 811 L34 0 L34 0 Z M319 997 L329 908 L371 908 L372 997 L319 997 L319 997 Z " />
<glyph glyph-name="Eacute" unicode="&#xc9;" horiz-adv-x="359" d="M34 0 L291 0 L301 62 L107 62 L156 338 L287 338 L298 401 L167 401 L228 748 L422 748 L434 811 L177 811 L34 0 L34 0 Z M303 908 L345 908 L387 997 L335 997 L303 908 L303 908 Z " />
<glyph glyph-name="Ecircumflex" unicode="&#xca;" horiz-adv-x="359" d="M34 0 L291 0 L301 62 L107 62 L156 338 L287 338 L298 401 L167 401 L228 748 L422 748 L434 811 L177 811 L34 0 L34 0 Z M168 906 L200 858 L350 963 L454 854 L502 902 L364 1045 L168 906 Z " />
<glyph glyph-name="Edieresis" unicode="&#xcb;" horiz-adv-x="359" d="M34 0 L291 0 L301 62 L107 62 L156 338 L287 338 L298 401 L167 401 L228 748 L422 748 L434 811 L177 811 L34 0 L34 0 Z M336 925 L394 925 L405 985 L347 985 L336 925 L336 925 Z M242 925 L301 925 L312 985 L253 985 L242 925 L242 925 Z " />
<glyph glyph-name="Igrave" unicode="&#xcc;" horiz-adv-x="169" d="M43 0 L107 0 L250 811 L186 811 L43 0 L43 0 Z M224 997 L234 908 L276 908 L277 997 L224 997 L224 997 Z " />
<glyph glyph-name="Iacute" unicode="&#xcd;" horiz-adv-x="169" d="M43 0 L107 0 L250 811 L186 811 L43 0 L43 0 Z M208 908 L250 908 L292 997 L240 997 L208 908 L208 908 Z " />
<glyph glyph-name="Icircumflex" unicode="&#xce;" horiz-adv-x="169" d="M43 0 L107 0 L250 811 L186 811 L43 0 L43 0 Z M73 906 L105 858 L255 963 L359 854 L407 902 L269 1045 L73 906 Z " />
<glyph glyph-name="Idieresis" unicode="&#xcf;" horiz-adv-x="169" d="M43 0 L107 0 L250 811 L186 811 L43 0 L43 0 Z M243 925 L301 925 L312 985 L254 985 L243 925 L243 925 Z M149 925 L208 925 L219 985 L160 985 L149 925 L149 925 Z " />
<glyph glyph-name="Eth" unicode="&#xd0;" horiz-adv-x="445" d="M372 808 L270 808 L207 808 L141 433 L96 433 L85 371 L130 371 L65 0 L76 0 L128 0 L233 0 C319 0 403 74 419 166 L503 644 C519 734 460 808 372 808 L372 808 Z M355 166 C345 109 295 64 244 64 L139 64 L193 371 L330 371 L341 433 L204 433 L259 745 L361 745 C414 745 449 700 439 644 L355 166 L355 166 Z " />
<glyph glyph-name="Ntilde" unicode="&#xd1;" horiz-adv-x="454" d="M484 811 L370 168 L258 811 L184 811 L41 0 L105 0 L219 649 L333 0 L403 0 L546 811 L484 811 L484 811 Z M362 909 C406 878 467 836 596 945 L559 990 C471 915 446 934 406 962 C382 978 356 997 319 997 C283 997 237 980 174 927 L213 883 C252 916 284 933 308 933 C308 933 308 933 308 933 C327 933 345 922 362 909 L362 909 Z " />
<glyph glyph-name="Ograve" unicode="&#xd2;" horiz-adv-x="438" d="M352 811 L344 811 C251 811 163 737 147 644 L63 167 C47 74 108 0 201 0 L209 0 C301 0 389 74 405 167 L489 644 C505 737 444 811 352 811 L352 811 Z M342 167 C332 109 277 62 219 62 L211 62 C153 62 116 109 126 167 L210 644 C220 702 274 748 332 748 L340 748 C398 748 436 702 426 644 L342 167 L342 167 Z M359 997 L369 908 L411 908 L412 997 L359 997 L359 997 Z " />
<glyph glyph-name="Oacute" unicode="&#xd3;" horiz-adv-x="438" d="M352 811 L344 811 C251 811 163 737 147 644 L63 167 C47 74 108 0 201 0 L209 0 C301 0 389 74 405 167 L489 644 C505 737 444 811 352 811 L352 811 Z M342 167 C332 109 277 62 219 62 L211 62 C153 62 116 109 126 167 L210 644 C220 702 274 748 332 748 L340 748 C398 748 436 702 426 644 L342 167 L342 167 Z M339 888 L381 888 L423 977 L371 977 L339 888 L339 888 Z " />
<glyph glyph-name="Ocircumflex" unicode="&#xd4;" horiz-adv-x="438" d="M352 811 L344 811 C251 811 163 737 147 644 L63 167 C47 74 108 0 201 0 L209 0 C301 0 389 74 405 167 L489 644 C505 737 444 811 352 811 L352 811 Z M342 167 C332 109 277 62 219 62 L211 62 C153 62 116 109 126 167 L210 644 C220 702 274 748 332 748 L340 748 C398 748 436 702 426 644 L342 167 L342 167 Z M207 906 L239 858 L389 963 L493 854 L541 902 L403 1045 L207 906 Z " />
<glyph glyph-name="Otilde" unicode="&#xd5;" horiz-adv-x="438" d="M352 811 L344 811 C251 811 163 737 147 644 L63 167 C47 74 108 0 201 0 L209 0 C301 0 389 74 405 167 L489 644 C505 737 444 811 352 811 L352 811 Z M342 167 C332 109 277 62 219 62 L211 62 C153 62 116 109 126 167 L210 644 C220 702 274 748 332 748 L340 748 C398 748 436 702 426 644 L342 167 L342 167 Z M355 909 C399 878 460 836 589 945 L552 990 C464 915 439 934 399 962 C375 978 349 997 312 997 C276 997 230 980 167 927 L206 883 C245 916 277 933 301 933 C301 933 301 933 301 933 C320 933 338 922 355 909 L355 909 Z " />
<glyph glyph-name="Odieresis" unicode="&#xd6;" horiz-adv-x="438" d="M399 845 L486 845 L502 935 L415 935 L399 845 Z M257 845 L346 845 L362 935 L273 935 L257 845 Z M352 811 L344 811 C251 811 163 737 147 644 L63 167 C47 74 108 0 201 0 L209 0 C301 0 389 74 405 167 L489 644 C505 737 444 811 352 811 L352 811 Z M342 167 C332 109 277 62 219 62 L211 62 C153 62 116 109 126 167 L210 644 C220 702 274 748 332 748 L340 748 C398 748 436 702 426 644 L342 167 L342 167 Z " />
<glyph glyph-name="multiply" unicode="&#xd7;" horiz-adv-x="365" d="M359 473 L251 380 L174 473 L122 428 L198 336 L90 244 L126 199 L235 292 L311 199 L363 244 L287 336 L395 428 L359 473 L359 473 Z " />
<glyph glyph-name="Oslash" unicode="&#xd8;" horiz-adv-x="452" d="M481 805 L447 737 C423 755 393 766 358 766 L350 766 C257 766 169 691 153 600 L75 157 C67 110 78 70 103 40 L57 -53 L114 -72 L151 2 C169 -5 190 -10 213 -10 L221 -10 C314 -10 401 65 417 157 L495 600 C501 630 498 660 487 684 L538 786 L481 805 L481 805 Z M139 157 L217 600 C227 656 280 703 338 703 L346 703 C375 703 399 691 416 672 L140 114 C136 127 137 142 139 157 L139 157 Z M355 157 C345 100 290 53 232 53 L224 53 C207 53 193 56 181 64 L426 559 L355 157 L355 157 Z " />
<glyph glyph-name="Ugrave" unicode="&#xd9;" horiz-adv-x="446" d="M342 167 C332 109 278 64 220 64 L212 64 C154 64 116 109 126 167 L240 811 L177 811 L63 167 C47 74 108 0 201 0 L209 0 C301 0 389 74 405 167 L519 811 L456 811 L342 167 L342 167 Z M362 997 L372 908 L414 908 L415 997 L362 997 L362 997 Z " />
<glyph glyph-name="Uacute" unicode="&#xda;" horiz-adv-x="446" d="M342 167 C332 109 278 64 220 64 L212 64 C154 64 116 109 126 167 L240 811 L177 811 L63 167 C47 74 108 0 201 0 L209 0 C301 0 389 74 405 167 L519 811 L456 811 L342 167 L342 167 Z M346 908 L388 908 L430 997 L378 997 L346 908 L346 908 Z " />
<glyph glyph-name="Ucircumflex" unicode="&#xdb;" horiz-adv-x="446" d="M342 167 C332 109 278 64 220 64 L212 64 C154 64 116 109 126 167 L240 811 L177 811 L63 167 C47 74 108 0 201 0 L209 0 C301 0 389 74 405 167 L519 811 L456 811 L342 167 L342 167 Z M210 906 L242 858 L392 963 L496 854 L544 902 L406 1045 L210 906 Z " />
<glyph glyph-name="Udieresis" unicode="&#xdc;" horiz-adv-x="446" d="M342 167 C332 109 278 64 220 64 L212 64 C154 64 116 109 126 167 L240 811 L177 811 L63 167 C47 74 108 0 201 0 L209 0 C301 0 389 74 405 167 L519 811 L456 811 L342 167 L342 167 Z M380 925 L438 925 L449 985 L391 985 L380 925 L380 925 Z M286 925 L345 925 L356 985 L297 985 L286 925 L286 925 Z " />
<glyph glyph-name="Yacute" unicode="&#xdd;" horiz-adv-x="466" d="M285 428 L238 811 L172 811 L234 312 L179 0 L243 0 L298 314 L531 811 L465 811 L285 428 L285 428 Z M356 908 L398 908 L440 997 L388 997 L356 908 L356 908 Z " />
<glyph glyph-name="Thorn" unicode="&#xde;" horiz-adv-x="390" d="M332 702 C301 702 270 691 244 672 L271 823 L207 823 L156 535 L112 287 L38 -133 L102 -133 L152 150 C172 131 199 120 230 120 C311 120 392 205 408 298 L450 535 C466 628 413 702 332 702 L332 702 Z M343 287 C333 230 286 182 241 182 C196 182 166 230 176 287 L220 535 C230 592 276 638 321 638 C366 638 397 592 387 535 L343 287 Z " />
<glyph glyph-name="germandbls" unicode="&#xdf;" horiz-adv-x="468" d="M415 476 C404 487 394 496 382 503 C423 528 460 568 478 625 C510 730 471 781 445 802 C401 835 332 839 272 810 C216 784 177 734 167 677 L48 0 L112 0 L231 677 C239 722 271 745 291 755 C329 773 373 770 400 750 C427 727 433 688 417 634 C389 540 285 526 276 524 C274 524 273 524 273 524 L269 462 C271 462 271 462 272 462 C279 462 332 466 367 428 C399 394 408 334 393 248 C380 175 358 125 324 97 C286 65 239 66 201 67 C195 67 189 68 184 68 L173 5 C178 5 182 5 188 5 C233 4 300 1 361 52 C410 92 440 157 456 248 C475 353 461 430 415 476 L415 476 Z " />
<glyph glyph-name="agrave" unicode="&#xe0;" horiz-adv-x="385" d="M299 859 L309 770 L351 770 L352 859 L299 859 L299 859 Z M288 740 L44 70 L108 70 L179 262 L298 262 L300 70 L364 70 L358 740 L288 740 L288 740 Z M202 326 L295 582 L298 326 L202 326 L202 326 Z " />
<glyph glyph-name="aacute" unicode="&#xe1;" horiz-adv-x="387" d="M304 764 L346 764 L388 853 L336 853 L304 764 L304 764 Z M288 740 L44 70 L108 70 L179 262 L298 262 L300 70 L364 70 L358 740 L288 740 L288 740 Z M202 326 L295 582 L298 326 L202 326 L202 326 Z " />
<glyph glyph-name="acircumflex" unicode="&#xe2;" horiz-adv-x="400" d="M161 783 L193 735 L343 840 L447 731 L495 779 L357 922 L161 783 Z M288 740 L44 70 L108 70 L179 262 L298 262 L300 70 L364 70 L358 740 L288 740 L288 740 Z M202 326 L295 582 L298 326 L202 326 L202 326 Z " />
<glyph glyph-name="atilde" unicode="&#xe3;" horiz-adv-x="392" d="M328 788 C362 764 409 732 510 816 L481 851 C412 793 393 808 362 829 C343 842 323 857 294 857 C266 857 230 843 181 802 L212 768 C242 794 267 807 286 807 C286 807 286 807 286 807 C300 807 314 798 328 788 L328 788 Z M288 740 L44 70 L108 70 L179 262 L298 262 L300 70 L364 70 L358 740 L288 740 L288 740 Z M202 326 L295 582 L298 326 L202 326 L202 326 Z " />
<glyph glyph-name="adieresis" unicode="&#xe4;" horiz-adv-x="400" d="M347 790 L405 790 L416 850 L358 850 L347 790 L347 790 Z M253 790 L312 790 L323 850 L264 850 L253 790 L253 790 Z M288 740 L44 70 L108 70 L179 262 L298 262 L300 70 L364 70 L358 740 L288 740 L288 740 Z M202 326 L295 582 L298 326 L202 326 L202 326 Z " />
<glyph glyph-name="aring" unicode="&#xe5;" horiz-adv-x="392" d="M288 740 L44 70 L108 70 L179 262 L298 262 L300 70 L364 70 L358 740 L288 740 L288 740 Z M202 326 L295 582 L298 326 L202 326 L202 326 Z M420 807 C429 856 397 896 348 896 C300 896 253 856 244 807 C236 759 269 719 317 719 C366 719 412 759 420 807 L420 807 L420 807 Z M326 771 C306 771 295 788 298 807 C302 827 319 843 339 843 C359 843 370 827 366 807 C363 788 346 771 326 771 L326 771 Z " />
<glyph glyph-name="ae" unicode="&#xe6;" horiz-adv-x="420" d="M306 740 L62 70 L126 70 L197 262 L316 262 L318 70 L382 70 L376 740 L306 740 L306 740 Z M220 326 L313 582 L316 326 L220 326 L220 326 Z M314 56 L531 56 L542 118 L389 118 L426 326 L523 326 L534 388 L437 388 L485 662 L638 662 L650 726 L433 726 L314 56 L314 56 Z " />
<glyph glyph-name="ccedilla" unicode="&#xe7;" horiz-adv-x="352" d="M303 676 L310 676 C329 676 346 668 359 653 C366 644 371 630 372 617 L435 634 C434 658 425 680 411 696 C390 724 358 740 321 740 L314 740 C237 740 163 675 148 594 L81 214 C67 135 119 70 196 70 L203 70 C262 70 320 108 351 166 L294 186 C278 154 245 134 214 134 L207 134 C165 134 137 170 145 214 L212 594 C220 640 261 676 303 676 L303 676 Z M226 79 L164 79 C156 33 172 8 182 -8 C187 -16 191 -22 190 -25 C188 -35 162 -46 131 -46 L120 -109 C190 -109 244 -75 253 -25 C258 1 246 17 239 31 C230 45 222 56 226 79 L226 79 Z " />
<glyph glyph-name="egrave" unicode="&#xe8;" horiz-adv-x="310" d="M269 876 L279 787 L321 787 L322 876 L269 876 L269 876 Z M58 70 L275 70 L286 132 L133 132 L169 340 L266 340 L277 402 L180 402 L229 676 L382 676 L393 740 L176 740 L58 70 L58 70 Z " />
<glyph glyph-name="eacute" unicode="&#xe9;" horiz-adv-x="319" d="M270 808 L312 808 L354 897 L302 897 L270 808 L270 808 Z M58 70 L275 70 L286 132 L133 132 L169 340 L266 340 L277 402 L180 402 L229 676 L382 676 L393 740 L176 740 L58 70 L58 70 Z " />
<glyph glyph-name="ecircumflex" unicode="&#xea;" horiz-adv-x="319" d="M129 814 L161 766 L311 871 L415 762 L463 810 L325 953 L129 814 Z M58 70 L275 70 L286 132 L133 132 L169 340 L266 340 L277 402 L180 402 L229 676 L382 676 L393 740 L176 740 L58 70 L58 70 Z " />
<glyph glyph-name="edieresis" unicode="&#xeb;" horiz-adv-x="305" d="M58 70 L275 70 L286 132 L133 132 L169 340 L266 340 L277 402 L180 402 L229 676 L382 676 L393 740 L176 740 L58 70 L58 70 Z M305 798 L363 798 L374 858 L316 858 L305 798 L305 798 Z M211 798 L270 798 L281 858 L222 858 L211 798 L211 798 Z " />
<glyph glyph-name="igrave" unicode="&#xec;" horiz-adv-x="220" d="M71 675 L210 675 L103 72 L166 72 L284 738 L82 738 L71 675 L71 675 Z M165 866 L175 777 L217 777 L218 866 L165 866 L165 866 Z " />
<glyph glyph-name="iacute" unicode="&#xed;" horiz-adv-x="220" d="M71 675 L210 675 L103 72 L166 72 L284 738 L82 738 L71 675 L71 675 Z M162 771 L204 771 L246 860 L194 860 L162 771 L162 771 Z " />
<glyph glyph-name="icircumflex" unicode="&#xee;" horiz-adv-x="220" d="M71 675 L210 675 L103 72 L166 72 L284 738 L82 738 L71 675 L71 675 Z M30 801 L62 753 L212 858 L316 749 L364 797 L226 940 L30 801 Z " />
<glyph glyph-name="idieresis" unicode="&#xef;" horiz-adv-x="212" d="M71 675 L210 675 L103 72 L166 72 L284 738 L82 738 L71 675 L71 675 Z M216 776 L274 776 L285 836 L227 836 L216 776 L216 776 Z M122 776 L181 776 L192 836 L133 836 L122 776 L122 776 Z " />
<glyph glyph-name="eth" unicode="&#xf0;" horiz-adv-x="402" d="M369 774 L384 857 L320 857 L305 773 C233 757 169 690 155 610 L219 610 C227 654 257 691 293 707 L276 608 L340 608 L357 708 C391 695 410 655 402 610 L380 484 C357 504 328 516 293 516 C208 516 125 442 109 349 L78 175 C78 173 77 169 77 167 L77 167 C61 74 118 0 203 0 C288 0 371 74 387 167 L388 175 L419 349 L465 610 C479 691 438 760 369 774 L369 774 Z M173 349 C183 407 232 454 283 454 C333 454 366 407 356 349 L325 175 C315 118 265 72 215 72 C164 72 132 118 142 175 L173 349 L173 349 Z " />
<glyph glyph-name="ntilde" unicode="&#xf1;" horiz-adv-x="396" d="M332 248 L246 740 L174 740 L56 70 L120 70 L209 574 L298 70 L365 70 L365 70 L483 740 L419 740 L332 248 L332 248 Z M322 837 C366 806 427 764 556 873 L519 918 C431 843 406 862 366 890 C342 906 316 925 279 925 C243 925 197 908 134 855 L173 811 C212 844 244 861 268 861 C268 861 268 861 268 861 C287 861 305 850 322 837 L322 837 Z " />
<glyph glyph-name="ograve" unicode="&#xf2;" horiz-adv-x="391" d="M317 740 C238 740 161 665 145 574 L85 237 C69 144 120 70 199 70 C278 70 355 144 371 237 L431 574 C447 665 396 740 317 740 L317 740 Z M309 237 C299 180 253 134 210 134 C167 134 139 180 149 237 L209 574 C218 629 263 677 306 677 C349 677 378 629 369 574 L309 237 L309 237 Z M314 876 L324 787 L366 787 L367 876 L314 876 L314 876 Z " />
<glyph glyph-name="oacute" unicode="&#xf3;" horiz-adv-x="391" d="M327 740 C248 740 171 665 155 574 L95 237 C79 144 130 70 209 70 C288 70 365 144 381 237 L441 574 C457 665 406 740 327 740 L327 740 Z M319 237 C309 180 263 134 220 134 C177 134 149 180 159 237 L219 574 C228 629 273 677 316 677 C359 677 388 629 379 574 L319 237 L319 237 Z M310 768 L352 768 L394 857 L342 857 L310 768 L310 768 Z " />
<glyph glyph-name="ocircumflex" unicode="&#xf4;" horiz-adv-x="391" d="M327 740 C248 740 171 665 155 574 L95 237 C79 144 130 70 209 70 C288 70 365 144 381 237 L441 574 C457 665 406 740 327 740 L327 740 Z M319 237 C309 180 263 134 220 134 C177 134 149 180 159 237 L219 574 C228 629 273 677 316 677 C359 677 388 629 379 574 L319 237 L319 237 Z M170 768 L202 720 L352 825 L456 716 L504 764 L366 907 L170 768 Z " />
<glyph glyph-name="otilde" unicode="&#xf5;" horiz-adv-x="391" d="M327 740 C248 740 171 665 155 574 L95 237 C79 144 130 70 209 70 C288 70 365 144 381 237 L441 574 C457 665 406 740 327 740 L327 740 Z M319 237 C309 180 263 134 220 134 C177 134 149 180 159 237 L219 574 C228 629 273 677 316 677 C359 677 388 629 379 574 L319 237 L319 237 Z M331 790 C375 759 436 717 565 826 L528 871 C440 796 415 815 375 843 C351 859 325 878 288 878 C252 878 206 861 143 808 L182 764 C221 797 253 814 277 814 C277 814 277 814 277 814 C296 814 314 803 331 790 L331 790 Z " />
<glyph glyph-name="odieresis" unicode="&#xf6;" horiz-adv-x="385" d="M323 740 C244 740 167 665 151 574 L91 237 C75 144 126 70 205 70 C284 70 361 144 377 237 L437 574 C453 665 402 740 323 740 L323 740 Z M315 237 C305 180 259 134 216 134 C173 134 145 180 155 237 L215 574 C224 629 269 677 312 677 C355 677 384 629 375 574 L315 237 L315 237 Z M348 770 L406 770 L417 830 L359 830 L348 770 L348 770 Z M254 770 L313 770 L324 830 L265 830 L254 770 L254 770 Z " />
<glyph glyph-name="divide" unicode="&#xf7;" horiz-adv-x="415" d="M290 454 C309 454 327 469 331 490 C334 509 321 524 302 524 C283 524 264 509 261 490 C257 469 271 454 290 454 L290 454 Z M258 275 C239 275 220 259 217 240 C213 221 227 205 246 205 C265 205 283 221 287 240 C290 259 277 275 258 275 L258 275 Z M106 329 L430 329 L440 391 L116 391 L106 329 L106 329 Z " />
<glyph glyph-name="oslash" unicode="&#xf8;" horiz-adv-x="390" d="M417 571 L361 590 L332 533 C320 538 305 541 289 541 C209 541 130 467 113 374 L75 156 C68 114 75 76 93 46 L45 -50 L101 -70 L137 2 C153 -6 172 -11 192 -11 C274 -11 353 64 369 156 L407 374 C416 422 405 467 381 497 L417 571 L417 571 Z M139 156 L177 374 C187 431 234 478 278 478 C288 478 295 476 303 473 L136 134 C137 142 138 149 139 156 L139 156 Z M343 374 L305 156 C295 100 249 53 203 53 C190 53 177 56 168 64 L344 420 C346 407 346 391 343 374 L343 374 Z " />
<glyph glyph-name="ugrave" unicode="&#xf9;" horiz-adv-x="391" d="M319 237 C309 180 263 134 219 134 C174 134 145 180 155 237 L244 740 L180 740 L91 237 C75 144 127 70 208 70 C288 70 366 144 382 237 L471 740 L408 740 L319 237 L319 237 Z M311 863 L321 774 L363 774 L364 863 L311 863 L311 863 Z " />
<glyph glyph-name="uacute" unicode="&#xfa;" horiz-adv-x="391" d="M319 237 C309 180 263 134 219 134 C174 134 145 180 155 237 L244 740 L180 740 L91 237 C75 144 127 70 208 70 C288 70 366 144 382 237 L471 740 L408 740 L319 237 L319 237 Z M305 764 L347 764 L389 853 L337 853 L305 764 L305 764 Z " />
<glyph glyph-name="ucircumflex" unicode="&#xfb;" horiz-adv-x="391" d="M319 237 C309 180 263 134 219 134 C174 134 145 180 155 237 L244 740 L180 740 L91 237 C75 144 127 70 208 70 C288 70 366 144 382 237 L471 740 L408 740 L319 237 L319 237 Z M167 812 L199 764 L349 869 L453 760 L501 808 L363 951 L167 812 Z " />
<glyph glyph-name="udieresis" unicode="&#xfc;" horiz-adv-x="391" d="M319 237 C309 180 263 134 219 134 C174 134 145 180 155 237 L244 740 L180 740 L91 237 C75 144 127 70 208 70 C288 70 366 144 382 237 L471 740 L408 740 L319 237 L319 237 Z M350 767 L408 767 L419 827 L361 827 L350 767 L350 767 Z M256 767 L315 767 L326 827 L267 827 L256 767 L256 767 Z " />
<glyph glyph-name="yacute" unicode="&#xfd;" horiz-adv-x="364" d="M265 446 L228 740 L162 740 L214 330 L168 70 L232 70 L278 332 L468 740 L404 740 L265 446 L265 446 Z M296 760 L338 760 L380 849 L328 849 L296 760 L296 760 Z " />
<glyph glyph-name="thorn" unicode="&#xfe;" horiz-adv-x="406" d="M311 582 C280 582 249 571 223 552 L249 703 L185 703 L135 415 L91 167 L32 -169 L96 -169 L131 30 C150 11 178 0 209 0 C290 0 370 85 387 178 L429 415 C445 508 392 582 311 582 L311 582 Z M322 167 C312 110 264 62 219 62 C174 62 145 110 155 167 L199 415 C209 472 255 518 300 518 C345 518 376 472 366 415 L322 167 Z " />
<glyph glyph-name="ydieresis" unicode="&#xff;" horiz-adv-x="398" d="M265 446 L228 740 L162 740 L214 330 L168 70 L232 70 L278 332 L468 740 L404 740 L265 446 L265 446 Z M343 763 L401 763 L412 823 L354 823 L343 763 L343 763 Z M249 763 L308 763 L319 823 L260 823 L249 763 L249 763 Z " />
<glyph glyph-name="Amacron" unicode="&#x100;" horiz-adv-x="458" d="M328 811 L29 0 L93 0 L178 232 L337 232 L341 0 L405 0 L395 811 L328 811 L328 811 Z M201 294 L333 649 L336 294 L201 294 L201 294 Z M398 981 L289 1030 L255 973 L386 913 L542 975 L527 1033 L398 981 L398 981 Z " />
<glyph glyph-name="amacron" unicode="&#x101;" horiz-adv-x="400" d="M288 740 L44 70 L108 70 L179 262 L298 262 L300 70 L364 70 L358 740 L288 740 L288 740 Z M202 326 L295 582 L298 326 L202 326 L202 326 Z M344 843 L235 892 L201 835 L332 775 L488 837 L473 895 L344 843 L344 843 Z " />
<glyph glyph-name="Abreve" unicode="&#x102;" horiz-adv-x="458" d="M328 811 L29 0 L93 0 L178 232 L337 232 L341 0 L405 0 L395 811 L328 811 L328 811 Z M201 294 L333 649 L336 294 L201 294 L201 294 Z M392 930 C348 930 318 976 328 1033 L264 1033 C248 940 301 866 381 866 C463 866 542 940 558 1033 L494 1033 C484 976 438 930 392 930 L392 930 Z " />
<glyph glyph-name="abreve" unicode="&#x103;" horiz-adv-x="400" d="M288 740 L44 70 L108 70 L179 262 L298 262 L300 70 L364 70 L358 740 L288 740 L288 740 Z M202 326 L295 582 L298 326 L202 326 L202 326 Z M347 859 C303 859 273 905 283 962 L219 962 C203 869 256 795 336 795 C418 795 497 869 513 962 L449 962 C439 905 393 859 347 859 L347 859 Z " />
<glyph glyph-name="Aogonek" unicode="&#x104;" horiz-adv-x="458" d="M328 811 L29 0 L93 0 L178 232 L337 232 L341 0 L405 0 L395 811 L328 811 L328 811 Z M201 294 L333 649 L336 294 L201 294 L201 294 Z M345 -132 C346 -129 350 -123 357 -115 C373 -99 398 -74 406 -28 L343 -28 C339 -51 329 -62 315 -76 C301 -90 286 -106 281 -132 C272 -182 314 -216 384 -216 L395 -153 C363 -153 343 -142 345 -132 L345 -132 Z " />
<glyph glyph-name="aogonek" unicode="&#x105;" horiz-adv-x="400" d="M298 740 L54 70 L118 70 L189 262 L308 262 L310 70 L374 70 L368 740 L298 740 L298 740 Z M212 326 L305 582 L308 326 L212 326 L212 326 Z M313 -36 C314 -33 318 -27 325 -19 C341 -3 366 22 374 68 L311 68 C307 45 297 34 283 20 C269 6 254 -10 249 -36 C240 -86 282 -120 352 -120 L363 -57 C331 -57 311 -46 313 -36 L313 -36 Z " />
<glyph glyph-name="Cacute" unicode="&#x106;" horiz-adv-x="437" d="M328 749 L336 749 C364 749 387 738 403 718 C413 704 420 688 422 670 L485 686 C483 715 472 740 456 762 C431 794 392 811 347 811 L339 811 C246 811 158 734 141 640 L59 173 C42 78 103 0 196 0 L204 0 C275 0 345 47 381 114 L324 136 C303 92 258 64 215 64 L207 64 C149 64 112 113 123 173 L205 640 C216 700 270 749 328 749 L328 749 Z M341 908 L383 908 L425 997 L373 997 L341 908 L341 908 Z " />
<glyph glyph-name="cacute" unicode="&#x107;" horiz-adv-x="352" d="M303 676 L310 676 C329 676 346 668 359 653 C366 644 371 630 372 617 L435 634 C434 658 425 680 411 696 C390 724 358 740 321 740 L314 740 C237 740 163 675 148 594 L81 214 C67 135 119 70 196 70 L203 70 C262 70 320 108 351 166 L294 186 C278 154 245 134 214 134 L207 134 C165 134 137 170 145 214 L212 594 C220 640 261 676 303 676 L303 676 Z M304 786 L346 786 L388 875 L336 875 L304 786 L304 786 Z " />
<glyph glyph-name="Ccircumflex" unicode="&#x108;" horiz-adv-x="437" d="M328 749 L336 749 C364 749 387 738 403 718 C413 704 420 688 422 670 L485 686 C483 715 472 740 456 762 C431 794 392 811 347 811 L339 811 C246 811 158 734 141 640 L59 173 C42 78 103 0 196 0 L204 0 C275 0 345 47 381 114 L324 136 C303 92 258 64 215 64 L207 64 C149 64 112 113 123 173 L205 640 C216 700 270 749 328 749 L328 749 Z M206 906 L238 858 L388 963 L492 854 L540 902 L402 1045 L206 906 Z " />
<glyph glyph-name="ccircumflex" unicode="&#x109;" horiz-adv-x="352" d="M179 805 L211 757 L361 862 L465 753 L513 801 L375 944 L179 805 Z M321 676 L328 676 C347 676 364 668 377 653 C384 644 389 630 390 617 L453 634 C452 658 443 680 429 696 C408 724 376 740 339 740 L332 740 C255 740 181 675 166 594 L99 214 C85 135 137 70 214 70 L221 70 C280 70 338 108 369 166 L312 186 C296 154 263 134 232 134 L225 134 C183 134 155 170 163 214 L230 594 C238 640 279 676 321 676 L321 676 Z " />
<glyph glyph-name="Cdotaccent" unicode="&#x10a;" horiz-adv-x="437" d="M328 749 L336 749 C364 749 387 738 403 718 C413 704 420 688 422 670 L485 686 C483 715 472 740 456 762 C431 794 392 811 347 811 L339 811 C246 811 158 734 141 640 L59 173 C42 78 103 0 196 0 L204 0 C275 0 345 47 381 114 L324 136 C303 92 258 64 215 64 L207 64 C149 64 112 113 123 173 L205 640 C216 700 270 749 328 749 L328 749 Z M385 963 C404 963 423 979 426 998 C429 1017 416 1033 397 1033 C378 1033 359 1017 356 998 C353 979 366 963 385 963 L385 963 Z " />
<glyph glyph-name="cdotaccent" unicode="&#x10b;" horiz-adv-x="352" d="M303 676 L310 676 C329 676 346 668 359 653 C366 644 371 630 372 617 L435 634 C434 658 425 680 411 696 C390 724 358 740 321 740 L314 740 C237 740 163 675 148 594 L81 214 C67 135 119 70 196 70 L203 70 C262 70 320 108 351 166 L294 186 C278 154 245 134 214 134 L207 134 C165 134 137 170 145 214 L212 594 C220 640 261 676 303 676 L303 676 Z M331 773 C350 773 369 789 372 808 C375 827 362 843 343 843 C324 843 305 827 302 808 C299 789 312 773 331 773 L331 773 Z " />
<glyph glyph-name="Ccaron" unicode="&#x10c;" horiz-adv-x="437" d="M328 749 L336 749 C364 749 387 738 403 718 C413 704 420 688 422 670 L485 686 C483 715 472 740 456 762 C431 794 392 811 347 811 L339 811 C246 811 158 734 141 640 L59 173 C42 78 103 0 196 0 L204 0 C275 0 345 47 381 114 L324 136 C303 92 258 64 215 64 L207 64 C149 64 112 113 123 173 L205 640 C216 700 270 749 328 749 L328 749 Z M398 981 L289 1030 L255 973 L386 913 L542 975 L527 1033 L398 981 L398 981 Z " />
<glyph glyph-name="ccaron" unicode="&#x10d;" horiz-adv-x="352" d="M303 676 L310 676 C329 676 346 668 359 653 C366 644 371 630 372 617 L435 634 C434 658 425 680 411 696 C390 724 358 740 321 740 L314 740 C237 740 163 675 148 594 L81 214 C67 135 119 70 196 70 L203 70 C262 70 320 108 351 166 L294 186 C278 154 245 134 214 134 L207 134 C165 134 137 170 145 214 L212 594 C220 640 261 676 303 676 L303 676 Z M340 853 L231 902 L197 845 L328 785 L484 847 L469 905 L340 853 L340 853 Z " />
<glyph glyph-name="Dcaron" unicode="&#x10e;" horiz-adv-x="422" d="M354 811 L189 811 L46 0 L214 0 C300 0 384 74 400 166 L485 648 C501 738 442 811 354 811 L354 811 Z M336 166 C326 109 276 64 225 64 L120 64 L241 749 L343 749 C396 749 430 703 421 648 L336 166 L336 166 Z M391 981 L282 1030 L248 973 L379 913 L535 975 L520 1033 L391 981 L391 981 Z " />
<glyph glyph-name="dcaron" unicode="&#x10f;" horiz-adv-x="378" d="M297 740 L159 740 L41 70 L181 70 C253 70 323 132 336 209 L406 604 C419 679 371 740 297 740 L297 740 Z M274 209 C267 167 230 134 192 134 L116 134 L212 678 L286 678 C326 678 351 644 344 604 L274 209 L274 209 Z M433 730 L430 709 C482 709 488 754 488 754 L498 809 L439 809 L429 754 L455 754 L455 754 C451 728 433 730 433 730 L433 730 Z " />
<glyph glyph-name="Dcroat" unicode="&#x110;" horiz-adv-x="466" d="M372 808 L270 808 L207 808 L141 433 L96 433 L85 371 L130 371 L65 0 L76 0 L128 0 L233 0 C319 0 403 74 419 166 L503 644 C519 734 460 808 372 808 L372 808 Z M355 166 C345 109 295 64 244 64 L139 64 L193 371 L330 371 L341 433 L204 433 L259 745 L361 745 C414 745 449 700 439 644 L355 166 Z " />
<glyph glyph-name="dcroat" unicode="&#x111;" horiz-adv-x="421" d="M379 551 C357 571 329 583 297 583 C216 583 137 506 120 413 L77 170 C61 77 114 0 195 0 C227 0 259 12 287 32 L282 0 L345 0 L488 811 L425 811 L379 551 L379 551 Z M308 170 C298 113 251 65 206 65 C161 65 131 113 141 170 L184 413 C194 470 241 518 286 518 C331 518 361 470 351 413 L308 170 L308 170 Z M279 638 L462 638 L469 704 L286 704 L279 638 L279 638 Z " />
<glyph glyph-name="Emacron" unicode="&#x112;" horiz-adv-x="359" d="M34 0 L291 0 L301 62 L107 62 L156 338 L287 338 L298 401 L167 401 L228 748 L422 748 L434 811 L177 811 L34 0 L34 0 Z M327 926 L218 975 L184 918 L315 858 L471 920 L456 978 L327 926 L327 926 Z " />
<glyph glyph-name="emacron" unicode="&#x113;" horiz-adv-x="298" d="M48 70 L265 70 L276 132 L123 132 L159 340 L256 340 L267 402 L170 402 L219 676 L372 676 L383 740 L166 740 L48 70 L48 70 Z M303 853 L194 902 L160 845 L291 785 L447 847 L432 905 L303 853 L303 853 Z " />
<glyph glyph-name="Edotaccent" unicode="&#x116;" horiz-adv-x="359" d="M34 0 L291 0 L301 62 L107 62 L156 338 L287 338 L298 401 L167 401 L228 748 L422 748 L434 811 L177 811 L34 0 L34 0 Z M347 963 C366 963 385 979 388 998 C391 1017 378 1033 359 1033 C340 1033 321 1017 318 998 C315 979 328 963 347 963 L347 963 Z " />
<glyph glyph-name="edotaccent" unicode="&#x117;" horiz-adv-x="296" d="M48 70 L265 70 L276 132 L123 132 L159 340 L256 340 L267 402 L170 402 L219 676 L372 676 L383 740 L166 740 L48 70 L48 70 Z M301 789 C320 789 339 805 342 824 C345 843 332 859 313 859 C294 859 275 843 272 824 C269 805 282 789 301 789 L301 789 Z " />
<glyph glyph-name="Eogonek" unicode="&#x118;" horiz-adv-x="359" d="M34 0 L291 0 L301 62 L107 62 L156 338 L287 338 L298 401 L167 401 L228 748 L422 748 L434 811 L177 811 L34 0 L34 0 Z M153 -132 C154 -129 158 -123 165 -115 C181 -99 206 -74 214 -28 L151 -28 C147 -51 137 -62 123 -76 C109 -90 94 -106 89 -132 C80 -182 122 -216 192 -216 L203 -153 C171 -153 151 -142 153 -132 L153 -132 Z " />
<glyph glyph-name="eogonek" unicode="&#x119;" horiz-adv-x="298" d="M124 -34 C124 -31 129 -25 137 -17 C152 -1 178 24 186 70 L123 70 C119 47 109 36 94 22 C81 8 65 -8 61 -34 C52 -84 94 -118 163 -118 L174 -55 C143 -55 122 -44 124 -34 L124 -34 Z M48 70 L265 70 L276 132 L123 132 L159 340 L256 340 L267 402 L170 402 L219 676 L372 676 L383 740 L166 740 L48 70 L48 70 Z " />
<glyph glyph-name="Ecaron" unicode="&#x11a;" horiz-adv-x="359" d="M34 0 L291 0 L301 62 L107 62 L156 338 L287 338 L298 401 L167 401 L228 748 L422 748 L434 811 L177 811 L34 0 L34 0 Z M361 981 L252 1030 L218 973 L349 913 L505 975 L490 1033 L361 981 L361 981 Z " />
<glyph glyph-name="ecaron" unicode="&#x11b;" horiz-adv-x="314" d="M48 70 L265 70 L276 132 L123 132 L159 340 L256 340 L267 402 L170 402 L219 676 L372 676 L383 740 L166 740 L48 70 L48 70 Z M308 837 L199 886 L165 829 L296 769 L452 831 L437 889 L308 837 L308 837 Z " />
<glyph glyph-name="Gcircumflex" unicode="&#x11c;" horiz-adv-x="440" d="M242 337 L368 337 L339 172 C328 112 273 64 215 64 L207 64 C149 64 112 112 123 172 L205 640 C216 700 270 749 328 749 L336 749 C364 749 386 737 403 718 C413 704 420 688 422 670 L485 686 C483 715 472 740 456 761 C430 793 392 811 347 811 L339 811 C246 811 158 734 141 640 L59 172 C42 77 103 0 196 0 L204 0 C297 0 384 77 401 172 L441 401 L253 401 L242 337 L242 337 Z M208 906 L240 858 L390 963 L494 854 L542 902 L404 1045 L208 906 Z " />
<glyph glyph-name="gcircumflex" unicode="&#x11d;" horiz-adv-x="396" d="M244 341 L338 341 L315 214 C307 170 266 132 225 132 L217 132 C176 132 148 170 156 214 L223 594 C231 640 272 676 313 676 L321 676 C340 676 356 669 369 653 C376 644 381 632 382 617 L446 634 C444 658 435 680 422 698 C400 725 368 740 332 740 L324 740 C248 740 175 675 160 594 L93 214 C79 135 130 70 206 70 L214 70 C290 70 363 135 377 214 L411 405 L255 405 L244 341 L244 341 Z M168 787 L200 739 L350 844 L454 735 L502 783 L364 926 L168 787 Z " />
<glyph glyph-name="Gbreve" unicode="&#x11e;" horiz-adv-x="440" d="M242 337 L368 337 L339 172 C328 112 273 64 215 64 L207 64 C149 64 112 112 123 172 L205 640 C216 700 270 749 328 749 L336 749 C364 749 386 737 403 718 C413 704 420 688 422 670 L485 686 C483 715 472 740 456 761 C430 793 392 811 347 811 L339 811 C246 811 158 734 141 640 L59 172 C42 77 103 0 196 0 L204 0 C297 0 384 77 401 172 L441 401 L253 401 L242 337 L242 337 Z M383 930 C339 930 309 976 319 1033 L255 1033 C239 940 292 866 372 866 C454 866 533 940 549 1033 L485 1033 C475 976 429 930 383 930 L383 930 Z " />
<glyph glyph-name="gbreve" unicode="&#x11f;" horiz-adv-x="402" d="M342 847 C298 847 268 893 278 950 L214 950 C198 857 251 783 331 783 C413 783 492 857 508 950 L444 950 C434 893 388 847 342 847 L342 847 Z M240 341 L334 341 L311 214 C303 170 262 132 221 132 L213 132 C172 132 144 170 152 214 L219 594 C227 640 268 676 309 676 L317 676 C336 676 352 669 365 653 C372 644 377 632 378 617 L442 634 C440 658 431 680 418 698 C396 725 364 740 328 740 L320 740 C244 740 171 675 156 594 L89 214 C75 135 126 70 202 70 L210 70 C286 70 359 135 373 214 L407 405 L251 405 L240 341 L240 341 Z " />
<glyph glyph-name="Gdotaccent" unicode="&#x120;" horiz-adv-x="440" d="M242 337 L368 337 L339 172 C328 112 273 64 215 64 L207 64 C149 64 112 112 123 172 L205 640 C216 700 270 749 328 749 L336 749 C364 749 386 737 403 718 C413 704 420 688 422 670 L485 686 C483 715 472 740 456 761 C430 793 392 811 347 811 L339 811 C246 811 158 734 141 640 L59 172 C42 77 103 0 196 0 L204 0 C297 0 384 77 401 172 L441 401 L253 401 L242 337 L242 337 Z M388 963 C407 963 426 979 429 998 C432 1017 419 1033 400 1033 C381 1033 362 1017 359 998 C356 979 369 963 388 963 L388 963 Z " />
<glyph glyph-name="gdotaccent" unicode="&#x121;" horiz-adv-x="402" d="M335 789 C354 789 373 805 376 824 C379 843 366 859 347 859 C328 859 309 843 306 824 C303 805 316 789 335 789 L335 789 Z M240 341 L334 341 L311 214 C303 170 262 132 221 132 L213 132 C172 132 144 170 152 214 L219 594 C227 640 268 676 309 676 L317 676 C336 676 352 669 365 653 C372 644 377 632 378 617 L442 634 C440 658 431 680 418 698 C396 725 364 740 328 740 L320 740 C244 740 171 675 156 594 L89 214 C75 135 126 70 202 70 L210 70 C286 70 359 135 373 214 L407 405 L251 405 L240 341 L240 341 Z " />
<glyph glyph-name="Gcommaaccent" unicode="&#x122;" horiz-adv-x="440" d="M242 337 L368 337 L339 172 C328 112 273 64 215 64 L207 64 C149 64 112 112 123 172 L205 640 C216 700 270 749 328 749 L336 749 C364 749 386 737 403 718 C413 704 420 688 422 670 L485 686 C483 715 472 740 456 761 C430 793 392 811 347 811 L339 811 C246 811 158 734 141 640 L59 172 C42 77 103 0 196 0 L204 0 C297 0 384 77 401 172 L441 401 L253 401 L242 337 L242 337 Z M236 27 L177 27 L168 -28 L194 -28 L194 -28 C189 -53 172 -51 172 -51 L168 -73 C220 -73 227 -28 227 -28 L236 27 L236 27 Z " />
<glyph glyph-name="gcommaaccent" unicode="&#x123;" horiz-adv-x="357" d="M221 341 L315 341 L292 214 C284 170 243 132 202 132 L194 132 C153 132 125 170 133 214 L200 594 C208 640 249 676 290 676 L298 676 C317 676 333 669 346 653 C353 644 358 632 359 617 L423 634 C421 658 412 680 399 698 C377 725 345 740 309 740 L301 740 C225 740 152 675 137 594 L70 214 C56 135 107 70 183 70 L191 70 C267 70 340 135 354 214 L388 405 L232 405 L221 341 L221 341 Z M299 837 L290 782 L349 782 L358 837 L331 837 L331 837 C336 863 353 861 353 861 L357 882 C306 882 299 837 299 837 L299 837 Z " />
<glyph glyph-name="Hcircumflex" unicode="&#x124;" horiz-adv-x="430" d="M382 401 L179 401 L252 811 L189 811 L46 0 L109 0 L168 338 L371 338 L312 0 L376 0 L519 811 L455 811 L382 401 L382 401 Z M203 906 L235 858 L385 963 L489 854 L537 902 L399 1045 L203 906 Z " />
<glyph glyph-name="hcircumflex" unicode="&#x125;" horiz-adv-x="391" d="M171 835 L203 787 L353 892 L457 783 L505 831 L367 974 L171 835 Z M336 404 L186 404 L245 740 L182 740 L64 70 L127 70 L175 341 L325 341 L277 70 L340 70 L458 740 L395 740 L336 404 L336 404 Z " />
<glyph glyph-name="Hbar" unicode="&#x126;" horiz-adv-x="578" d="M129 509 L618 509 L631 580 L142 580 L129 509 Z M457 401 L254 401 L327 811 L264 811 L121 0 L184 0 L243 338 L446 338 L387 0 L451 0 L594 811 L530 811 L457 401 L457 401 Z " />
<glyph glyph-name="hbar" unicode="&#x127;" horiz-adv-x="391" d="M295 583 C264 583 233 572 207 553 L253 811 L189 811 L46 0 L110 0 L183 416 C193 473 239 521 284 521 C329 521 360 473 350 416 L277 0 L340 0 L413 416 C429 509 376 583 295 583 L295 583 Z M97 648 L402 648 L413 710 L108 710 L97 648 L97 648 Z " />
<glyph glyph-name="Itilde" unicode="&#x128;" horiz-adv-x="169" d="M43 0 L107 0 L250 811 L186 811 L43 0 L43 0 Z M220 909 C264 878 325 836 454 945 L417 990 C329 915 304 934 264 962 C240 978 214 997 177 997 C141 997 95 980 32 927 L71 883 C110 916 142 933 166 933 C166 933 166 933 166 933 C185 933 203 922 220 909 L220 909 Z " />
<glyph glyph-name="itilde" unicode="&#x129;" horiz-adv-x="220" d="M71 675 L210 675 L103 72 L166 72 L284 738 L82 738 L71 675 L71 675 Z M188 816 C232 785 293 743 422 852 L385 897 C297 822 272 841 232 869 C208 885 182 904 145 904 C109 904 63 887 0 834 L39 790 C78 823 110 840 134 840 C134 840 134 840 134 840 C153 840 171 829 188 816 L188 816 Z " />
<glyph glyph-name="imacron" unicode="&#x12b;" horiz-adv-x="220" d="M71 675 L210 675 L103 72 L166 72 L284 738 L82 738 L71 675 L71 675 Z M215 844 L106 893 L72 836 L203 776 L359 838 L344 896 L215 844 L215 844 Z " />
<glyph glyph-name="Iogonek" unicode="&#x12e;" horiz-adv-x="169" d="M43 0 L107 0 L250 811 L186 811 L43 0 L43 0 Z M46 -132 C47 -129 51 -123 58 -115 C74 -99 99 -74 107 -28 L44 -28 C40 -51 30 -62 16 -76 C2 -90 -13 -106 -18 -132 C-27 -182 15 -216 85 -216 L96 -153 C64 -153 44 -142 46 -132 L46 -132 Z " />
<glyph glyph-name="iogonek" unicode="&#x12f;" horiz-adv-x="163" d="M62 0 L126 0 L228 583 L164 583 L62 0 L62 0 Z M177 653 L241 653 L252 720 L188 720 L177 653 L177 653 Z M46 -132 C47 -129 51 -123 58 -115 C74 -99 99 -74 107 -28 L44 -28 C40 -51 30 -62 16 -76 C2 -90 -13 -106 -18 -132 C-27 -182 15 -216 85 -216 L96 -153 C64 -153 44 -142 46 -132 L46 -132 Z " />
<glyph glyph-name="Idotaccent" unicode="&#x130;" horiz-adv-x="169" d="M43 0 L107 0 L250 811 L186 811 L43 0 L43 0 Z M252 963 C271 963 290 979 293 998 C296 1017 283 1033 264 1033 C245 1033 226 1017 223 998 C220 979 233 963 252 963 L252 963 Z " />
<glyph glyph-name="dotlessi" unicode="&#x131;" horiz-adv-x="220" d="M71 675 L210 675 L103 72 L166 72 L284 738 L82 738 L71 675 L71 675 Z " />
<glyph glyph-name="Jcircumflex" unicode="&#x134;" horiz-adv-x="431" d="M335 173 C324 112 268 62 211 62 C153 62 116 112 127 173 L162 372 L99 372 L64 173 C47 77 108 0 201 0 C293 0 380 77 397 173 L510 811 L448 811 L335 173 L335 173 Z M344 906 L376 858 L526 963 L630 854 L678 902 L540 1045 L344 906 Z " />
<glyph glyph-name="jcircumflex" unicode="&#x135;" horiz-adv-x="417" d="M214 818 L246 770 L396 875 L500 766 L548 814 L410 957 L214 818 Z M400 740 L313 243 C303 183 258 132 215 132 C173 132 146 182 156 240 L180 378 L116 378 L92 240 C75 146 126 70 204 70 C283 70 360 147 377 243 L464 740 L400 740 L400 740 Z " />
<glyph glyph-name="Kcommaaccent" unicode="&#x136;" horiz-adv-x="458" d="M540 811 L465 811 L188 473 L248 811 L184 811 L41 0 L105 0 L168 359 L239 451 L324 0 L400 0 L294 514 L540 811 Z M224 27 L165 27 L156 -28 L182 -28 L182 -28 C177 -53 160 -51 160 -51 L156 -73 C208 -73 215 -28 215 -28 L224 27 L224 27 Z " />
<glyph glyph-name="kcommaaccent" unicode="&#x137;" horiz-adv-x="412" d="M429 740 L177 432 L231 740 L167 740 L49 70 L113 70 L157 318 L239 412 L310 70 L371 70 L287 477 L503 740 L429 740 L429 740 Z M224 27 L165 27 L156 -28 L182 -28 L182 -28 C177 -53 160 -51 160 -51 L156 -73 C208 -73 215 -28 215 -28 L224 27 L224 27 Z " />
<glyph glyph-name="kgreenlandic" unicode="&#x138;" horiz-adv-x="443" d="M454 740 L202 432 L256 740 L192 740 L74 70 L138 70 L182 318 L264 412 L335 70 L396 70 L312 477 L528 740 L454 740 L454 740 Z " />
<glyph glyph-name="Lacute" unicode="&#x139;" horiz-adv-x="359" d="M250 811 L186 811 L43 0 L300 0 L311 64 L118 64 L250 811 L250 811 Z M225 908 L267 908 L309 997 L257 997 L225 908 L225 908 Z " />
<glyph glyph-name="lacute" unicode="&#x13a;" horiz-adv-x="163" d="M62 0 L126 0 L269 811 L205 811 L62 0 L62 0 Z M208 869 L250 869 L292 958 L240 958 L208 869 L208 869 Z " />
<glyph glyph-name="Lcommaaccent" unicode="&#x13b;" horiz-adv-x="359" d="M222 -36 L133 -36 L119 -118 L159 -118 L159 -118 C152 -156 126 -154 126 -154 L121 -186 C197 -186 208 -118 208 -118 L222 -36 Z M250 811 L186 811 L43 0 L300 0 L311 64 L118 64 L250 811 L250 811 Z " />
<glyph glyph-name="lcommaaccent" unicode="&#x13c;" horiz-adv-x="163" d="M62 0 L126 0 L269 811 L205 811 L62 0 L62 0 Z M127 27 L68 27 L59 -28 L85 -28 L85 -28 C80 -53 63 -51 63 -51 L59 -73 C111 -73 118 -28 118 -28 L127 27 L127 27 Z " />
<glyph glyph-name="Lcaron" unicode="&#x13d;" horiz-adv-x="359" d="M250 811 L186 811 L43 0 L300 0 L311 64 L118 64 L250 811 L250 811 Z M219 899 L216 878 C268 878 274 923 274 923 L284 978 L225 978 L215 923 L241 923 L241 923 C237 897 219 899 219 899 L219 899 Z " />
<glyph glyph-name="lcaron" unicode="&#x13e;" horiz-adv-x="288" d="M62 0 L126 0 L269 811 L205 811 L62 0 L62 0 Z M323 730 L320 709 C372 709 378 754 378 754 L388 809 L329 809 L319 754 L345 754 L345 754 C341 728 323 730 323 730 L323 730 Z " />
<glyph glyph-name="Lslash" unicode="&#x141;" horiz-adv-x="391" d="M137 65 L191 371 L318 371 L329 433 L202 433 L268 809 L204 809 L138 433 L108 433 L97 371 L127 371 L62 1 L319 1 L330 65 L137 65 L137 65 Z " />
<glyph glyph-name="lslash" unicode="&#x142;" horiz-adv-x="290" d="M114 0 L178 0 L321 811 L257 811 L114 0 L114 0 Z M55 363 L284 363 L291 431 L61 431 L55 363 Z " />
<glyph glyph-name="Nacute" unicode="&#x143;" horiz-adv-x="454" d="M484 811 L370 168 L258 811 L184 811 L41 0 L105 0 L219 649 L333 0 L403 0 L546 811 L484 811 L484 811 Z M351 908 L393 908 L435 997 L383 997 L351 908 L351 908 Z " />
<glyph glyph-name="nacute" unicode="&#x144;" horiz-adv-x="396" d="M331 248 L245 740 L173 740 L55 70 L119 70 L208 574 L297 70 L364 70 L364 70 L482 740 L418 740 L331 248 L331 248 Z M301 754 L343 754 L385 843 L333 843 L301 754 L301 754 Z " />
<glyph glyph-name="Ncommaaccent" unicode="&#x145;" horiz-adv-x="454" d="M484 811 L370 168 L258 811 L184 811 L41 0 L105 0 L219 649 L333 0 L403 0 L546 811 L484 811 L484 811 Z M260 27 L201 27 L192 -28 L218 -28 L218 -28 C213 -53 196 -51 196 -51 L192 -73 C244 -73 251 -28 251 -28 L260 27 L260 27 Z " />
<glyph glyph-name="ncommaaccent" unicode="&#x146;" horiz-adv-x="396" d="M331 248 L245 740 L173 740 L55 70 L119 70 L208 574 L297 70 L364 70 L364 70 L482 740 L418 740 L331 248 L331 248 Z M212 27 L153 27 L144 -28 L170 -28 L170 -28 C165 -53 148 -51 148 -51 L144 -73 C196 -73 203 -28 203 -28 L212 27 L212 27 Z " />
<glyph glyph-name="Ncaron" unicode="&#x147;" horiz-adv-x="454" d="M484 811 L370 168 L258 811 L184 811 L41 0 L105 0 L219 649 L333 0 L403 0 L546 811 L484 811 L484 811 Z M408 981 L299 1030 L265 973 L396 913 L552 975 L537 1033 L408 981 L408 981 Z " />
<glyph glyph-name="ncaron" unicode="&#x148;" horiz-adv-x="396" d="M331 248 L245 740 L173 740 L55 70 L119 70 L208 574 L297 70 L364 70 L364 70 L482 740 L418 740 L331 248 L331 248 Z M348 817 L239 866 L205 809 L336 749 L492 811 L477 869 L348 817 L348 817 Z " />
<glyph glyph-name="Eng" unicode="&#x14a;" horiz-adv-x="454" d="M316 -138 C305 -199 250 -248 192 -248 C135 -248 97 -199 108 -138 L120 -72 L57 -72 L45 -138 C28 -234 89 -311 181 -311 C274 -311 361 -234 378 -138 L490 497 L428 497 L316 -138 Z M484 811 L370 168 L258 811 L184 811 L41 0 L105 0 L219 649 L333 0 L403 0 L546 811 L484 811 L484 811 Z " />
<glyph glyph-name="eng" unicode="&#x14b;" horiz-adv-x="414" d="M358 283 L311 14 C300 -46 253 -95 208 -95 C186 -95 171 -84 163 -74 L111 -128 C133 -152 164 -158 197 -158 C275 -158 350 -88 372 1 L372 1 L374 14 L421 283 L358 283 Z M350 248 L264 740 L192 740 L74 70 L138 70 L227 574 L316 70 L383 70 L383 70 L501 740 L437 740 L350 248 L350 248 Z " />
<glyph glyph-name="Omacron" unicode="&#x14c;" horiz-adv-x="438" d="M352 811 L344 811 C251 811 163 737 147 644 L63 167 C47 74 108 0 201 0 L209 0 C301 0 389 74 405 167 L489 644 C505 737 444 811 352 811 L352 811 Z M342 167 C332 109 277 62 219 62 L211 62 C153 62 116 109 126 167 L210 644 C220 702 274 748 332 748 L340 748 C398 748 436 702 426 644 L342 167 L342 167 Z M366 937 L257 986 L223 929 L354 869 L510 931 L495 989 L366 937 L366 937 Z " />
<glyph glyph-name="omacron" unicode="&#x14d;" horiz-adv-x="362" d="M307 740 C228 740 151 665 135 574 L75 237 C59 144 110 70 189 70 C268 70 345 144 361 237 L421 574 C437 665 386 740 307 740 L307 740 Z M299 237 C289 180 243 134 200 134 C157 134 129 180 139 237 L199 574 C208 629 253 677 296 677 C339 677 368 629 359 574 L299 237 L299 237 Z M324 838 L215 887 L181 830 L312 770 L468 832 L453 890 L324 838 L324 838 Z " />
<glyph glyph-name="Ohungarumlaut" unicode="&#x150;" horiz-adv-x="438" d="M352 811 L344 811 C251 811 163 737 147 644 L63 167 C47 74 108 0 201 0 L209 0 C301 0 389 74 405 167 L489 644 C505 737 444 811 352 811 L352 811 Z M342 167 C332 109 277 62 219 62 L211 62 C153 62 116 109 126 167 L210 644 C220 702 274 748 332 748 L340 748 C398 748 436 702 426 644 L342 167 L342 167 Z M296 944 L338 944 L380 1033 L328 1033 L296 944 L296 944 Z M368 944 L409 944 L452 1033 L398 1033 L368 944 L368 944 Z " />
<glyph glyph-name="ohungarumlaut" unicode="&#x151;" horiz-adv-x="367" d="M307 740 C228 740 151 665 135 574 L75 237 C59 144 110 70 189 70 C268 70 345 144 361 237 L421 574 C437 665 386 740 307 740 L307 740 Z M299 237 C289 180 243 134 200 134 C157 134 129 180 139 237 L199 574 C208 629 253 677 296 677 C339 677 368 629 359 574 L299 237 L299 237 Z M248 781 L290 781 L332 870 L280 870 L248 781 L248 781 Z M320 781 L361 781 L404 870 L350 870 L320 781 L320 781 Z " />
<glyph glyph-name="OE" unicode="&#x152;" horiz-adv-x="632" d="M717 745 L728 809 L471 809 L465 773 C440 794 407 808 369 808 L360 808 C268 808 181 733 165 641 L81 167 C65 74 126 0 218 0 L227 0 C265 0 302 13 335 35 L329 0 L586 0 L596 62 L402 62 L417 146 C421 154 422 160 423 167 L453 338 L582 338 L593 401 L464 401 L507 641 C508 648 509 654 508 661 L523 745 L717 745 L717 745 Z M237 62 L228 62 C171 62 134 109 144 167 L228 641 C238 698 292 744 349 744 L358 744 C408 744 443 709 445 662 L354 144 C335 97 287 62 237 62 L237 62 Z " />
<glyph glyph-name="oe" unicode="&#x153;" horiz-adv-x="626" d="M394 290 L623 290 L643 408 C660 504 608 583 527 583 C481 583 436 558 403 518 C382 557 344 582 298 582 C217 582 138 508 122 416 L78 167 C62 76 115 1 196 1 C242 1 288 26 323 65 C342 25 379 0 425 0 C506 0 585 79 602 175 L539 175 C529 115 481 65 436 65 C395 65 367 106 370 158 C371 161 371 164 372 167 L394 290 L394 290 Z M516 518 C561 518 591 468 580 408 L571 354 L405 354 L416 416 C416 419 417 422 417 425 C433 478 475 518 516 518 L516 518 Z M207 64 C162 64 132 112 142 167 L186 416 C196 472 242 520 287 520 C330 520 359 478 355 426 C352 420 350 414 349 408 L308 175 C307 169 306 163 307 157 C293 106 250 64 207 64 L207 64 Z " />
<glyph glyph-name="Racute" unicode="&#x154;" horiz-adv-x="425" d="M350 330 C394 360 430 409 440 466 L472 647 C488 738 431 811 345 811 L177 811 L34 0 L97 0 L149 300 L245 300 C302 300 341 253 331 197 L297 0 L360 0 L394 197 C404 252 385 300 350 330 L350 330 Z M266 364 L161 364 L229 749 L334 749 C385 749 417 703 408 647 L376 466 C366 409 317 364 266 364 L266 364 Z M335 908 L377 908 L419 997 L367 997 L335 908 L335 908 Z " />
<glyph glyph-name="racute" unicode="&#x155;" horiz-adv-x="349" d="M313 333 C350 359 379 400 387 446 L414 599 C428 676 379 740 307 740 L164 740 L46 70 L109 70 L150 305 L219 305 C263 305 292 258 282 202 L259 70 L322 70 L345 202 C354 255 341 303 313 333 L313 333 Z M242 369 L162 369 L216 676 L296 676 C333 676 358 642 350 599 L323 446 C316 404 279 369 242 369 L242 369 Z M281 782 L323 782 L365 871 L313 871 L281 782 L281 782 Z " />
<glyph glyph-name="Rcommaaccent" unicode="&#x156;" horiz-adv-x="425" d="M350 330 C394 360 430 409 440 466 L472 647 C488 738 431 811 345 811 L177 811 L34 0 L97 0 L149 300 L245 300 C302 300 341 253 331 197 L297 0 L360 0 L394 197 C404 252 385 300 350 330 L350 330 Z M266 364 L161 364 L229 749 L334 749 C385 749 417 703 408 647 L376 466 C366 409 317 364 266 364 L266 364 Z M236 27 L177 27 L168 -28 L194 -28 L194 -28 C189 -53 172 -51 172 -51 L168 -73 C220 -73 227 -28 227 -28 L236 27 L236 27 Z " />
<glyph glyph-name="rcommaaccent" unicode="&#x157;" horiz-adv-x="349" d="M313 333 C350 359 379 400 387 446 L414 599 C428 676 379 740 307 740 L164 740 L46 70 L109 70 L150 305 L219 305 C263 305 292 258 282 202 L259 70 L322 70 L345 202 C354 255 341 303 313 333 L313 333 Z M242 369 L162 369 L216 676 L296 676 C333 676 358 642 350 599 L323 446 C316 404 279 369 242 369 L242 369 Z M109 27 L50 27 L41 -28 L67 -28 L67 -28 C62 -53 45 -51 45 -51 L41 -73 C93 -73 100 -28 100 -28 L109 27 L109 27 Z " />
<glyph glyph-name="Rcaron" unicode="&#x158;" horiz-adv-x="425" d="M350 330 C394 360 430 409 440 466 L472 647 C488 738 431 811 345 811 L177 811 L34 0 L97 0 L149 300 L245 300 C302 300 341 253 331 197 L297 0 L360 0 L394 197 C404 252 385 300 350 330 L350 330 Z M266 364 L161 364 L229 749 L334 749 C385 749 417 703 408 647 L376 466 C366 409 317 364 266 364 L266 364 Z M392 981 L283 1030 L249 973 L380 913 L536 975 L521 1033 L392 981 L392 981 Z " />
<glyph glyph-name="rcaron" unicode="&#x159;" horiz-adv-x="349" d="M294 583 C263 583 232 571 206 552 L211 583 L148 583 L118 410 L78 185 L46 0 L109 0 L141 185 L181 410 C191 470 239 520 283 520 C307 520 328 506 339 482 L398 518 C377 559 340 583 294 583 L294 583 Z M316 757 L207 806 L173 749 L304 689 L460 751 L445 809 L316 757 L316 757 Z " />
<glyph glyph-name="Sacute" unicode="&#x15a;" horiz-adv-x="449" d="M299 432 C243 493 193 554 211 648 C221 704 276 749 335 749 C393 749 430 700 419 638 L483 638 C500 734 438 811 346 811 C252 811 165 740 148 648 C125 527 190 450 248 386 C304 324 356 264 336 168 C319 77 252 64 214 64 C156 64 118 113 129 174 L65 174 C48 78 111 0 203 0 C250 0 293 14 326 41 C364 71 390 114 400 166 C424 292 358 367 299 432 L299 432 Z M349 908 L391 908 L433 997 L381 997 L349 908 L349 908 Z " />
<glyph glyph-name="sacute" unicode="&#x15b;" horiz-adv-x="368" d="M271 431 C226 482 188 528 201 600 C209 644 250 676 294 676 C337 676 365 639 357 593 L421 593 C435 674 383 740 305 740 C226 740 153 680 138 602 C119 501 173 438 219 384 C266 333 306 287 290 212 C278 148 233 134 198 134 C155 134 127 171 135 218 L72 218 C57 136 109 70 187 70 C271 70 336 125 354 210 C374 315 319 377 271 431 L271 431 Z M284 773 L326 773 L368 862 L316 862 L284 773 L284 773 Z " />
<glyph glyph-name="Scircumflex" unicode="&#x15c;" horiz-adv-x="449" d="M299 432 C243 493 193 554 211 648 C221 704 276 749 335 749 C393 749 430 700 419 638 L483 638 C500 734 438 811 346 811 C252 811 165 740 148 648 C125 527 190 450 248 386 C304 324 356 264 336 168 C319 77 252 64 214 64 C156 64 118 113 129 174 L65 174 C48 78 111 0 203 0 C250 0 293 14 326 41 C364 71 390 114 400 166 C424 292 358 367 299 432 L299 432 Z M213 906 L245 858 L395 963 L499 854 L547 902 L409 1045 L213 906 Z " />
<glyph glyph-name="scircumflex" unicode="&#x15d;" horiz-adv-x="368" d="M271 431 C226 482 188 528 201 600 C209 644 250 676 294 676 C337 676 365 639 357 593 L421 593 C435 674 383 740 305 740 C226 740 153 680 138 602 C119 501 173 438 219 384 C266 333 306 287 290 212 C278 148 233 134 198 134 C155 134 127 171 135 218 L72 218 C57 136 109 70 187 70 C271 70 336 125 354 210 C374 315 319 377 271 431 L271 431 Z M153 795 L185 747 L335 852 L439 743 L487 791 L349 934 L153 795 Z " />
<glyph glyph-name="Scedilla" unicode="&#x15e;" horiz-adv-x="449" d="M299 432 C243 493 193 554 211 648 C221 704 276 749 335 749 C393 749 430 700 419 638 L483 638 C500 734 438 811 346 811 C252 811 165 740 148 648 C125 527 190 450 248 386 C304 324 356 264 336 168 C319 77 252 64 214 64 C156 64 118 113 129 174 L65 174 C48 78 111 0 203 0 C250 0 293 14 326 41 C364 71 390 114 400 166 C424 292 358 367 299 432 L299 432 Z M248 22 L186 22 C178 -24 194 -49 204 -65 C209 -73 213 -79 212 -82 C210 -92 184 -103 153 -103 L142 -166 C212 -166 266 -132 275 -82 C280 -56 268 -40 261 -26 C252 -12 244 -1 248 22 L248 22 Z " />
<glyph glyph-name="scedilla" unicode="&#x15f;" horiz-adv-x="368" d="M207 22 L145 22 C137 -24 153 -49 163 -65 C168 -73 172 -79 171 -82 C169 -92 143 -103 112 -103 L101 -166 C171 -166 225 -132 234 -82 C239 -56 227 -40 220 -26 C211 -12 203 -1 207 22 L207 22 Z M289 431 C244 482 206 528 219 600 C227 644 268 676 312 676 C355 676 383 639 375 593 L439 593 C453 674 401 740 323 740 C244 740 171 680 156 602 C137 501 191 438 237 384 C284 333 324 287 308 212 C296 148 251 134 216 134 C173 134 145 171 153 218 L90 218 C75 136 127 70 205 70 C289 70 354 125 372 210 C392 315 337 377 289 431 L289 431 Z " />
<glyph glyph-name="Scaron" unicode="&#x160;" horiz-adv-x="449" d="M299 432 C243 493 193 554 211 648 C221 704 276 749 335 749 C393 749 430 700 419 638 L483 638 C500 734 438 811 346 811 C252 811 165 740 148 648 C125 527 190 450 248 386 C304 324 356 264 336 168 C319 77 252 64 214 64 C156 64 118 113 129 174 L65 174 C48 78 111 0 203 0 C250 0 293 14 326 41 C364 71 390 114 400 166 C424 292 358 367 299 432 L299 432 Z M405 981 L296 1030 L262 973 L393 913 L549 975 L534 1033 L405 981 L405 981 Z " />
<glyph glyph-name="scaron" unicode="&#x161;" horiz-adv-x="368" d="M256 320 C213 362 177 400 188 458 C194 492 231 518 272 518 C300 518 322 504 331 481 L392 512 C376 556 335 583 283 583 C208 583 139 528 125 460 C108 370 161 317 208 270 C251 227 289 188 276 127 C266 76 225 65 192 65 C162 65 139 82 132 107 L69 82 C82 32 126 0 181 0 C262 0 324 49 339 125 C357 218 304 272 256 320 L256 320 Z M327 757 L218 806 L184 749 L315 689 L471 751 L456 809 L327 757 L327 757 Z " />
<glyph glyph-name="Tcommaaccent" unicode="&#x162;" horiz-adv-x="406" d="M160 748 L281 748 L150 0 L213 0 L344 748 L464 748 L476 811 L172 811 L160 748 L160 748 Z M212 27 L153 27 L144 -28 L170 -28 L170 -28 C165 -53 148 -51 148 -51 L144 -73 C196 -73 203 -28 203 -28 L212 27 L212 27 Z " />
<glyph glyph-name="tcommaaccent" unicode="&#x163;" horiz-adv-x="367" d="M240 64 C212 64 188 110 199 173 L260 521 L371 521 L382 583 L271 583 L295 716 L232 716 L208 583 L151 583 L140 521 L197 521 L136 173 C119 77 161 0 229 0 C265 0 303 22 333 59 L285 92 C271 74 255 64 240 64 L240 64 Z " />
<glyph glyph-name="Tcaron" unicode="&#x164;" horiz-adv-x="406" d="M160 748 L281 748 L150 0 L213 0 L344 748 L464 748 L476 811 L172 811 L160 748 L160 748 Z M382 981 L273 1030 L239 973 L370 913 L526 975 L511 1033 L382 981 L382 981 Z " />
<glyph glyph-name="tcaron" unicode="&#x165;" horiz-adv-x="398" d="M156 676 L254 676 L147 70 L209 70 L316 676 L412 676 L423 740 L167 740 L156 676 L156 676 Z M456 730 L453 709 C505 709 511 754 511 754 L521 809 L462 809 L452 754 L478 754 L478 754 C474 728 456 730 456 730 L456 730 Z " />
<glyph glyph-name="Tbar" unicode="&#x166;" horiz-adv-x="371" d="M120 542 L426 542 L439 613 L133 613 L120 542 Z M160 748 L281 748 L150 0 L213 0 L344 748 L464 748 L476 811 L172 811 L160 748 L160 748 Z " />
<glyph glyph-name="tbar" unicode="&#x167;" horiz-adv-x="367" d="M252 134 C224 134 200 180 211 243 L273 591 L384 591 L395 653 L284 653 L307 786 L244 786 L221 653 L164 653 L153 591 L210 591 L148 243 C131 147 173 70 241 70 C277 70 316 92 345 129 L297 162 C283 144 267 134 252 134 L252 134 Z M87 353 L353 353 L363 413 L96 413 L87 353 L87 353 Z " />
<glyph glyph-name="Utilde" unicode="&#x168;" horiz-adv-x="446" d="M342 167 C332 109 278 64 220 64 L212 64 C154 64 116 109 126 167 L240 811 L177 811 L63 167 C47 74 108 0 201 0 L209 0 C301 0 389 74 405 167 L519 811 L456 811 L342 167 L342 167 Z M358 909 C402 878 463 836 592 945 L555 990 C467 915 442 934 402 962 C378 978 352 997 315 997 C279 997 233 980 170 927 L209 883 C248 916 280 933 304 933 C304 933 304 933 304 933 C323 933 341 922 358 909 L358 909 Z " />
<glyph glyph-name="utilde" unicode="&#x169;" horiz-adv-x="412" d="M325 810 C369 779 430 737 559 846 L522 891 C434 816 409 835 369 863 C345 879 319 898 282 898 C246 898 200 881 137 828 L176 784 C215 817 247 834 271 834 C271 834 271 834 271 834 C290 834 308 823 325 810 L325 810 Z M319 237 C309 180 263 134 219 134 C174 134 145 180 155 237 L244 740 L180 740 L91 237 C75 144 127 70 208 70 C288 70 366 144 382 237 L471 740 L408 740 L319 237 L319 237 Z " />
<glyph glyph-name="Umacron" unicode="&#x16a;" horiz-adv-x="446" d="M342 167 C332 109 278 64 220 64 L212 64 C154 64 116 109 126 167 L240 811 L177 811 L63 167 C47 74 108 0 201 0 L209 0 C301 0 389 74 405 167 L519 811 L456 811 L342 167 L342 167 Z M377 929 L268 978 L234 921 L365 861 L521 923 L506 981 L377 929 L377 929 Z " />
<glyph glyph-name="umacron" unicode="&#x16b;" horiz-adv-x="391" d="M319 237 C309 180 263 134 219 134 C174 134 145 180 155 237 L244 740 L180 740 L91 237 C75 144 127 70 208 70 C288 70 366 144 382 237 L471 740 L408 740 L319 237 L319 237 Z M341 826 L232 875 L198 818 L329 758 L485 820 L470 878 L341 826 L341 826 Z " />
<glyph glyph-name="Ubreve" unicode="&#x16c;" horiz-adv-x="446" d="M342 167 C332 109 278 64 220 64 L212 64 C154 64 116 109 126 167 L240 811 L177 811 L63 167 C47 74 108 0 201 0 L209 0 C301 0 389 74 405 167 L519 811 L456 811 L342 167 L342 167 Z M385 930 C341 930 311 976 321 1033 L257 1033 C241 940 294 866 374 866 C456 866 535 940 551 1033 L487 1033 C477 976 431 930 385 930 L385 930 Z " />
<glyph glyph-name="ubreve" unicode="&#x16d;" horiz-adv-x="389" d="M329 237 C319 180 273 134 229 134 C184 134 155 180 165 237 L254 740 L190 740 L101 237 C85 144 137 70 218 70 C298 70 376 144 392 237 L481 740 L418 740 L329 237 L329 237 Z M351 831 C307 831 277 877 287 934 L223 934 C207 841 260 767 340 767 C422 767 501 841 517 934 L453 934 C443 877 397 831 351 831 L351 831 Z " />
<glyph glyph-name="Uring" unicode="&#x16e;" horiz-adv-x="446" d="M342 167 C332 109 278 64 220 64 L212 64 C154 64 116 109 126 167 L240 811 L177 811 L63 167 C47 74 108 0 201 0 L209 0 C301 0 389 74 405 167 L519 811 L456 811 L342 167 L342 167 Z M480 944 C489 993 457 1033 408 1033 C360 1033 313 993 304 944 C296 896 329 856 377 856 C426 856 472 896 480 944 L480 944 L480 944 Z M386 908 C366 908 355 925 358 944 C362 964 379 980 399 980 C419 980 430 964 426 944 C423 925 406 908 386 908 L386 908 Z " />
<glyph glyph-name="uring" unicode="&#x16f;" horiz-adv-x="391" d="M390 551 L322 167 C312 110 265 64 220 64 C175 64 145 110 155 167 L228 583 L164 583 L91 167 C75 76 128 0 209 0 C240 0 271 12 298 30 L293 0 L356 0 L385 167 L453 551 L458 583 L395 583 L390 551 L390 551 Z M412 720 C421 769 389 809 340 809 C292 809 245 769 236 720 C228 672 261 632 309 632 C358 632 404 672 412 720 L412 720 L412 720 Z M318 684 C298 684 287 701 290 720 C294 740 311 756 331 756 C351 756 362 740 358 720 C355 701 338 684 318 684 L318 684 Z " />
<glyph glyph-name="Uhungarumlaut" unicode="&#x170;" horiz-adv-x="446" d="M342 167 C332 109 278 64 220 64 L212 64 C154 64 116 109 126 167 L240 811 L177 811 L63 167 C47 74 108 0 201 0 L209 0 C301 0 389 74 405 167 L519 811 L456 811 L342 167 L342 167 Z M299 944 L341 944 L383 1033 L331 1033 L299 944 L299 944 Z M371 944 L412 944 L455 1033 L401 1033 L371 944 L371 944 Z " />
<glyph glyph-name="uhungarumlaut" unicode="&#x171;" horiz-adv-x="391" d="M390 551 L322 167 C312 110 265 64 220 64 C175 64 145 110 155 167 L228 583 L164 583 L91 167 C75 76 128 0 209 0 C240 0 271 12 298 30 L293 0 L356 0 L385 167 L453 551 L458 583 L395 583 L390 551 L390 551 Z M233 720 L275 720 L317 809 L265 809 L233 720 L233 720 Z M305 720 L346 720 L389 809 L335 809 L305 720 L305 720 Z " />
<glyph glyph-name="Uogonek" unicode="&#x172;" horiz-adv-x="458" d="M361 167 C351 109 297 64 239 64 L231 64 C173 64 135 109 145 167 L259 811 L196 811 L82 167 C66 74 127 0 220 0 L228 0 C320 0 408 74 424 167 L538 811 L475 811 L361 167 L361 167 Z M205 -82 C206 -79 210 -73 217 -65 C233 -49 258 -24 266 22 L203 22 C199 -1 189 -12 175 -26 C161 -40 146 -56 141 -82 C132 -132 174 -166 244 -166 L255 -103 C223 -103 203 -92 205 -82 L205 -82 Z " />
<glyph glyph-name="uogonek" unicode="&#x173;" horiz-adv-x="391" d="M390 551 L322 167 C312 110 265 64 220 64 C175 64 145 110 155 167 L228 583 L164 583 L91 167 C75 76 128 0 209 0 C240 0 271 12 298 30 L293 0 L356 0 L385 167 L453 551 L458 583 L395 583 L390 551 L390 551 Z M274 -130 C275 -127 279 -121 286 -113 C302 -97 327 -72 335 -26 L272 -26 C268 -49 258 -60 244 -74 C230 -88 215 -104 210 -130 C201 -180 243 -214 313 -214 L324 -151 C292 -151 272 -140 274 -130 L274 -130 Z " />
<glyph glyph-name="Ydieresis" unicode="&#x178;" horiz-adv-x="466" d="M285 428 L238 811 L172 811 L234 312 L179 0 L243 0 L298 314 L531 811 L465 811 L285 428 L285 428 Z M377 850 L435 850 L446 910 L388 910 L377 850 L377 850 Z M283 850 L342 850 L353 910 L294 910 L283 850 L283 850 Z " />
<glyph glyph-name="Zacute" unicode="&#x179;" horiz-adv-x="462" d="M197 811 L185 746 L418 746 L29 0 L358 0 L358 0 L368 62 L128 62 L519 811 L197 811 Z M355 908 L397 908 L439 997 L387 997 L355 908 L355 908 Z " />
<glyph glyph-name="zacute" unicode="&#x17a;" horiz-adv-x="388" d="M483 740 L203 740 L192 676 L382 676 L62 70 L347 70 L358 132 L163 132 L163 132 L483 740 L483 740 Z M317 784 L359 784 L401 873 L349 873 L317 784 L317 784 Z " />
<glyph glyph-name="Zdotaccent" unicode="&#x17b;" horiz-adv-x="462" d="M197 811 L185 746 L418 746 L29 0 L358 0 L358 0 L368 62 L128 62 L519 811 L197 811 Z M404 885 C423 885 442 901 445 920 C448 939 435 955 416 955 C397 955 378 939 375 920 C372 901 385 885 404 885 L404 885 Z " />
<glyph glyph-name="zdotaccent" unicode="&#x17c;" horiz-adv-x="388" d="M449 583 L175 583 L164 520 L344 520 L50 0 L330 0 L341 64 L155 64 L413 520 L449 583 L449 583 Z M343 739 C362 739 381 755 384 774 C387 793 374 809 355 809 C336 809 317 793 314 774 C311 755 324 739 343 739 L343 739 Z " />
<glyph glyph-name="Zcaron" unicode="&#x17d;" horiz-adv-x="462" d="M197 811 L185 746 L418 746 L29 0 L358 0 L358 0 L368 62 L128 62 L519 811 L197 811 Z M375 911 L266 960 L232 903 L363 843 L519 905 L504 963 L375 911 L375 911 Z " />
<glyph glyph-name="zcaron" unicode="&#x17e;" horiz-adv-x="388" d="M449 583 L175 583 L164 520 L344 520 L50 0 L330 0 L341 64 L155 64 L413 520 L449 583 L449 583 Z M335 757 L226 806 L192 749 L323 689 L479 751 L464 809 L335 757 L335 757 Z " />
<glyph glyph-name="florin" unicode="&#x192;" horiz-adv-x="388" d="M234 640 L212 514 L138 514 L127 450 L201 450 L151 167 C139 102 95 62 70 62 L60 0 C128 0 199 74 215 167 L265 450 L368 450 L379 514 L276 514 L298 640 C308 696 355 744 400 744 C418 744 434 738 445 725 L496 772 C475 794 444 808 411 808 C330 808 251 732 234 640 L234 640 Z " />
<glyph glyph-name="Scommaaccent" unicode="&#x218;" horiz-adv-x="449" d="M299 432 C243 493 193 554 211 648 C221 704 276 749 335 749 C393 749 430 700 419 638 L483 638 C500 734 438 811 346 811 C252 811 165 740 148 648 C125 527 190 450 248 386 C304 324 356 264 336 168 C319 77 252 64 214 64 C156 64 118 113 129 174 L65 174 C48 78 111 0 203 0 C250 0 293 14 326 41 C364 71 390 114 400 166 C424 292 358 367 299 432 L299 432 Z M236 27 L177 27 L168 -28 L194 -28 L194 -28 C189 -53 172 -51 172 -51 L168 -73 C220 -73 227 -28 227 -28 L236 27 L236 27 Z " />
<glyph glyph-name="scommaaccent" unicode="&#x219;" horiz-adv-x="368" d="M271 431 C226 482 188 528 201 600 C209 644 250 676 294 676 C337 676 365 639 357 593 L421 593 C435 674 383 740 305 740 C226 740 153 680 138 602 C119 501 173 438 219 384 C266 333 306 287 290 212 C278 148 233 134 198 134 C155 134 127 171 135 218 L72 218 C57 136 109 70 187 70 C271 70 336 125 354 210 C374 315 319 377 271 431 L271 431 Z M212 27 L153 27 L144 -28 L170 -28 L170 -28 C165 -53 148 -51 148 -51 L144 -73 C196 -73 203 -28 203 -28 L212 27 L212 27 Z " />
<glyph glyph-name="circumflex" unicode="&#x2c6;" horiz-adv-x="415" d="M157 682 L189 634 L339 739 L443 630 L491 678 L353 821 L157 682 Z " />
<glyph glyph-name="caron" unicode="&#x2c7;" horiz-adv-x="371" d="M323 757 L214 806 L180 749 L311 689 L467 751 L452 809 L323 757 L323 757 Z " />
<glyph glyph-name="breve" unicode="&#x2d8;" horiz-adv-x="398" d="M318 706 C274 706 244 752 254 809 L190 809 C174 716 227 642 307 642 C389 642 468 716 484 809 L420 809 C410 752 364 706 318 706 L318 706 Z " />
<glyph glyph-name="dotaccent" unicode="&#x2d9;" horiz-adv-x="169" d="M213 739 C232 739 251 755 254 774 C257 793 244 809 225 809 C206 809 187 793 184 774 C181 755 194 739 213 739 L213 739 Z " />
<glyph glyph-name="ring" unicode="&#x2da;" horiz-adv-x="247" d="M338 720 C347 769 315 809 266 809 C218 809 171 769 162 720 C154 672 187 632 235 632 C284 632 330 672 338 720 L338 720 L338 720 Z M244 684 C224 684 213 701 216 720 C220 740 237 756 257 756 C277 756 288 740 284 720 C281 701 264 684 244 684 L244 684 Z " />
<glyph glyph-name="ogonek" unicode="&#x2db;" horiz-adv-x="210" d="M97 -82 C98 -79 102 -73 109 -65 C125 -49 150 -24 158 22 L95 22 C91 -1 81 -12 67 -26 C53 -40 38 -56 33 -82 C24 -132 66 -166 136 -166 L147 -103 C115 -103 95 -92 97 -82 L97 -82 Z " />
<glyph glyph-name="tilde" unicode="&#x2dc;" horiz-adv-x="524" d="M348 685 C392 654 453 612 582 721 L545 766 C457 691 432 710 392 738 C368 754 342 773 305 773 C269 773 223 756 160 703 L199 659 C238 692 270 709 294 709 C294 709 294 709 294 709 C313 709 331 698 348 685 L348 685 Z " />
<glyph glyph-name="hungarumlaut" unicode="&#x2dd;" horiz-adv-x="248" d="M174 720 L216 720 L258 809 L206 809 L174 720 L174 720 Z M246 720 L287 720 L330 809 L276 809 L246 720 L246 720 Z " />
<glyph glyph-name="tonos" unicode="&#x384;" horiz-adv-x="170" d="M147 662 L211 662 L274 794 L195 794 L147 662 L147 662 Z " />
<glyph glyph-name="dieresistonos" unicode="&#x385;" horiz-adv-x="304" d="M265 701 L323 701 L334 761 L276 761 L265 701 L265 701 Z M171 701 L230 701 L241 761 L182 761 L171 701 L171 701 Z " />
<glyph glyph-name="Alphatonos" unicode="&#x386;" horiz-adv-x="458" d="M338 809 L40 0 L103 0 L189 232 L347 232 L352 0 L415 0 L405 809 L338 809 Z M212 294 L343 649 L346 294 L212 294 Z M205 748 L247 748 L289 837 L237 837 L205 748 L205 748 Z " />
<glyph glyph-name="Epsilontonos" unicode="&#x388;" horiz-adv-x="359" d="M53 0 L310 0 L320 62 L126 62 L175 338 L306 338 L317 401 L186 401 L247 745 L441 745 L452 809 L195 809 L53 0 Z M60 743 L102 743 L144 832 L92 832 L60 743 L60 743 Z " />
<glyph glyph-name="Etatonos" unicode="&#x389;" horiz-adv-x="430" d="M401 401 L198 401 L270 809 L207 809 L65 0 L128 0 L187 338 L390 338 L331 0 L395 0 L537 809 L473 809 L401 401 Z M76 778 L118 778 L160 867 L108 867 L76 778 L76 778 Z " />
<glyph glyph-name="Iotatonos" unicode="&#x38a;" horiz-adv-x="169" d="M62 0 L126 0 L268 808 L204 808 L62 0 Z M79 775 L121 775 L163 864 L111 864 L79 775 L79 775 Z " />
<glyph glyph-name="Omicrontonos" unicode="&#x38c;" horiz-adv-x="438" d="M370 808 L362 808 C269 808 182 733 166 641 L82 167 C66 74 127 0 220 0 L228 0 C320 0 408 74 424 167 L508 641 C524 733 462 808 370 808 L370 808 Z M361 167 C351 109 296 62 238 62 L230 62 C172 62 135 109 145 167 L229 641 C239 698 293 744 351 744 L359 744 C417 744 455 698 445 641 L361 167 Z M110 733 L152 733 L194 822 L142 822 L110 733 L110 733 Z " />
<glyph glyph-name="Upsilontonos" unicode="&#x38e;" horiz-adv-x="466" d="M307 428 L258 809 L192 809 L255 312 L200 1 L264 1 L319 314 L551 809 L485 809 L307 428 Z M77 770 L119 770 L161 859 L109 859 L77 770 L77 770 Z " />
<glyph glyph-name="Omegatonos" unicode="&#x38f;" horiz-adv-x="848" d="M774 522 C773 587 749 650 706 696 C663 744 604 771 544 771 C483 771 417 744 356 696 C296 650 251 587 228 522 C186 408 197 291 261 156 L63 156 L52 94 L374 94 L345 144 C265 286 248 400 287 510 C307 562 343 612 390 651 C438 687 489 708 533 708 C578 708 623 687 655 651 C689 612 709 562 708 510 C710 400 652 286 523 144 L477 94 L797 94 L808 156 L610 156 C722 291 774 408 774 522 L774 522 Z " />
<glyph glyph-name="iotadieresistonos" unicode="&#x390;" horiz-adv-x="400" d="M343 723 L402 723 L413 783 L354 783 L343 723 L343 723 Z M189 723 L248 723 L259 783 L200 783 L189 723 L189 723 Z M314 214 C305 207 293 202 280 202 C256 202 231 220 238 258 L323 740 L201 740 L189 676 L249 676 L176 258 C162 181 214 140 269 140 C298 140 327 151 350 170 C368 184 391 212 399 258 L337 258 C333 238 326 224 314 214 L314 214 Z M274 754 L316 754 L358 843 L306 843 L274 754 L274 754 Z " />
<glyph glyph-name="Alpha" unicode="&#x391;" horiz-adv-x="458" d="M338 809 L40 0 L103 0 L189 232 L347 232 L352 0 L415 0 L405 809 L338 809 Z M212 294 L343 649 L346 294 L212 294 Z " />
<glyph glyph-name="Beta" unicode="&#x392;" horiz-adv-x="406" d="M367 492 C408 523 437 572 447 628 L450 642 C465 734 414 809 338 809 L195 809 L190 779 L184 745 L143 511 L132 449 L64 64 L53 0 L116 0 L209 0 C294 0 377 74 393 166 L425 346 C436 409 411 464 367 492 L367 492 Z M247 745 L327 745 C369 745 397 697 387 638 L385 625 C374 569 331 523 289 523 L208 523 L247 745 Z M330 166 C320 109 270 64 220 64 L127 64 L195 449 L288 449 C338 449 371 402 362 346 L330 166 Z " />
<glyph glyph-name="Gamma" unicode="&#x393;" horiz-adv-x="355" d="M447 811 L184 811 L183 809 L173 749 L41 0 L103 0 L235 749 L436 749 L447 811 L447 811 Z " />
<glyph glyph-name="&amp;#x394;" unicode="&#x394;" horiz-adv-x="506" d="M402 695 L352 695 L60 0 L450 0 L404 671 L402 695 L402 695 Z M150 62 L347 530 L380 62 L150 62 L150 62 Z " />
<glyph glyph-name="&amp;#x2206;" unicode="&#x2206;" horiz-adv-x="506" d="M402 695 L352 695 L60 0 L450 0 L404 671 L402 695 L402 695 Z M150 62 L347 530 L380 62 L150 62 L150 62 Z " />
<glyph glyph-name="Epsilon" unicode="&#x395;" horiz-adv-x="359" d="M53 0 L310 0 L320 62 L126 62 L175 338 L306 338 L317 401 L186 401 L247 745 L441 745 L452 809 L195 809 L53 0 Z " />
<glyph glyph-name="Zeta" unicode="&#x396;" horiz-adv-x="462" d="M470 809 L470 808 L215 808 L204 744 L437 744 L48 0 L73 0 L73 0 L114 0 L377 0 L377 0 L387 62 L147 62 L537 809 L470 809 Z " />
<glyph glyph-name="Eta" unicode="&#x397;" horiz-adv-x="430" d="M401 401 L198 401 L270 809 L207 809 L65 0 L128 0 L187 338 L390 338 L331 0 L395 0 L537 809 L473 809 L401 401 Z " />
<glyph glyph-name="Theta" unicode="&#x398;" horiz-adv-x="438" d="M370 808 L362 808 C269 808 182 733 166 641 L82 167 C66 74 127 0 220 0 L228 0 C320 0 408 74 424 167 L508 641 C524 733 462 808 370 808 L370 808 Z M351 744 L359 744 C417 744 455 698 445 641 L408 433 L192 433 L229 641 C239 698 293 744 351 744 L351 744 Z M238 62 L230 62 C172 62 135 109 145 167 L181 371 L397 371 L361 167 C351 109 296 62 238 62 L238 62 Z " />
<glyph glyph-name="Iota" unicode="&#x399;" horiz-adv-x="169" d="M62 0 L126 0 L268 808 L204 808 L62 0 Z " />
<glyph glyph-name="Kappa" unicode="&#x39a;" horiz-adv-x="458" d="M556 808 L480 808 L207 473 L266 808 L202 808 L60 0 L124 0 L187 359 L258 451 L343 0 L419 0 L313 514 L556 808 Z " />
<glyph glyph-name="Lambda" unicode="&#x39b;" horiz-adv-x="449" d="M336 0 L401 0 L392 775 L392 809 L340 809 L328 775 L48 0 L112 0 L330 602 L336 0 Z " />
<glyph glyph-name="Mu" unicode="&#x39c;" horiz-adv-x="502" d="M598 809 L532 809 L316 365 L256 809 L190 809 L190 804 L49 0 L113 0 L218 601 L263 259 L268 234 L318 234 L331 259 L501 610 L394 0 L457 0 L599 806 L597 806 L598 809 Z " />
<glyph glyph-name="Nu" unicode="&#x39d;" horiz-adv-x="454" d="M489 809 L376 168 L263 809 L251 809 L189 809 L47 0 L110 0 L224 649 L338 0 L358 0 L360 1 L403 14 L358 0 L409 0 L551 809 L489 809 Z " />
<glyph glyph-name="Xi" unicode="&#x39e;" horiz-adv-x="462" d="M143 371 L450 371 L461 433 L154 433 L143 371 L143 371 Z M173 749 L556 749 L567 811 L184 811 L173 749 L173 749 Z M35 1 L428 1 L439 64 L46 64 L35 1 L35 1 Z " />
<glyph glyph-name="Omicron" unicode="&#x39f;" horiz-adv-x="438" d="M370 808 L362 808 C269 808 182 733 166 641 L82 167 C66 74 127 0 220 0 L228 0 C320 0 408 74 424 167 L508 641 C524 733 462 808 370 808 L370 808 Z M361 167 C351 109 296 62 238 62 L230 62 C172 62 135 109 145 167 L229 641 C239 698 293 744 351 744 L359 744 C417 744 455 698 445 641 L361 167 Z " />
<glyph glyph-name="Pi" unicode="&#x3a0;" horiz-adv-x="571" d="M162 652 L254 652 L146 36 L210 36 L318 652 L494 652 L386 36 L449 36 L557 652 L662 652 L673 714 L173 714 L162 652 L162 652 Z " />
<glyph glyph-name="Rho" unicode="&#x3a1;" horiz-adv-x="415" d="M363 809 L195 809 L195 806 L184 745 L116 362 L105 299 L53 1 L116 1 L168 299 L273 299 C359 299 442 373 458 464 L490 643 C506 734 449 809 363 809 L363 809 Z M394 464 C384 408 335 362 284 362 L179 362 L247 745 L352 745 C403 745 436 700 426 643 L394 464 Z " />
<glyph glyph-name="Sigma" unicode="&#x3a3;" horiz-adv-x="462" d="M279 328 L48 0 L415 0 L425 62 L162 62 L351 328 L256 593 L519 593 L530 655 L163 655 L279 328 L279 328 Z " />
<glyph glyph-name="Tau" unicode="&#x3a4;" horiz-adv-x="406" d="M179 745 L300 745 L169 1 L232 1 L363 745 L483 745 L494 809 L190 809 L179 745 Z " />
<glyph glyph-name="Upsilon" unicode="&#x3a5;" horiz-adv-x="466" d="M307 428 L258 809 L192 809 L255 312 L200 1 L264 1 L319 314 L551 809 L485 809 L307 428 Z " />
<glyph glyph-name="Phi" unicode="&#x3a6;" horiz-adv-x="443" d="M395 805 L405 858 L342 858 L332 805 C251 792 180 724 166 641 L82 167 C67 84 114 16 191 2 L173 -97 L236 -97 L254 2 C336 14 409 83 424 167 L508 641 C522 724 473 793 395 805 L395 805 Z M145 167 L229 641 C237 689 276 727 321 740 L202 66 C161 79 136 119 145 167 L145 167 Z M361 167 C352 119 312 78 265 66 L384 740 C427 730 453 689 445 641 L361 167 L361 167 Z " />
<glyph glyph-name="Chi" unicode="&#x3a7;" horiz-adv-x="467" d="M482 809 L311 480 L257 809 L190 809 L261 383 L62 0 L130 0 L277 286 L325 0 L392 0 L327 383 L549 809 L482 809 Z " />
<glyph glyph-name="Psi" unicode="&#x3a8;" horiz-adv-x="448" d="M462 809 L409 506 C400 454 361 408 317 392 L390 806 L327 806 L254 392 C214 408 193 454 202 506 L255 809 L182 809 L129 506 C112 413 161 334 241 318 L185 0 L248 0 L304 318 C389 334 466 413 483 506 L536 809 L462 809 L462 809 Z " />
<glyph glyph-name="&amp;#x3a9;" unicode="&#x3a9;" horiz-adv-x="828" d="M769 428 C768 493 745 556 702 602 C658 650 600 677 540 677 C479 677 412 650 352 602 C292 556 246 493 223 428 C182 314 192 197 256 62 L58 62 L48 0 L370 0 L340 50 C260 192 243 306 283 416 C302 468 339 518 386 557 C433 593 485 614 529 614 C574 614 618 593 651 557 C685 518 704 468 704 416 C705 306 647 192 518 50 L473 0 L793 0 L803 62 L605 62 C717 197 770 314 769 428 L769 428 Z " />
<glyph glyph-name="&amp;#x2126;" unicode="&#x2126;" horiz-adv-x="828" d="M769 428 C768 493 745 556 702 602 C658 650 600 677 540 677 C479 677 412 650 352 602 C292 556 246 493 223 428 C182 314 192 197 256 62 L58 62 L48 0 L370 0 L340 50 C260 192 243 306 283 416 C302 468 339 518 386 557 C433 593 485 614 529 614 C574 614 618 593 651 557 C685 518 704 468 704 416 C705 306 647 192 518 50 L473 0 L793 0 L803 62 L605 62 C717 197 770 314 769 428 L769 428 Z " />
<glyph glyph-name="Iotadieresis" unicode="&#x3aa;" horiz-adv-x="169" d="M62 0 L126 0 L268 808 L204 808 L62 0 Z M243 925 L301 925 L312 985 L254 985 L243 925 L243 925 Z M149 925 L208 925 L219 985 L160 985 L149 925 L149 925 Z " />
<glyph glyph-name="Upsilondieresis" unicode="&#x3ab;" horiz-adv-x="470" d="M304 428 L256 809 L190 809 L253 312 L198 1 L262 1 L317 314 L549 809 L483 809 L304 428 Z M387 881 L445 881 L456 941 L398 941 L387 881 L387 881 Z M293 881 L352 881 L363 941 L304 941 L293 881 L293 881 Z " />
<glyph glyph-name="alphatonos" unicode="&#x3ac;" horiz-adv-x="700" d="M569 212 C543 212 533 268 529 328 C538 342 547 356 555 370 C625 489 673 626 686 704 L623 704 C612 642 575 532 523 432 C518 484 513 536 497 579 C473 651 426 688 358 688 C300 688 244 652 196 586 C158 532 129 462 116 391 C104 325 108 265 127 222 C150 168 196 140 256 140 C330 140 404 178 471 255 C482 193 504 150 558 150 C610 150 678 175 700 297 L636 297 C622 219 594 212 569 212 L569 212 Z M267 202 C151 202 175 360 180 391 C200 504 271 625 347 625 C439 625 452 518 462 367 C463 356 462 346 463 337 C407 260 340 202 267 202 L267 202 Z M446 754 L488 754 L530 843 L478 843 L446 754 L446 754 Z " />
<glyph glyph-name="epsilontonos" unicode="&#x3ad;" horiz-adv-x="418" d="M212 573 C222 628 268 676 312 676 C358 676 388 628 378 573 L442 573 C458 664 405 739 323 739 C243 739 164 664 148 573 L140 525 L110 354 L101 306 C85 214 138 140 218 140 C300 140 379 214 395 306 L331 306 C321 250 275 202 229 202 C185 202 155 250 165 306 L174 354 L182 403 L386 403 L397 465 L193 465 L204 525 L212 573 L212 573 Z M306 754 L348 754 L390 843 L338 843 L306 754 L306 754 Z " />
<glyph glyph-name="etatonos" unicode="&#x3ae;" horiz-adv-x="396" d="M336 793 C305 793 274 782 248 763 L253 793 L189 793 L160 626 L93 246 L86 211 L150 211 L157 246 L224 626 C234 683 280 731 325 731 C370 731 401 683 391 626 L290 55 L353 55 L454 626 C470 719 417 793 336 793 L336 793 Z M294 754 L336 754 L378 843 L326 843 L294 754 L294 754 Z " />
<glyph glyph-name="iotatonos" unicode="&#x3af;" horiz-adv-x="358" d="M291 214 C282 207 270 202 257 202 C233 202 208 220 215 258 L300 740 L178 740 L166 676 L226 676 L153 258 C139 181 191 140 246 140 C275 140 304 151 327 170 C345 184 368 212 376 258 L314 258 C310 238 303 224 291 214 L291 214 Z M275 754 L317 754 L359 843 L307 843 L275 754 L275 754 Z " />
<glyph glyph-name="upsilondieresistonos" unicode="&#x3b0;" horiz-adv-x="540" d="M487 628 C523 490 486 308 400 204 C364 159 322 135 279 132 C272 144 259 192 268 371 C272 482 284 588 284 588 L290 630 L151 585 L160 525 L216 544 C213 497 206 418 203 340 C201 268 201 210 204 168 C208 119 218 70 259 70 C329 70 394 105 447 170 C496 228 533 309 551 398 C570 486 569 576 549 653 L487 628 Z M451 723 L510 723 L521 783 L462 783 L451 723 Z M297 723 L356 723 L367 783 L308 783 L297 723 Z M384 754 L426 754 L468 843 L416 843 L384 754 L384 754 Z " />
<glyph glyph-name="alpha" unicode="&#x3b1;" horiz-adv-x="700" d="M557 142 C531 142 521 198 517 258 C526 272 535 286 543 300 C613 419 661 556 674 634 L611 634 C600 572 563 462 511 362 C506 414 501 466 485 509 C461 581 414 618 346 618 C288 618 232 582 184 516 C146 462 117 392 104 321 C92 255 96 195 115 152 C138 98 184 70 244 70 C318 70 392 108 459 185 C470 123 492 80 546 80 C598 80 666 105 688 227 L624 227 C610 149 582 142 557 142 L557 142 Z M255 132 C139 132 163 290 168 321 C188 434 259 555 335 555 C427 555 440 448 450 297 C451 286 450 276 451 267 C395 190 328 132 255 132 L255 132 Z " />
<glyph glyph-name="beta" unicode="&#x3b2;" horiz-adv-x="468" d="M415 476 C404 487 394 496 382 503 C423 528 460 568 478 625 C510 730 471 781 445 802 C401 835 332 839 272 810 C216 784 177 734 167 677 L14 -192 L78 -192 L231 677 C239 722 271 745 291 755 C329 773 373 770 400 750 C427 727 433 688 417 634 C389 540 285 526 276 524 C274 524 273 524 273 524 L269 462 C271 462 271 462 272 462 C279 462 332 466 367 428 C399 394 408 334 393 248 C380 175 358 125 324 97 C286 65 239 66 201 67 C195 67 189 68 184 68 L173 5 C178 5 182 5 188 5 C233 4 300 1 361 52 C410 92 440 157 456 248 C475 353 461 430 415 476 L415 476 Z " />
<glyph glyph-name="gamma" unicode="&#x3b3;" horiz-adv-x="596" d="M640 682 C547 590 479 479 430 374 C431 484 413 562 378 609 C353 641 320 658 278 658 C234 658 204 640 188 624 C146 587 141 532 140 526 L205 532 C205 539 209 567 227 582 C237 591 250 596 267 596 C291 596 309 586 325 566 C379 495 373 318 352 155 C306 -6 299 -128 299 -133 L361 -132 C363 -127 395 2 415 154 C455 296 533 495 681 641 L640 682 L640 682 Z " />
<glyph glyph-name="delta" unicode="&#x3b4;" horiz-adv-x="428" d="M369 407 C280 500 265 563 280 591 C291 610 321 612 334 612 C409 612 424 573 424 572 C425 573 424 573 424 573 L487 598 C485 600 466 675 346 675 C291 675 246 652 225 612 C208 582 201 534 237 467 C78 305 77 206 90 160 C107 102 163 70 245 70 C313 70 374 106 408 166 C451 244 435 339 369 407 L369 407 Z M352 189 C332 153 298 132 256 132 C201 132 162 153 152 186 C137 239 178 322 269 418 C282 400 300 381 319 360 C380 298 375 228 352 189 L352 189 Z " />
<glyph glyph-name="epsilon" unicode="&#x3b5;" horiz-adv-x="418" d="M200 503 C210 558 256 606 300 606 C346 606 376 558 366 503 L430 503 C446 594 393 669 311 669 C231 669 152 594 136 503 L128 455 L98 284 L89 236 C73 144 126 70 206 70 C288 70 367 144 383 236 L319 236 C309 180 263 132 217 132 C173 132 143 180 153 236 L162 284 L170 333 L374 333 L385 395 L181 395 L192 455 L200 503 L200 503 Z " />
<glyph glyph-name="zeta" unicode="&#x3b6;" horiz-adv-x="571" d="M365 104 C354 104 343 104 334 104 C262 102 226 104 209 124 C182 160 206 284 249 458 C259 498 272 533 287 562 C327 560 379 573 440 598 C554 647 567 698 564 723 C560 759 522 780 470 776 C417 771 359 742 313 696 C294 678 278 658 262 636 C262 636 261 636 261 638 C229 662 236 724 243 746 L211 748 L180 750 C179 746 152 636 215 586 C218 582 223 580 228 576 C211 543 197 504 187 462 C127 222 118 130 156 81 C187 39 245 40 323 40 C333 40 343 40 354 40 C440 40 469 8 466 -9 C464 -18 456 -26 442 -33 C417 -46 382 -52 343 -52 L332 -116 C383 -116 429 -106 463 -88 C499 -69 524 -40 530 -9 C539 45 492 104 365 104 L365 104 Z M443 708 C455 712 465 713 473 713 C487 713 498 710 500 706 C497 700 479 680 423 656 C386 640 352 629 327 626 C373 686 424 704 443 708 L443 708 Z " />
<glyph glyph-name="eta" unicode="&#x3b7;" horiz-adv-x="396" d="M324 723 C293 723 262 712 236 693 L241 723 L177 723 L148 556 L81 176 L74 141 L138 141 L145 176 L212 556 C222 613 268 661 313 661 C358 661 389 613 379 556 L278 -15 L341 -15 L442 556 C458 649 405 723 324 723 L324 723 Z " />
<glyph glyph-name="theta" unicode="&#x3b8;" horiz-adv-x="383" d="M311 652 C230 652 151 578 135 486 L91 237 C75 146 128 71 209 71 C290 71 369 146 385 237 L429 486 C445 578 392 652 311 652 L311 652 Z M301 590 C346 590 376 542 366 486 L350 395 L183 395 L199 486 C209 542 256 590 301 590 L301 590 Z M220 134 C175 134 146 182 155 237 L172 333 L339 333 L322 237 C313 182 265 134 220 134 L220 134 Z " />
<glyph glyph-name="iota" unicode="&#x3b9;" horiz-adv-x="358" d="M279 144 C270 137 258 132 245 132 C221 132 196 150 203 188 L288 670 L166 670 L154 606 L214 606 L141 188 C127 111 179 70 234 70 C263 70 292 81 315 100 C333 114 356 142 364 188 L302 188 C298 168 291 154 279 144 L279 144 Z " />
<glyph glyph-name="kappa" unicode="&#x3ba;" horiz-adv-x="466" d="M435 653 L201 417 L243 653 L180 653 L77 70 L140 70 L183 312 L267 400 L330 71 L402 71 L325 455 L512 653 L435 653 Z " />
<glyph glyph-name="lambda" unicode="&#x3bb;" horiz-adv-x="658" d="M528 252 C496 335 475 443 456 538 C442 612 430 678 413 720 C377 816 318 818 286 810 C230 796 177 734 165 668 L229 668 C236 705 263 742 292 749 C314 755 337 734 353 690 C367 652 380 586 392 515 L405 453 L405 454 L164 70 L234 70 L423 372 C435 320 449 267 466 221 C509 112 563 59 633 59 L644 122 C599 122 561 166 528 252 L528 252 Z " />
<glyph glyph-name="nu" unicode="&#x3bd;" horiz-adv-x="377" d="M227 276 L223 652 L160 652 L164 104 L165 75 L166 70 L190 70 L191 70 L192 70 L217 70 L218 75 L229 104 L426 652 L362 652 L227 276 Z " />
<glyph glyph-name="xi" unicode="&#x3be;" horiz-adv-x="576" d="M365 104 C354 104 343 104 334 104 C262 102 226 104 209 124 C189 150 195 220 217 321 L433 321 L444 384 L231 384 C237 407 243 432 249 458 C259 498 272 533 287 562 C327 560 379 573 440 598 C554 647 567 698 564 723 C560 759 522 780 470 776 C417 771 359 742 313 696 C294 678 278 658 262 636 C262 636 261 636 261 638 C229 662 236 724 243 746 L211 748 L180 750 C179 746 152 636 215 586 C218 582 223 580 228 576 C211 543 197 504 187 462 C127 222 118 130 156 81 C187 39 245 40 323 40 C333 40 343 40 354 40 C440 40 469 8 466 -9 C464 -18 456 -26 442 -33 C417 -46 382 -52 343 -52 L332 -116 C383 -116 429 -106 463 -88 C499 -69 524 -40 530 -9 C539 45 492 104 365 104 L365 104 Z M443 708 C455 712 465 713 473 713 C487 713 498 710 500 706 C497 700 479 680 423 656 C386 640 352 629 327 626 C373 686 424 704 443 708 L443 708 Z " />
<glyph glyph-name="omicron" unicode="&#x3bf;" horiz-adv-x="391" d="M311 652 C230 652 151 578 135 486 L91 237 C75 146 128 71 209 71 C290 71 369 146 385 237 L429 486 C445 578 392 652 311 652 L311 652 Z M322 237 C313 182 265 134 220 134 C175 134 146 182 155 237 L199 486 C209 542 256 590 301 590 C346 590 376 542 366 486 L322 237 Z " />
<glyph glyph-name="pi" unicode="&#x3c0;" horiz-adv-x="670" d="M426 574 C355 551 292 531 183 597 L143 542 C191 513 232 498 270 492 L202 106 L265 106 L333 490 C371 494 404 504 436 515 C464 524 489 532 518 536 L442 106 L504 106 L579 533 C610 528 643 515 684 491 L724 546 C590 627 503 599 426 574 L426 574 Z " />
<glyph glyph-name="rho" unicode="&#x3c1;" horiz-adv-x="396" d="M323 652 C292 652 262 641 235 622 L241 653 L177 653 L147 485 L103 237 L40 -123 L104 -123 L143 100 C163 81 190 70 221 70 C302 70 383 155 399 248 L441 485 C457 578 404 652 323 652 L323 652 Z M334 237 C324 180 277 132 232 132 C187 132 157 180 167 237 L211 485 C221 542 267 588 312 588 C357 588 388 542 378 485 L334 237 Z " />
<glyph glyph-name="sigma1" unicode="&#x3c2;" horiz-adv-x="556" d="M366 638 C310 632 254 602 205 550 C160 502 127 442 115 381 C101 314 112 251 148 203 C188 147 258 111 353 94 C389 88 412 69 413 41 C412 17 399 -6 376 -20 C332 -46 265 -31 197 22 L152 -30 C217 -80 272 -96 315 -96 C356 -96 386 -81 402 -72 C449 -44 478 5 476 54 C475 108 435 146 374 156 C225 182 154 262 178 378 C188 426 213 474 248 512 C283 549 323 572 361 575 C419 580 460 569 484 540 C528 486 502 388 501 387 L533 384 L564 381 C565 386 598 509 536 585 C501 627 443 645 366 638 L366 638 Z " />
<glyph glyph-name="sigma" unicode="&#x3c3;" horiz-adv-x="466" d="M128 455 L89 236 C73 144 126 70 206 70 C288 70 367 144 383 236 L422 455 C429 494 423 530 408 558 L519 558 L530 621 L303 621 C223 621 144 546 128 455 L128 455 Z M358 455 L319 236 C309 180 263 132 217 132 C173 132 143 180 153 236 L192 455 C201 510 248 558 292 558 C338 558 367 510 358 455 L358 455 Z " />
<glyph glyph-name="tau" unicode="&#x3c4;" horiz-adv-x="220" d="M57 599 L196 599 L95 24 L158 24 L270 662 L68 662 L57 599 Z " />
<glyph glyph-name="upsilon" unicode="&#x3c5;" horiz-adv-x="515" d="M475 628 C511 490 474 308 388 204 C352 159 310 135 267 132 C260 144 247 192 256 371 C260 482 272 588 272 588 L278 630 L139 585 L148 525 L204 544 C201 497 194 418 191 340 C189 268 189 210 192 168 C196 119 206 70 247 70 C317 70 382 105 435 170 C484 228 521 309 539 398 C558 486 557 576 537 653 L475 628 L475 628 Z " />
<glyph glyph-name="phi" unicode="&#x3c6;" horiz-adv-x="398" d="M336 650 L355 758 L291 758 L271 646 C206 627 149 562 135 486 L91 237 C78 160 112 96 171 77 L157 -2 L221 -2 L235 74 C307 87 371 155 385 237 L429 486 C444 568 404 636 336 650 L336 650 Z M155 237 L199 486 C206 525 230 560 259 578 L183 146 C160 164 148 198 155 237 L155 237 Z M322 237 C314 192 282 153 246 138 L325 585 C356 570 374 531 366 486 L322 237 L322 237 Z " />
<glyph glyph-name="chi" unicode="&#x3c7;" horiz-adv-x="474" d="M521 653 L451 653 L320 452 L261 653 L192 653 L272 378 L74 70 L144 70 L295 304 L365 70 L434 70 L343 378 L521 653 Z " />
<glyph glyph-name="psi" unicode="&#x3c8;" horiz-adv-x="443" d="M450 738 L398 447 C389 395 351 349 306 333 L377 735 L314 735 L243 333 C204 349 182 395 191 447 L243 738 L170 738 L118 447 C102 354 151 275 230 259 L174 -59 L237 -59 L293 259 C379 275 456 354 472 447 L524 738 L450 738 L450 738 Z " />
<glyph glyph-name="omega" unicode="&#x3c9;" horiz-adv-x="754" d="M691 653 L637 609 C738 486 732 322 673 222 C653 189 610 132 539 132 C531 132 519 135 508 149 C485 179 478 240 479 310 C501 386 512 480 516 592 L451 588 C451 585 431 495 422 392 C418 363 417 335 415 310 C397 248 372 201 342 171 C315 146 283 132 245 132 C197 132 177 167 167 195 C140 284 182 448 320 593 L277 632 C112 458 73 269 106 167 C126 105 173 70 234 70 C292 70 340 90 382 130 C397 144 411 161 423 180 C430 148 441 123 455 105 C474 82 498 70 528 70 C606 70 679 117 726 197 C765 262 784 341 780 420 C775 507 744 587 691 653 L691 653 Z " />
<glyph glyph-name="iotadieresis" unicode="&#x3ca;" horiz-adv-x="358" d="M291 214 C282 207 270 202 257 202 C233 202 208 220 215 258 L300 740 L178 740 L166 676 L226 676 L153 258 C139 181 191 140 246 140 C275 140 304 151 327 170 C345 184 368 212 376 258 L314 258 C310 238 303 224 291 214 L291 214 Z M250 771 L308 771 L319 831 L261 831 L250 771 L250 771 Z M156 771 L215 771 L226 831 L167 831 L156 771 L156 771 Z " />
<glyph glyph-name="upsilondieresis" unicode="&#x3cb;" horiz-adv-x="515" d="M487 698 C523 560 486 378 400 274 C364 229 322 205 279 202 C272 214 259 262 268 441 C272 552 284 658 284 658 L290 700 L151 655 L160 595 L216 614 C213 567 206 488 203 410 C201 338 201 280 204 238 C208 189 218 140 259 140 C329 140 394 175 447 240 C496 298 533 379 551 468 C570 556 569 646 549 723 L487 698 L487 698 Z M387 771 L445 771 L456 831 L398 831 L387 771 L387 771 Z M293 771 L352 771 L363 831 L304 831 L293 771 L293 771 Z " />
<glyph glyph-name="omicrontonos" unicode="&#x3cc;" horiz-adv-x="391" d="M323 722 C242 722 163 648 147 556 L103 307 C87 216 140 141 221 141 C302 141 381 216 397 307 L441 556 C457 648 404 722 323 722 L323 722 Z M334 307 C325 252 277 204 232 204 C187 204 158 252 167 307 L211 556 C221 612 268 660 313 660 C358 660 388 612 378 556 L334 307 Z M292 754 L334 754 L376 843 L324 843 L292 754 L292 754 Z " />
<glyph glyph-name="upsilontonos" unicode="&#x3cd;" horiz-adv-x="533" d="M475 628 C511 490 474 308 388 204 C352 159 310 135 267 132 C260 144 247 192 256 371 C260 482 272 588 272 588 L278 630 L139 585 L148 525 L204 544 C201 497 194 418 191 340 C189 268 189 210 192 168 C196 119 206 70 247 70 C317 70 382 105 435 170 C484 228 521 309 539 398 C558 486 557 576 537 653 L475 628 Z M368 724 L410 724 L452 813 L400 813 L368 724 L368 724 Z " />
<glyph glyph-name="omegatonos" unicode="&#x3ce;" horiz-adv-x="797" d="M477 834 L464 702 L515 702 L545 834 L477 834 Z M691 653 L637 609 C738 486 732 322 673 222 C653 189 610 132 539 132 C531 132 519 135 508 149 C485 179 478 240 479 310 C501 386 512 480 516 592 L451 588 C451 585 431 495 422 392 C418 363 417 335 415 310 C397 248 372 201 342 171 C315 146 283 132 245 132 C197 132 177 167 167 195 C140 284 182 448 320 593 L277 632 C112 458 73 269 106 167 C126 105 173 70 234 70 C292 70 340 90 382 130 C397 144 411 161 423 180 C430 148 441 123 455 105 C474 82 498 70 528 70 C606 70 679 117 726 197 C765 262 784 341 780 420 C775 507 744 587 691 653 L691 653 Z " />
<glyph glyph-name="afii10023" unicode="&#x401;" horiz-adv-x="359" d="M53 0 L310 0 L320 62 L126 62 L175 338 L306 338 L317 401 L186 401 L247 745 L441 745 L452 809 L195 809 L53 0 Z M356 893 L414 893 L425 953 L367 953 L356 893 L356 893 Z M262 893 L321 893 L332 953 L273 953 L262 893 L262 893 Z " />
<glyph glyph-name="afii10051" unicode="&#x402;" horiz-adv-x="431" d="M371 566 C340 566 310 556 282 536 L319 745 L442 745 L453 808 L209 808 L198 745 L257 745 L198 410 C197 407 197 403 196 400 L158 182 L158 182 L122 -18 L184 -18 L260 409 C274 461 317 503 360 503 C406 503 436 456 426 400 L388 182 C377 121 324 62 282 62 L272 0 C359 0 435 96 451 182 L489 400 C505 491 452 566 371 566 L371 566 Z " />
<glyph glyph-name="afii10052" unicode="&#x403;" horiz-adv-x="352" d="M459 811 L196 811 L195 809 L185 749 L53 0 L115 0 L247 749 L448 749 L459 811 L459 811 Z M301 866 L343 866 L385 955 L333 955 L301 866 L301 866 Z " />
<glyph glyph-name="afii10053" unicode="&#x404;" horiz-adv-x="418" d="M355 805 C274 805 195 731 179 638 L161 538 C151 481 167 432 198 402 C156 372 123 322 113 266 L96 166 C79 73 132 -1 213 -1 L352 -1 L363 61 L224 61 C178 61 149 109 159 166 L176 266 C186 323 233 370 279 370 L370 370 L370 371 L381 433 L381 434 L290 434 C244 434 214 481 224 538 L242 638 C252 695 298 742 344 742 L483 742 L494 805 L355 805 L355 805 Z " />
<glyph glyph-name="afii10054" unicode="&#x405;" horiz-adv-x="449" d="M330 432 C274 493 224 551 241 644 C251 701 306 745 365 745 C423 745 460 696 449 635 L513 635 C530 731 468 808 376 808 C282 808 195 737 178 644 C156 523 221 450 279 386 C335 324 387 265 367 169 C350 78 283 65 245 65 C187 65 150 114 160 175 L96 175 C79 79 142 1 234 1 C281 1 324 16 357 42 C395 72 421 115 431 167 C455 293 389 367 330 432 L330 432 Z " />
<glyph glyph-name="afii10055" unicode="&#x406;" horiz-adv-x="169" d="M50 0 L114 0 L256 808 L192 808 L50 0 Z " />
<glyph glyph-name="Yi" unicode="&#x407;" horiz-adv-x="178" d="M263 848 L351 848 L367 938 L279 938 L263 848 Z M121 848 L210 848 L226 938 L137 938 L121 848 Z M61 0 L125 0 L267 808 L203 808 L61 0 Z " />
<glyph glyph-name="afii10057" unicode="&#x408;" horiz-adv-x="448" d="M354 174 C343 113 288 64 231 64 C173 64 135 113 146 174 L181 372 L118 372 L83 174 C66 78 127 1 220 1 C312 1 399 78 416 174 L528 809 L466 809 L354 174 Z " />
<glyph glyph-name="afii10058" unicode="&#x409;" horiz-adv-x="718" d="M589 563 L506 563 L549 806 L485 806 L484 804 L369 804 L249 122 C242 84 213 67 187 67 C175 67 164 72 158 79 C151 89 148 103 151 122 L88 122 C80 77 93 49 107 35 C122 16 148 5 176 5 C232 5 298 46 311 122 L420 742 L473 742 L342 -2 L373 -2 L373 -4 L489 -4 C570 -4 649 71 665 163 L706 396 C723 488 670 563 589 563 L589 563 Z M602 163 C592 107 545 60 500 60 L417 60 L494 499 L577 499 C622 499 653 452 643 396 L602 163 L602 163 Z " />
<glyph glyph-name="afii10059" unicode="&#x40a;" horiz-adv-x="707" d="M595 563 L531 563 L574 806 L510 806 L467 563 L389 563 L432 806 L370 806 L249 122 C242 84 213 67 187 67 C175 67 164 72 158 79 C151 89 148 103 151 122 L88 122 C80 77 93 49 107 35 C122 16 148 5 176 5 C232 5 298 46 311 122 L377 499 L455 499 L367 -2 L399 -2 L399 -4 L515 -4 C595 -4 674 71 690 163 L731 396 C748 488 687 563 595 563 L595 563 Z M627 163 C617 107 570 60 526 60 L442 60 L519 499 L583 499 C640 499 679 454 668 396 L627 163 L627 163 Z " />
<glyph glyph-name="afii10060" unicode="&#x40b;" horiz-adv-x="472" d="M365 480 C334 480 303 468 276 450 L300 588 L438 588 L449 651 L181 651 L170 588 L236 588 L188 314 L150 98 L145 69 L209 69 L214 98 L252 314 C262 370 308 417 354 417 C398 417 429 370 419 314 L376 70 L439 70 L482 314 C498 405 445 480 365 480 L365 480 Z " />
<glyph glyph-name="afii10061" unicode="&#x40c;" horiz-adv-x="458" d="M556 808 L480 808 L207 473 L266 808 L202 808 L60 0 L124 0 L187 359 L258 451 L343 0 L419 0 L313 514 L556 808 Z M353 908 L395 908 L437 997 L385 997 L353 908 L353 908 Z " />
<glyph glyph-name="afii10062" unicode="&#x40e;" horiz-adv-x="472" d="M316 428 L268 809 L202 809 L265 312 L210 1 L274 1 L329 314 L561 809 L495 809 L316 428 Z M400 898 C356 898 326 944 336 1001 L272 1001 C256 908 309 834 389 834 C471 834 550 908 566 1001 L502 1001 C492 944 446 898 400 898 L400 898 Z " />
<glyph glyph-name="afii10145" unicode="&#x40f;" horiz-adv-x="547" d="M457 236 L171 236 L271 803 L208 803 L97 173 L271 173 L240 -1 L304 -1 L335 173 L510 173 L622 809 L558 809 L457 236 L457 236 Z " />
<glyph glyph-name="afii10017" unicode="&#x410;" horiz-adv-x="458" d="M346 809 L48 0 L112 0 L197 232 L356 232 L360 0 L424 0 L413 809 L346 809 Z M220 294 L352 649 L355 294 L220 294 Z " />
<glyph glyph-name="afii10018" unicode="&#x411;" horiz-adv-x="437" d="M283 441 L207 441 L242 638 L408 638 L419 701 L190 701 L78 68 L109 68 L109 66 L225 66 C306 66 385 141 402 233 L409 274 C425 366 369 441 283 441 L283 441 Z M339 233 C329 177 281 130 236 130 L152 130 L196 377 L272 377 C323 377 356 332 346 274 L339 233 L339 233 Z " />
<glyph glyph-name="afii10019" unicode="&#x412;" horiz-adv-x="406" d="M367 492 C408 523 437 572 447 628 L450 642 C465 734 414 809 338 809 L195 809 L190 779 L184 745 L143 511 L132 449 L64 64 L53 0 L116 0 L209 0 C294 0 377 74 393 166 L425 346 C436 409 411 464 367 492 L367 492 Z M247 745 L327 745 C369 745 397 697 387 638 L385 625 C374 569 331 523 289 523 L208 523 L247 745 Z M330 166 C320 109 270 64 220 64 L127 64 L195 449 L288 449 C338 449 371 402 362 346 L330 166 Z " />
<glyph glyph-name="afii10020" unicode="&#x413;" horiz-adv-x="456" d="M548 808 L209 808 L64 -12 L127 -12 L261 744 L537 744 L548 808 L548 808 Z " />
<glyph glyph-name="afii10021" unicode="&#x414;" horiz-adv-x="769" d="M790 806 L400 806 L394 775 C352 535 233 180 111 180 L80 180 L49 0 L112 0 L132 118 L656 118 L636 0 L700 0 L731 180 L679 180 L790 806 L790 806 Z M350 395 C397 512 432 649 451 744 L717 744 L617 180 L225 180 C270 227 311 299 350 395 L350 395 Z " />
<glyph glyph-name="afii10022" unicode="&#x415;" horiz-adv-x="359" d="M53 0 L310 0 L320 62 L126 62 L175 338 L306 338 L317 401 L186 401 L247 745 L441 745 L452 809 L195 809 L53 0 Z " />
<glyph glyph-name="afii10024" unicode="&#x416;" horiz-adv-x="779" d="M625 514 L868 808 L792 808 L519 473 L578 808 L514 808 L455 473 L299 808 L224 808 L362 514 L77 0 L152 0 L396 451 L435 359 L372 0 L436 0 L499 359 L570 451 L655 0 L731 0 L625 514 L625 514 Z " />
<glyph glyph-name="afii10025" unicode="&#x417;" horiz-adv-x="431" d="M347 805 L208 805 L197 742 L336 742 C382 742 412 695 402 638 L384 538 C374 481 328 434 282 434 L191 434 L191 433 L180 371 L180 370 L271 370 C317 370 346 323 336 266 L319 166 C309 109 262 61 216 61 L77 61 L66 -1 L205 -1 C286 -1 365 73 382 166 L399 266 C409 322 394 372 362 402 C405 432 437 481 447 538 L465 638 C481 731 428 805 347 805 L347 805 Z " />
<glyph glyph-name="afii10026" unicode="&#x418;" horiz-adv-x="454" d="M202 809 L60 0 L112 0 L70 14 L109 1 L112 0 L131 0 L473 649 L359 0 L422 0 L564 809 L502 809 L490 809 L151 168 L264 809 L202 809 Z " />
<glyph glyph-name="afii10027" unicode="&#x419;" horiz-adv-x="418" d="M371 853 C327 853 297 899 307 956 L243 956 C227 863 280 789 360 789 C442 789 521 863 537 956 L473 956 C463 899 417 853 371 853 L371 853 Z M169 248 L429 740 L501 740 L383 70 L319 70 L408 574 L141 70 L74 70 L74 70 L192 740 L256 740 L169 248 L169 248 Z " />
<glyph glyph-name="afii10028" unicode="&#x41a;" horiz-adv-x="458" d="M556 808 L480 808 L207 473 L266 808 L202 808 L60 0 L124 0 L187 359 L258 451 L343 0 L419 0 L313 514 L556 808 Z " />
<glyph glyph-name="afii10029" unicode="&#x41b;" horiz-adv-x="601" d="M324 753 L293 753 L206 257 C194 189 147 131 103 131 L72 131 L61 69 L92 69 C172 69 250 153 269 257 L345 689 L541 689 L431 68 L495 68 L616 753 L356 753 L324 753 L324 753 Z " />
<glyph glyph-name="afii10030" unicode="&#x41c;" horiz-adv-x="502" d="M599 809 L533 809 L317 365 L257 809 L191 809 L191 804 L50 0 L114 0 L219 601 L265 259 L269 234 L319 234 L332 259 L502 610 L395 0 L458 0 L600 806 L598 806 L599 809 Z " />
<glyph glyph-name="afii10031" unicode="&#x41d;" horiz-adv-x="430" d="M377 401 L174 401 L246 809 L183 809 L41 0 L104 0 L163 338 L366 338 L307 0 L371 0 L513 809 L449 809 L377 401 Z " />
<glyph glyph-name="afii10032" unicode="&#x41e;" horiz-adv-x="438" d="M370 808 L362 808 C269 808 182 733 166 641 L82 167 C66 74 127 0 220 0 L228 0 C320 0 408 74 424 167 L508 641 C524 733 462 808 370 808 L370 808 Z M361 167 C351 109 296 62 238 62 L230 62 C172 62 135 109 145 167 L229 641 C239 698 293 744 351 744 L359 744 C417 744 455 698 445 641 L361 167 Z " />
<glyph glyph-name="afii10033" unicode="&#x41f;" horiz-adv-x="502" d="M249 806 L218 806 L185 806 L43 0 L107 0 L238 744 L502 744 L370 -1 L433 -1 L576 806 L249 806 Z " />
<glyph glyph-name="afii10034" unicode="&#x420;" horiz-adv-x="415" d="M363 809 L195 809 L195 806 L184 745 L116 362 L105 299 L53 1 L116 1 L168 299 L273 299 C359 299 442 373 458 464 L490 643 C506 734 449 809 363 809 L363 809 Z M394 464 C384 408 335 362 284 362 L179 362 L247 745 L352 745 C403 745 436 700 426 643 L394 464 Z " />
<glyph glyph-name="afii10035" unicode="&#x421;" horiz-adv-x="437" d="M346 745 L354 745 C382 745 405 734 421 714 C431 701 438 684 440 666 L504 683 C501 712 490 737 474 758 C449 791 410 808 365 808 L357 808 C264 808 176 731 160 636 L78 173 C61 78 122 0 215 0 L223 0 C294 0 364 47 400 114 L343 136 C322 92 277 64 234 64 L226 64 C168 64 131 113 142 173 L224 636 C234 696 288 745 346 745 L346 745 Z " />
<glyph glyph-name="afii10036" unicode="&#x422;" horiz-adv-x="406" d="M179 745 L300 745 L169 1 L232 1 L363 745 L483 745 L494 809 L190 809 L179 745 Z " />
<glyph glyph-name="afii10037" unicode="&#x423;" horiz-adv-x="418" d="M401 618 L334 238 C325 182 277 134 232 134 C187 134 158 182 167 238 L241 653 L177 653 L103 238 C87 146 140 71 221 71 C252 71 283 82 310 101 L305 71 C295 12 247 -38 202 -38 C180 -38 167 -27 157 -18 L106 -64 C128 -88 158 -102 191 -102 C272 -102 351 -24 368 71 L397 238 L464 618 L471 653 L408 653 L401 618 Z " />
<glyph glyph-name="afii10038" unicode="&#x424;" horiz-adv-x="438" d="M395 805 L405 858 L342 858 L332 805 C251 792 180 724 166 641 L82 167 C67 84 114 16 191 2 L173 -97 L236 -97 L254 2 C336 14 409 83 424 167 L508 641 C522 724 473 793 395 805 L395 805 Z M145 167 L229 641 C237 689 276 727 321 740 L202 66 C161 79 136 119 145 167 L145 167 Z M361 167 C352 119 312 78 265 66 L384 740 C427 730 453 689 445 641 L361 167 Z " />
<glyph glyph-name="afii10039" unicode="&#x425;" horiz-adv-x="467" d="M482 809 L311 480 L257 809 L190 809 L261 383 L62 0 L130 0 L277 286 L325 0 L392 0 L327 383 L549 809 L482 809 Z " />
<glyph glyph-name="afii10040" unicode="&#x426;" horiz-adv-x="635" d="M590 804 L527 804 L396 60 L371 60 L122 60 L253 804 L190 804 L48 -2 L360 -2 L448 -2 L502 -2 L482 -115 L545 -115 L576 60 L459 60 L590 804 L590 804 Z " />
<glyph glyph-name="afii10041" unicode="&#x427;" horiz-adv-x="475" d="M502 782 L436 406 C426 349 371 302 315 302 L268 302 C211 302 173 349 183 406 L253 805 L190 805 L120 406 C104 314 166 239 257 239 L304 239 C342 239 380 253 413 276 L364 -2 L426 -2 L498 406 L564 782 L569 808 L507 808 L502 782 L502 782 Z " />
<glyph glyph-name="afii10042" unicode="&#x428;" horiz-adv-x="607" d="M506 60 L352 60 L484 806 L420 806 L288 60 L134 60 L265 804 L202 804 L60 -2 L558 -2 L700 804 L637 804 L506 60 L506 60 Z " />
<glyph glyph-name="afii10043" unicode="&#x429;" horiz-adv-x="730" d="M689 804 L626 804 L495 60 L491 60 L341 60 L473 806 L410 806 L278 60 L123 60 L254 804 L191 804 L49 -2 L480 -2 L547 -2 L595 -2 L575 -115 L638 -115 L669 60 L558 60 L689 804 L689 804 Z " />
<glyph glyph-name="afii10044" unicode="&#x42a;" horiz-adv-x="515" d="M372 468 L297 468 L357 809 L191 809 L180 745 L283 745 L151 -2 L183 -2 L183 -4 L298 -4 C378 -4 457 71 473 162 L498 301 C514 394 459 468 372 468 L372 468 Z M411 162 C401 107 354 59 309 59 L225 59 L286 404 L361 404 C413 404 446 359 436 301 L411 162 L411 162 Z " />
<glyph glyph-name="afii10045" unicode="&#x42b;" horiz-adv-x="540" d="M289 456 L213 456 L275 806 L213 806 L71 0 L102 0 L133 0 L217 0 C298 0 377 74 393 167 L414 289 C431 382 374 456 289 456 L289 456 Z M330 167 C325 138 311 112 291 91 C271 73 250 64 228 64 L144 64 L202 392 L278 392 C328 392 362 347 351 289 L330 167 L330 167 Z M398 0 L462 0 L604 808 L540 808 L398 0 Z " />
<glyph glyph-name="afii10046" unicode="&#x42c;" horiz-adv-x="422" d="M289 456 L213 456 L275 806 L213 806 L71 0 L102 0 L133 0 L217 0 C298 0 377 74 393 167 L414 289 C431 382 374 456 289 456 L289 456 Z M330 167 C325 138 311 112 291 91 C271 73 250 64 228 64 L144 64 L202 392 L278 392 C328 392 362 347 351 289 L330 167 L330 167 Z " />
<glyph glyph-name="afii10047" unicode="&#x42d;" horiz-adv-x="497" d="M480 593 L469 529 L451 427 L166 427 L155 364 L440 364 L426 289 L412 209 C398 127 330 60 263 60 C195 60 153 127 167 209 L103 209 C83 92 149 -2 252 -2 C354 -2 454 92 474 209 L488 289 L531 529 L542 593 C563 710 496 805 394 805 C291 805 192 710 171 593 L235 593 C250 676 315 742 383 742 C450 742 495 676 480 593 L480 593 Z " />
<glyph glyph-name="afii10048" unicode="&#x42e;" horiz-adv-x="596" d="M513 805 C431 805 354 731 338 640 L301 430 L187 430 L254 806 L191 806 L49 4 L112 4 L176 367 L290 367 L254 162 C238 71 289 -4 371 -4 C451 -4 530 71 546 162 L630 640 C646 731 593 805 513 805 L513 805 Z M484 162 C474 107 428 59 382 59 C336 59 306 107 316 162 L400 640 C410 695 457 743 503 743 C549 743 578 695 568 640 L484 162 L484 162 Z " />
<glyph glyph-name="afii10049" unicode="&#x42f;" horiz-adv-x="425" d="M179 330 C132 300 97 252 87 197 L52 -1 L115 -1 L150 197 C160 253 215 300 272 300 L368 300 L316 1 L379 1 L431 300 L443 364 L510 745 L521 808 L458 808 L353 808 C267 808 184 734 168 643 L137 466 C127 409 145 360 179 330 L179 330 Z M275 364 C224 364 191 409 201 466 L232 643 C242 700 291 745 342 745 L447 745 L380 364 L275 364 Z " />
<glyph glyph-name="afii10065" unicode="&#x430;" horiz-adv-x="420" d="M306 740 L62 70 L126 70 L197 262 L316 262 L318 70 L382 70 L376 740 L306 740 L306 740 Z M220 326 L313 582 L316 326 L220 326 L220 326 Z " />
<glyph glyph-name="afii10066" unicode="&#x431;" horiz-adv-x="418" d="M322 678 C372 678 405 629 395 568 L458 568 C475 664 418 742 333 742 C248 742 165 664 148 568 L102 311 L91 247 L91 244 C74 148 130 71 215 71 C300 71 384 148 401 244 L401 244 C401 245 401 246 401 247 L412 311 C428 402 372 477 287 477 C252 477 218 465 190 444 L212 568 C222 629 271 678 322 678 L322 678 Z M275 414 C325 414 359 367 349 311 L338 247 C328 190 278 143 228 143 C177 143 145 190 155 247 L166 311 C176 367 224 414 275 414 L275 414 Z " />
<glyph glyph-name="afii10067" unicode="&#x432;" horiz-adv-x="361" d="M329 476 C362 503 388 548 396 594 C411 675 368 740 302 740 L182 740 L180 740 L62 70 L62 70 L193 70 C265 70 335 132 348 209 L374 354 C383 406 365 452 329 476 L329 476 Z M233 675 L291 675 C322 675 341 639 333 594 C325 549 289 506 259 506 L203 506 L233 675 L233 675 Z M286 209 C279 167 241 132 204 132 L137 132 L189 431 L256 431 C293 431 319 396 312 354 L286 209 L286 209 Z " />
<glyph glyph-name="afii10068" unicode="&#x433;" horiz-adv-x="365" d="M405 640 L161 640 L61 70 L124 70 L213 578 L394 578 L405 640 L405 640 Z " />
<glyph glyph-name="afii10069" unicode="&#x434;" horiz-adv-x="667" d="M681 702 L346 702 L341 671 C331 616 303 495 259 388 C231 321 176 209 116 209 L85 209 L61 70 L124 70 L137 146 L563 146 L550 70 L613 70 L637 209 L594 209 L681 702 L681 702 Z M317 374 C357 468 384 574 398 639 L608 639 L532 209 L223 209 C257 246 289 302 317 374 L317 374 Z " />
<glyph glyph-name="afii10070" unicode="&#x435;" horiz-adv-x="319" d="M67 70 L284 70 L295 132 L142 132 L178 340 L275 340 L286 402 L189 402 L238 676 L391 676 L402 740 L185 740 L67 70 L67 70 Z " />
<glyph glyph-name="afii10072" unicode="&#x436;" horiz-adv-x="704" d="M764 653 L687 653 L453 417 L534 876 L471 876 L390 417 L240 653 L163 653 L280 455 L67 71 L139 71 L318 400 L372 312 L329 70 L392 70 L435 312 L519 400 L582 71 L654 71 L577 455 L764 653 L764 653 Z " />
<glyph glyph-name="afii10073" unicode="&#x437;" horiz-adv-x="403" d="M443 514 C459 605 406 680 325 680 L174 680 L163 616 L314 616 C360 616 390 570 380 514 C370 458 324 412 278 412 L163 412 L163 412 L152 350 L152 348 L267 348 C313 348 343 302 333 245 L331 236 C321 179 275 131 229 131 L78 131 L67 69 L218 69 C299 69 378 143 394 236 L396 245 C405 300 390 350 359 381 C401 411 433 459 443 514 L443 514 Z " />
<glyph glyph-name="afii10074" unicode="&#x438;" horiz-adv-x="431" d="M169 248 L256 740 L192 740 L74 70 L74 70 L141 70 L408 574 L319 70 L383 70 L501 740 L429 740 L169 248 L169 248 Z " />
<glyph glyph-name="afii10075" unicode="&#x439;" horiz-adv-x="407" d="M169 248 L429 740 L501 740 L383 70 L319 70 L408 574 L141 70 L74 70 L74 70 L192 740 L256 740 L169 248 L169 248 Z M366 831 C322 831 292 877 302 934 L238 934 C222 841 275 767 355 767 C437 767 516 841 532 934 L468 934 C458 877 412 831 366 831 L366 831 Z " />
<glyph glyph-name="afii10076" unicode="&#x43a;" horiz-adv-x="443" d="M454 740 L202 432 L256 740 L192 740 L74 70 L138 70 L182 318 L264 412 L335 70 L396 70 L312 477 L528 740 L454 740 L454 740 Z " />
<glyph glyph-name="afii10077" unicode="&#x43b;" horiz-adv-x="610" d="M305 645 L274 645 L206 257 C194 189 147 131 103 131 L72 131 L61 69 L92 69 C172 69 250 153 269 257 L326 581 L570 581 L479 68 L543 68 L645 645 L337 645 L305 645 L305 645 Z " />
<glyph glyph-name="afii10078" unicode="&#x43c;" horiz-adv-x="452" d="M460 740 L293 396 L248 740 L182 740 L180 740 L62 70 L126 70 L209 540 L245 266 L296 266 L433 546 L349 70 L412 70 L530 740 L460 740 Z " />
<glyph glyph-name="afii10079" unicode="&#x43d;" horiz-adv-x="376" d="M336 404 L186 404 L245 740 L182 740 L64 70 L127 70 L175 341 L325 341 L277 70 L340 70 L458 740 L395 740 L336 404 L336 404 Z " />
<glyph glyph-name="afii10080" unicode="&#x43e;" horiz-adv-x="398" d="M323 740 C244 740 167 665 151 574 L91 237 C75 144 126 70 205 70 C284 70 361 144 377 237 L437 574 C453 665 402 740 323 740 L323 740 Z M315 237 C305 180 259 134 216 134 C173 134 145 180 155 237 L215 574 C224 629 269 677 312 677 C355 677 384 629 375 574 L315 237 L315 237 Z " />
<glyph glyph-name="afii10081" unicode="&#x43f;" horiz-adv-x="440" d="M512 737 L167 737 L53 69 L116 69 L223 675 L438 675 L331 69 L395 69 L512 737 Z " />
<glyph glyph-name="afii10082" unicode="&#x440;" horiz-adv-x="383" d="M326 740 L182 740 L119 380 L107 316 L64 70 L127 70 L170 316 L251 316 C324 316 394 378 408 454 L434 603 C447 678 399 740 326 740 L326 740 Z M345 454 C337 412 301 380 263 380 L182 380 L234 677 L315 677 C353 677 378 644 371 603 L345 454 L345 454 Z " />
<glyph glyph-name="afii10083" unicode="&#x441;" horiz-adv-x="383" d="M321 676 L328 676 C347 676 364 668 377 653 C384 644 389 630 390 617 L453 634 C452 658 443 680 429 696 C408 724 376 740 339 740 L332 740 C255 740 181 675 166 594 L99 214 C85 135 137 70 214 70 L221 70 C280 70 338 108 369 166 L312 186 C296 154 263 134 232 134 L225 134 C183 134 155 170 163 214 L230 594 C238 640 279 676 321 676 L321 676 Z " />
<glyph glyph-name="afii10084" unicode="&#x442;" horiz-adv-x="352" d="M169 676 L267 676 L160 70 L222 70 L329 676 L425 676 L436 740 L180 740 L169 676 L169 676 Z " />
<glyph glyph-name="afii10085" unicode="&#x443;" horiz-adv-x="415" d="M295 446 L258 740 L192 740 L244 330 L198 70 L262 70 L308 332 L498 740 L434 740 L295 446 L295 446 Z " />
<glyph glyph-name="afii10086" unicode="&#x444;" horiz-adv-x="620" d="M541 630 C511 630 481 620 455 603 L506 891 L443 891 L391 596 C368 617 340 630 307 630 C226 630 147 556 130 464 L92 246 C76 154 129 80 210 80 C243 80 276 93 306 114 L268 -99 L331 -99 L367 107 C387 89 414 80 444 80 C524 80 603 154 619 246 L657 464 C674 556 621 630 541 630 L541 630 Z M323 246 C313 190 266 143 221 143 C175 143 145 190 155 246 L193 464 C203 520 249 567 295 567 C340 567 371 520 361 464 L323 246 L323 246 Z M555 246 C545 190 499 143 455 143 C416 143 389 174 387 218 L435 492 C453 536 490 567 529 567 C573 567 603 520 593 464 L555 246 L555 246 Z " />
<glyph glyph-name="afii10087" unicode="&#x445;" horiz-adv-x="418" d="M428 740 L291 476 L248 740 L180 740 L240 378 L80 70 L146 70 L257 281 L292 70 L359 70 L306 378 L494 740 L428 740 L428 740 Z " />
<glyph glyph-name="afii10088" unicode="&#x446;" horiz-adv-x="551" d="M512 648 L449 648 L357 130 L341 130 L134 130 L226 648 L163 648 L60 68 L330 68 L409 68 L445 68 L426 -45 L489 -45 L519 130 L420 130 L512 648 L512 648 Z " />
<glyph glyph-name="afii10089" unicode="&#x447;" horiz-adv-x="442" d="M442 650 L395 381 C385 324 330 278 272 278 L264 278 C207 278 169 324 179 381 L233 688 L170 688 L116 381 C100 290 161 215 252 215 L260 215 C300 215 339 228 372 251 L339 68 L401 68 L457 381 L504 650 L509 675 L447 675 L442 650 L442 650 Z " />
<glyph glyph-name="afii10090" unicode="&#x448;" horiz-adv-x="620" d="M506 130 L352 130 L444 652 L380 652 L288 130 L134 130 L226 650 L163 650 L60 68 L558 68 L661 650 L598 650 L506 130 L506 130 Z " />
<glyph glyph-name="afii10091" unicode="&#x449;" horiz-adv-x="683" d="M661 650 L598 650 L506 130 L497 130 L352 130 L444 652 L380 652 L288 130 L134 130 L226 650 L163 650 L60 68 L486 68 L558 68 L601 68 L582 -45 L646 -45 L676 130 L569 130 L661 650 L661 650 Z " />
<glyph glyph-name="afii10092" unicode="&#x44a;" horiz-adv-x="520" d="M361 408 L286 408 L339 705 L173 705 L162 641 L265 641 L163 68 L195 68 L195 66 L310 66 C390 66 469 141 485 232 L487 242 C503 333 448 408 361 408 L361 408 Z M423 232 C414 177 366 129 321 129 L237 129 L275 345 L350 345 C402 345 435 298 425 242 L423 232 L423 232 Z " />
<glyph glyph-name="afii10093" unicode="&#x44b;" horiz-adv-x="497" d="M269 478 L193 478 L225 660 L163 660 L59 70 L90 70 L121 70 L205 70 C286 70 365 144 381 237 L394 311 C411 404 354 478 269 478 L269 478 Z M318 237 C313 208 300 182 279 161 C260 143 238 134 216 134 L132 134 L181 414 L257 414 C307 414 342 369 331 311 L318 237 Z M386 70 L450 70 L554 662 L490 662 L386 70 Z " />
<glyph glyph-name="afii10094" unicode="&#x44c;" horiz-adv-x="402" d="M288 468 L212 468 L273 811 L209 809 L66 -5 L97 -5 L96 -7 L212 -7 C293 -7 372 68 389 160 L414 301 C430 394 374 468 288 468 L288 468 Z M326 160 C316 103 268 56 223 56 L139 56 L201 406 L277 406 C328 406 361 359 351 301 L326 160 L326 160 Z " />
<glyph glyph-name="afii10095" unicode="&#x44d;" horiz-adv-x="428" d="M393 536 L381 468 L370 408 L165 408 L155 346 L360 346 L351 298 L340 233 C330 178 282 130 237 130 C191 130 162 178 172 233 L108 233 C92 142 144 68 226 68 C306 68 386 142 402 233 L413 298 L443 468 L455 536 C471 627 418 701 338 701 C256 701 177 627 161 536 L225 536 C235 591 281 639 327 639 C372 639 403 591 393 536 L393 536 Z " />
<glyph glyph-name="afii10096" unicode="&#x44e;" horiz-adv-x="546" d="M473 688 C396 688 320 614 303 521 L284 410 L184 410 L234 693 L171 693 L62 74 L125 74 L173 347 L273 347 L254 242 C238 149 288 75 365 75 C441 75 517 149 533 242 L582 521 C599 614 549 688 473 688 L473 688 Z M469 242 C459 185 416 138 376 138 C335 138 308 185 318 242 L367 521 C377 578 421 624 462 624 C502 624 528 578 518 521 L469 242 L469 242 Z " />
<glyph glyph-name="afii10097" unicode="&#x44f;" horiz-adv-x="383" d="M166 333 C128 303 97 255 88 202 L65 70 L128 70 L151 202 C161 258 206 305 250 305 L319 305 L278 70 L341 70 L459 740 L316 740 C244 740 173 676 159 599 L132 446 C124 400 139 359 166 333 L166 333 Z M251 369 C214 369 189 404 196 446 L223 599 C231 642 268 676 305 676 L385 676 L331 369 L251 369 Z " />
<glyph glyph-name="afii10071" unicode="&#x451;" horiz-adv-x="316" d="M329 784 L387 784 L398 844 L340 844 L329 784 L329 784 Z M235 784 L294 784 L305 844 L246 844 L235 784 L235 784 Z M67 70 L284 70 L295 132 L142 132 L178 340 L275 340 L286 402 L189 402 L238 676 L391 676 L402 740 L185 740 L67 70 L67 70 Z " />
<glyph glyph-name="afii10099" unicode="&#x452;" horiz-adv-x="472" d="M381 568 C350 568 319 556 291 538 L312 656 L450 656 L461 720 L323 720 L336 793 L272 793 L259 720 L193 720 L182 656 L248 656 L203 401 L137 24 L132 -1 L196 -1 L201 24 L267 401 C277 457 323 504 369 504 C413 504 444 457 434 401 L371 40 C360 -18 310 -65 257 -65 L246 -127 C333 -127 417 -53 434 40 L497 401 C513 492 461 568 381 568 L381 568 Z " />
<glyph glyph-name="afii10100" unicode="&#x453;" horiz-adv-x="319" d="M434 739 L171 739 L170 737 L160 677 L53 70 L115 70 L222 677 L423 677 L434 739 L434 739 Z M288 784 L330 784 L372 873 L320 873 L288 784 L288 784 Z " />
<glyph glyph-name="afii10101" unicode="&#x454;" horiz-adv-x="386" d="M133 514 C123 459 139 411 171 381 C128 350 95 300 86 245 L84 236 C68 143 121 69 202 69 L353 69 L364 131 L213 131 C167 131 137 179 147 236 L149 245 C159 302 205 348 251 348 L366 348 L366 350 L377 412 L377 412 L262 412 C216 412 186 458 196 514 C206 570 252 616 298 616 L449 616 L460 680 L309 680 C228 680 149 605 133 514 L133 514 Z " />
<glyph glyph-name="afii10102" unicode="&#x455;" horiz-adv-x="390" d="M289 431 C244 482 206 528 219 600 C227 644 268 676 312 676 C355 676 383 639 375 593 L439 593 C453 674 401 740 323 740 C244 740 171 680 156 602 C137 501 191 438 237 384 C284 333 324 287 308 212 C296 148 251 134 216 134 C173 134 145 171 153 218 L90 218 C75 136 127 70 205 70 C289 70 354 125 372 210 C392 315 337 377 289 431 L289 431 Z " />
<glyph glyph-name="afii10103" unicode="&#x456;" horiz-adv-x="153" d="M56 70 L120 70 L238 740 L174 740 L56 70 L56 70 Z " />
<glyph glyph-name="afii10104" unicode="&#x457;" horiz-adv-x="220" d="M71 675 L210 675 L103 72 L166 72 L284 738 L82 738 L71 675 L71 675 Z M226 792 L284 792 L295 852 L237 852 L226 792 L226 792 Z M132 792 L191 792 L202 852 L143 852 L132 792 L132 792 Z " />
<glyph glyph-name="afii10105" unicode="&#x458;" horiz-adv-x="227" d="M216 723 L279 723 L291 790 L228 790 L216 723 Z M101 72 C91 12 43 -37 -1 -37 C-23 -37 -38 -26 -45 -16 L-98 -70 C-76 -94 -45 -100 -12 -100 C68 -100 148 -22 164 72 L267 653 L204 653 L101 72 Z " />
<glyph glyph-name="afii10106" unicode="&#x459;" horiz-adv-x="718" d="M591 538 L507 538 L536 699 L351 698 L260 186 C254 148 225 131 199 131 C187 131 175 136 170 143 C162 153 159 167 162 186 L99 186 C91 141 104 113 118 99 C133 78 159 68 187 68 C243 68 309 110 322 186 L401 635 L460 635 L360 68 L393 68 L393 66 L508 66 C588 66 667 141 684 233 L708 371 C724 464 671 538 591 538 L591 538 Z M622 233 C612 177 564 130 519 130 L435 130 L496 476 L580 476 C625 476 656 428 646 371 L622 233 L622 233 Z " />
<glyph glyph-name="afii10107" unicode="&#x45a;" horiz-adv-x="704" d="M590 538 L526 538 L553 687 L489 687 L462 538 L384 538 L411 688 L349 688 L260 186 C254 148 225 131 199 131 C187 131 175 136 170 143 C162 153 159 167 162 186 L99 186 C91 141 104 113 118 98 C133 78 159 68 187 68 C243 68 309 110 322 186 L373 476 L451 476 L379 68 L411 68 L411 66 L527 66 C607 66 686 141 703 233 L727 371 C743 464 682 538 590 538 L590 538 Z M640 233 C630 177 582 130 538 130 L454 130 L515 476 L579 476 C636 476 674 429 664 371 L640 233 L640 233 Z " />
<glyph glyph-name="afii10108" unicode="&#x45b;" horiz-adv-x="470" d="M369 568 C338 568 307 556 279 538 L302 668 L440 668 L452 732 L314 732 L326 805 L262 805 L250 732 L184 732 L172 668 L238 668 L191 401 L124 22 L120 -4 L184 -4 L188 22 L255 401 C265 457 311 504 357 504 C401 504 432 457 422 401 L352 0 L415 0 L485 401 C501 492 449 568 369 568 L369 568 Z " />
<glyph glyph-name="afii10109" unicode="&#x45c;" horiz-adv-x="414" d="M292 684 L334 684 L376 773 L324 773 L292 684 L292 684 Z M454 740 L202 432 L256 740 L192 740 L74 70 L138 70 L182 318 L264 412 L335 70 L396 70 L312 477 L528 740 L454 740 L454 740 Z " />
<glyph glyph-name="afii10110" unicode="&#x45e;" horiz-adv-x="371" d="M267 449 L230 743 L164 743 L216 333 L170 73 L234 73 L280 335 L470 743 L406 743 L267 449 L267 449 Z M337 833 C293 833 263 879 273 936 L209 936 C193 843 246 769 326 769 C408 769 487 843 503 936 L439 936 C429 879 383 833 337 833 L337 833 Z " />
<glyph glyph-name="afii10193" unicode="&#x45f;" horiz-adv-x="547" d="M469 306 L183 306 L250 683 L187 683 L109 243 L283 243 L253 69 L317 69 L347 243 L522 243 L601 690 L537 690 L469 306 L469 306 Z " />
<glyph glyph-name="afii10050" unicode="&#x490;" horiz-adv-x="488" d="M502 728 L195 728 L66 -2 L129 -2 L247 666 L554 666 L579 806 L516 806 L502 728 L502 728 Z " />
<glyph glyph-name="afii10098" unicode="&#x491;" horiz-adv-x="481" d="M493 676 L186 676 L77 58 L140 58 L237 612 L544 612 L569 753 L506 753 L493 676 L493 676 Z " />
<glyph glyph-name="endash" unicode="&#x2013;" horiz-adv-x="454" d="M97 371 L483 371 L494 433 L108 433 L97 371 Z " />
<glyph glyph-name="emdash" unicode="&#x2014;" horiz-adv-x="643" d="M102 376 L679 376 L690 439 L113 439 L102 376 Z " />
<glyph glyph-name="afii00208" unicode="&#x2015;" horiz-adv-x="643" d="M102 376 L679 376 L690 439 L113 439 L102 376 Z " />
<glyph glyph-name="quoteleft" unicode="&#x2018;" horiz-adv-x="154" d="M182 764 L173 709 L232 709 L241 764 L214 764 L214 764 C219 790 236 788 236 788 L240 809 C189 809 182 764 182 764 L182 764 Z " />
<glyph glyph-name="quoteright" unicode="&#x2019;" horiz-adv-x="148" d="M184 730 L181 709 C233 709 239 754 239 754 L249 809 L190 809 L180 754 L206 754 L206 754 C202 728 184 730 184 730 L184 730 Z " />
<glyph glyph-name="quotesinglbase" unicode="&#x201a;" horiz-adv-x="152" d="M116 55 L57 55 L48 0 L74 0 L74 0 C69 -26 51 -24 51 -24 L48 -44 C100 -44 107 0 107 0 L116 55 Z " />
<glyph glyph-name="quotedblleft" unicode="&#x201c;" horiz-adv-x="238" d="M260 764 L251 709 L310 709 L319 764 L292 764 L292 764 C297 790 313 788 313 788 L317 809 C267 809 260 764 260 764 L260 764 Z M182 764 L173 709 L232 709 L241 764 L214 764 L214 764 C219 790 236 788 236 788 L240 809 C189 809 182 764 182 764 L182 764 Z " />
<glyph glyph-name="quotedblright" unicode="&#x201d;" horiz-adv-x="223" d="M249 809 L190 809 L180 754 L206 754 L206 754 C202 728 184 730 184 730 L181 709 C233 709 239 754 239 754 L249 809 L249 809 Z M262 730 L259 709 C311 709 317 754 317 754 L327 809 L268 809 L258 754 L284 754 L284 754 C280 728 262 730 262 730 L262 730 Z " />
<glyph glyph-name="quotedblbase" unicode="&#x201e;" horiz-adv-x="229" d="M209 125 L150 125 L140 70 L166 70 L166 70 C161 44 145 46 145 46 L141 26 C191 26 199 70 199 70 L209 125 L209 125 Z M129 125 L70 125 L60 70 L86 70 L86 70 C81 44 64 46 64 46 L60 26 C112 26 119 70 119 70 L129 125 L129 125 Z " />
<glyph glyph-name="dagger" unicode="&#x2020;" horiz-adv-x="396" d="M376 805 L314 805 L281 617 L144 617 L133 554 L270 554 L173 0 L235 0 L332 554 L457 554 L468 617 L343 617 L376 805 L376 805 Z " />
<glyph glyph-name="daggerdbl" unicode="&#x2021;" horiz-adv-x="398" d="M376 805 L314 805 L281 617 L144 617 L133 554 L270 554 L245 409 L108 409 L97 346 L234 346 L173 0 L235 0 L296 346 L421 346 L432 409 L307 409 L332 554 L457 554 L468 617 L343 617 L376 805 L376 805 Z " />
<glyph glyph-name="bullet" unicode="&#x2022;" horiz-adv-x="169" d="M164 457 C145 457 126 442 123 422 C120 403 133 388 152 388 C171 388 190 403 193 422 C196 442 183 457 164 457 L164 457 Z " />
<glyph glyph-name="onedotenleader" unicode="&#x2024;" horiz-adv-x="142" d="M36 -1 L95 -1 L106 58 L47 58 L36 -1 L36 -1 Z " />
<glyph glyph-name="twodotenleader" unicode="&#x2025;" horiz-adv-x="283" d="M36 -1 L95 -1 L106 58 L47 58 L36 -1 L36 -1 Z M178 -1 L237 -1 L248 58 L189 58 L178 -1 L178 -1 Z " />
<glyph glyph-name="ellipsis" unicode="&#x2026;" horiz-adv-x="349" d="M60 69 L119 69 L129 129 L70 129 L60 69 L60 69 Z M157 69 L216 69 L226 129 L167 129 L157 69 L157 69 Z M253 69 L312 69 L322 129 L263 129 L253 69 L253 69 Z " />
<glyph glyph-name="perthousand" unicode="&#x2030;" horiz-adv-x="1171" d="M423 528 L440 624 C456 715 403 790 321 790 C241 790 162 715 146 624 L129 528 C113 437 165 361 245 361 C327 361 407 437 423 528 L423 528 Z M359 528 C349 472 302 425 256 425 C212 425 183 472 193 528 L210 624 C219 679 266 727 310 727 C356 727 385 679 376 624 L359 528 L359 528 Z M700 443 C619 443 539 368 523 276 L506 181 C490 89 543 14 624 14 C705 14 784 89 800 181 L817 276 C833 368 781 443 700 443 L700 443 Z M737 181 C728 125 680 77 635 77 C589 77 560 125 569 181 L586 276 C596 332 642 379 688 379 C733 379 764 332 754 276 L737 181 L737 181 Z M1042 443 C961 443 881 368 865 276 L848 181 C832 89 885 14 966 14 C1047 14 1126 89 1142 181 L1159 276 C1175 368 1123 443 1042 443 L1042 443 Z M1079 181 C1070 125 1022 77 977 77 C931 77 902 125 911 181 L928 276 C938 332 984 379 1030 379 C1075 379 1106 332 1096 276 L1079 181 L1079 181 Z M671 805 L246 0 L325 0 L751 805 L671 805 L671 805 Z " />
<glyph glyph-name="guilsinglleft" unicode="&#x2039;" horiz-adv-x="283" d="M285 600 L116 389 L210 173 L270 206 L190 389 L333 566 L285 600 Z " />
<glyph glyph-name="guilsinglright" unicode="&#x203a;" horiz-adv-x="290" d="M147 566 L228 389 L84 206 L132 173 L302 389 L207 600 L147 566 L147 566 Z " />
<glyph glyph-name="fraction" unicode="&#x2044;" horiz-adv-x="454" d="M48 0 L127 0 L551 805 L473 805 L48 0 Z " />
<glyph glyph-name="zerosuperior" unicode="&#x2070;" horiz-adv-x="349" d="M351 918 L317 918 C268 918 221 878 213 830 L167 570 C158 521 191 481 240 481 L274 481 C323 481 369 521 378 570 L424 830 C432 878 400 918 351 918 L351 918 Z M320 570 C317 553 301 540 285 540 L251 540 C234 540 223 553 226 570 L272 830 C275 846 290 859 307 859 L341 859 C357 859 369 846 366 830 L320 570 L320 570 Z " />
<glyph glyph-name="foursuperior" unicode="&#x2074;" horiz-adv-x="336" d="M414 918 L360 918 L176 622 L303 622 L278 480 L337 480 L362 622 L396 622 L406 680 L372 680 L414 918 L414 918 Z M313 680 L277 680 L328 763 L313 680 L313 680 Z " />
<glyph glyph-name="fivesuperior" unicode="&#x2075;" horiz-adv-x="323" d="M343 788 C327 802 305 808 277 804 L287 858 L381 858 L391 917 L238 917 L204 725 L246 739 C271 748 292 749 302 740 C318 727 320 691 311 640 C306 610 291 539 257 539 C246 539 238 547 233 562 C228 572 228 584 231 598 L172 598 C168 575 169 553 176 535 C186 500 212 480 246 480 C282 480 346 500 370 640 C383 714 374 763 343 788 L343 788 Z " />
<glyph glyph-name="sixsuperior" unicode="&#x2076;" horiz-adv-x="306" d="M306 859 C319 859 330 842 326 818 L385 818 C395 874 365 919 317 919 C269 919 221 874 211 818 L188 690 L169 582 L168 575 C164 554 168 535 176 521 C188 497 210 481 239 481 C266 481 295 497 314 521 C329 535 338 554 342 575 L362 690 C371 739 340 779 292 779 C281 779 270 776 262 774 L270 818 C274 842 291 859 306 859 L306 859 Z M281 720 C296 720 306 707 303 690 L284 582 C282 571 279 563 273 556 C266 548 259 545 251 545 C242 545 234 548 231 556 C227 563 226 571 228 582 L247 690 C250 707 265 720 281 720 L281 720 Z " />
<glyph glyph-name="sevensuperior" unicode="&#x2077;" horiz-adv-x="334" d="M228 917 L218 858 L331 858 C287 791 209 654 178 480 L236 480 C276 707 406 871 407 872 L444 917 L228 917 L228 917 Z " />
<glyph glyph-name="eightsuperior" unicode="&#x2078;" horiz-adv-x="334" d="M361 763 C377 780 389 800 393 824 C402 875 371 917 323 917 C275 917 230 875 221 824 C217 800 221 780 231 763 C209 746 194 724 189 697 L167 569 C158 520 191 480 240 480 L252 480 C301 480 348 520 357 569 L379 697 C384 724 376 746 361 763 L361 763 Z M313 858 C327 858 338 842 335 824 C331 805 315 791 301 791 C285 791 275 805 279 824 C282 842 297 858 313 858 L313 858 Z M298 569 C295 552 280 539 263 539 L251 539 C234 539 223 552 226 569 L248 697 C251 714 267 727 284 727 L296 727 C313 727 323 714 320 697 L298 569 L298 569 Z " />
<glyph glyph-name="ninesuperior" unicode="&#x2079;" horiz-adv-x="300" d="M316 917 C316 917 316 917 316 917 C316 917 316 917 316 917 L316 917 C268 917 221 877 213 829 L192 713 C184 664 217 624 265 624 C274 624 284 625 292 629 L284 581 C280 556 263 539 250 539 C235 539 224 556 228 581 L169 581 C159 526 191 480 239 480 C287 480 333 526 343 581 L366 713 L384 816 L387 829 C395 877 364 917 316 917 L316 917 Z M275 683 C259 683 248 696 251 713 L269 816 C274 841 291 858 306 858 C306 858 306 858 306 858 C319 858 330 841 325 816 L307 713 C304 696 290 683 275 683 L275 683 Z " />
<glyph glyph-name="parenleftsuperior" unicode="&#x207d;" horiz-adv-x="164" d="M238 864 C139 706 106 519 149 360 C166 360 175 360 192 360 C150 519 183 706 281 864 C264 864 255 864 238 864 L238 864 Z " />
<glyph glyph-name="parenrightsuperior" unicode="&#x207e;" horiz-adv-x="208" d="M210 864 C252 706 219 519 121 360 C138 360 147 360 164 360 C263 519 296 706 253 864 C236 864 227 864 210 864 L210 864 Z " />
<glyph glyph-name="nsuperior" unicode="&#x207f;" horiz-adv-x="280" d="M272 490 L228 740 L192 740 L132 400 L164 400 L209 655 L255 400 L289 400 L289 400 L349 740 L316 740 L272 490 L272 490 Z " />
<glyph glyph-name="zeroinferior" unicode="&#x2080;" horiz-adv-x="349" d="M242 295 L208 295 C159 295 112 256 103 208 L57 -53 C49 -102 81 -142 130 -142 L164 -142 C213 -142 260 -102 268 -53 L314 208 C323 256 291 295 242 295 L242 295 Z M210 -53 C207 -70 191 -83 175 -83 L141 -83 C124 -83 113 -70 116 -53 L162 208 C165 223 180 236 197 236 L231 236 C247 236 259 223 256 208 L210 -53 L210 -53 Z " />
<glyph glyph-name="oneinferior" unicode="&#x2081;" horiz-adv-x="281" d="M245 296 L165 296 L110 244 L148 205 L173 229 L107 -142 L167 -142 L245 295 L244 295 L245 296 L245 296 Z " />
<glyph glyph-name="twoinferior" unicode="&#x2082;" horiz-adv-x="317" d="M290 185 C300 247 267 295 214 295 C161 295 110 245 98 179 L157 179 C163 212 186 236 203 236 C223 236 235 214 230 185 C221 128 188 96 149 56 C108 14 60 -34 47 -113 L41 -142 L216 -142 L227 -83 L113 -83 C128 -42 155 -13 189 19 C230 61 277 108 290 185 L290 185 Z " />
<glyph glyph-name="threeinferior" unicode="&#x2083;" horiz-adv-x="325" d="M135 295 L124 236 L196 236 L93 121 L151 121 C211 121 207 54 200 13 C189 -49 163 -83 147 -83 C130 -83 115 -59 121 -25 L62 -25 C51 -90 83 -142 136 -142 C184 -142 241 -94 260 13 C276 103 248 151 208 169 L321 295 L135 295 L135 295 Z " />
<glyph glyph-name="fourinferior" unicode="&#x2084;" horiz-adv-x="336" d="M305 296 L251 296 L67 0 L194 0 L168 -142 L227 -142 L253 0 L287 0 L297 59 L263 59 L305 296 L305 296 Z M204 59 L168 59 L219 142 L204 59 L204 59 Z " />
<glyph glyph-name="fiveinferior" unicode="&#x2085;" horiz-adv-x="323" d="M234 167 C217 180 195 186 168 182 L177 236 L271 236 L282 295 L129 295 L95 103 L136 118 C162 126 182 127 192 119 C208 106 211 70 202 18 C196 -12 181 -83 147 -83 C136 -83 128 -74 123 -60 C119 -49 119 -37 121 -24 L62 -24 C58 -47 60 -68 66 -86 C76 -121 102 -142 136 -142 C172 -142 236 -121 261 18 C274 92 265 142 234 167 L234 167 Z " />
<glyph glyph-name="sixinferior" unicode="&#x2086;" horiz-adv-x="306" d="M196 236 C209 236 220 220 216 196 L275 196 C285 251 255 296 207 296 C159 296 111 251 101 196 L78 67 L59 -41 L58 -48 C55 -68 58 -88 67 -102 C78 -126 100 -142 129 -142 C156 -142 185 -126 205 -102 C219 -88 229 -68 232 -48 L252 67 C261 116 230 156 182 156 C171 156 161 154 152 151 L160 196 C164 220 181 236 196 236 L196 236 Z M172 97 C187 97 196 84 193 67 L174 -41 C172 -52 169 -60 163 -67 C156 -74 149 -78 141 -78 C132 -78 124 -74 121 -67 C117 -60 116 -52 118 -41 L137 67 C140 84 156 97 172 97 L172 97 Z " />
<glyph glyph-name="seveninferior" unicode="&#x2087;" horiz-adv-x="334" d="M119 295 L108 236 L221 236 C177 169 99 32 68 -142 L126 -142 C166 85 297 250 298 251 L335 295 L119 295 L119 295 Z " />
<glyph glyph-name="eightinferior" unicode="&#x2088;" horiz-adv-x="334" d="M252 142 C267 158 279 179 283 203 C292 253 262 295 214 295 C166 295 120 253 111 203 C107 179 111 158 122 142 C100 125 84 102 80 76 L57 -53 C49 -102 81 -142 130 -142 L142 -142 C191 -142 239 -102 247 -53 L270 76 C274 102 267 125 252 142 L252 142 Z M203 236 C217 236 228 221 225 203 C222 184 205 169 191 169 C175 169 166 184 169 203 C172 221 187 236 203 236 L203 236 Z M188 -53 C185 -70 170 -83 153 -83 L141 -83 C124 -83 113 -70 116 -53 L139 76 C142 92 157 106 174 106 L186 106 C203 106 214 92 211 76 L188 -53 L188 -53 Z " />
<glyph glyph-name="nineinferior" unicode="&#x2089;" horiz-adv-x="300" d="M207 295 C207 295 207 295 207 295 C207 295 207 295 207 295 L207 295 C159 295 112 256 103 208 L83 91 C74 42 107 2 155 2 C164 2 174 4 183 7 L174 -41 C170 -66 153 -83 140 -83 C125 -83 114 -66 118 -41 L59 -41 C50 -96 81 -142 129 -142 C177 -142 224 -96 233 -41 L257 91 L275 194 L277 208 C286 256 255 295 207 295 L207 295 Z M165 61 C149 61 139 74 142 91 L160 194 C164 220 181 236 196 236 C196 236 196 236 196 236 C209 236 220 220 216 194 L198 91 C195 74 180 61 165 61 L165 61 Z " />
<glyph glyph-name="parenleftinferior" unicode="&#x208d;" horiz-adv-x="184" d="M160 360 C79 229 52 74 87 -56 C101 -56 108 -56 122 -56 C87 74 114 229 195 360 C181 360 174 360 160 360 L160 360 Z " />
<glyph glyph-name="parenrightinferior" unicode="&#x208e;" horiz-adv-x="172" d="M120 360 C155 229 128 74 47 -56 C61 -56 68 -56 83 -56 C164 74 191 229 156 360 C141 360 134 360 120 360 L120 360 Z " />
<glyph glyph-name="colonmonetary" unicode="&#x20a1;" horiz-adv-x="445" d="M9 -60 L65 -60 L449 853 L395 853 L9 -60 L9 -60 Z M117 -60 L173 -60 L557 853 L503 853 L117 -60 Z M347 749 L355 749 C383 749 406 738 422 718 C432 704 439 688 441 670 L504 686 C502 715 491 740 475 762 C450 794 411 811 366 811 L358 811 C265 811 177 734 160 640 L78 173 C61 78 122 0 215 0 L223 0 C294 0 364 47 400 114 L343 136 C322 92 277 64 234 64 L226 64 C168 64 131 113 142 173 L224 640 C235 700 289 749 347 749 L347 749 Z " />
<glyph glyph-name="Euro" unicode="&#x20ac;" horiz-adv-x="484" d="M384 713 L394 713 C451 713 489 666 479 608 L543 608 C559 701 497 775 405 775 L395 775 C304 775 217 701 201 608 L182 503 L136 503 L125 440 L171 440 L153 337 L107 337 L96 275 L142 275 L123 166 C107 74 168 0 259 0 L269 0 C361 0 449 74 465 166 L401 166 C391 109 336 62 279 62 L269 62 C213 62 175 109 185 166 L204 275 L432 275 L443 337 L215 337 L233 440 L461 440 L472 503 L244 503 L263 608 C273 666 328 713 384 713 L384 713 Z " />
<glyph glyph-name="afii61352" unicode="&#x2116;" horiz-adv-x="821" d="M502 809 L389 168 L276 809 L264 809 L202 809 L60 0 L124 0 L238 649 L352 0 L371 0 L373 1 L416 14 L371 0 L422 0 L564 809 L502 809 Z M767 786 C686 786 607 712 591 620 L547 371 C531 280 584 205 665 205 C746 205 825 280 841 371 L885 620 C901 712 848 786 767 786 L767 786 Z M778 371 C768 316 721 268 676 268 C631 268 601 316 611 371 L655 620 C665 676 711 724 756 724 C801 724 832 676 822 620 L778 371 Z M492 95 L819 95 L830 157 L503 157 L492 95 Z " />
<glyph glyph-name="trademark" unicode="&#x2122;" horiz-adv-x="383" d="M167 773 L215 773 L166 498 L202 498 L251 773 L296 773 L302 809 L173 809 L167 773 L167 773 Z M356 809 L356 809 L321 809 L321 809 L321 809 L266 497 L302 497 L336 688 L351 586 L380 586 L432 690 L398 497 L434 497 L489 809 L489 809 L453 809 L378 659 L356 809 Z " />
<glyph glyph-name="onethird" unicode="&#x2153;" horiz-adv-x="568" d="M299 810 L219 810 L164 757 L202 719 L228 743 L162 372 L222 372 L299 809 L298 809 L299 810 Z M430 437 L419 378 L491 378 L388 263 L446 263 C506 263 502 196 495 155 C484 92 458 59 442 59 C425 59 410 83 416 116 L357 116 C346 52 379 0 432 0 C480 0 536 48 555 155 C571 245 543 293 503 311 L616 437 L430 437 Z M73 0 L152 0 L576 805 L498 805 L73 0 Z " />
<glyph glyph-name="twothirds" unicode="&#x2154;" horiz-adv-x="625" d="M466 437 L455 378 L527 378 L424 263 L482 263 C542 263 538 196 531 155 C520 92 494 59 478 59 C461 59 446 83 452 116 L393 116 C382 52 415 0 468 0 C516 0 572 48 591 155 C607 245 579 293 539 311 L652 437 L466 437 Z M344 697 C355 760 321 808 268 808 C215 808 164 757 152 691 L211 691 C217 725 241 749 258 749 C278 749 290 726 284 697 C276 641 243 608 204 569 C162 527 114 479 101 400 L96 371 L271 371 L281 430 L167 430 C182 470 209 499 243 532 C285 574 331 620 344 697 L344 697 Z M108 0 L187 0 L611 805 L533 805 L108 0 Z " />
<glyph glyph-name="oneeighth" unicode="&#x215b;" horiz-adv-x="524" d="M504 283 C520 300 532 320 536 344 C545 395 515 437 467 437 C419 437 373 395 364 344 C360 320 364 300 374 283 C352 266 338 244 333 217 L310 89 C302 40 335 0 384 0 L396 0 C445 0 492 40 500 89 L523 217 C528 244 519 266 504 283 L504 283 Z M456 378 C470 378 481 362 478 344 C475 325 458 311 444 311 C428 311 419 325 422 344 C425 362 440 378 456 378 L456 378 Z M441 89 C438 72 423 59 406 59 L394 59 C377 59 366 72 369 89 L392 217 C395 234 410 247 427 247 L439 247 C456 247 467 234 464 217 L441 89 Z M299 810 L219 810 L164 757 L202 719 L228 743 L162 372 L222 372 L299 809 L298 809 L299 810 Z M60 0 L139 0 L563 805 L485 805 L60 0 Z " />
<glyph glyph-name="threeeighths" unicode="&#x215c;" horiz-adv-x="524" d="M528 283 C544 300 556 320 560 344 C569 395 539 437 491 437 C443 437 397 395 388 344 C384 320 388 300 398 283 C376 266 362 244 357 217 L334 89 C326 40 359 0 408 0 L420 0 C469 0 516 40 524 89 L547 217 C552 244 543 266 528 283 L528 283 Z M480 378 C494 378 505 362 502 344 C499 325 482 311 468 311 C452 311 443 325 446 344 C449 362 464 378 480 378 L480 378 Z M465 89 C462 72 447 59 430 59 L418 59 C401 59 390 72 393 89 L416 217 C419 234 434 247 451 247 L463 247 C480 247 491 234 488 217 L465 89 Z M176 810 L166 751 L238 751 L135 636 L192 636 C252 636 249 569 242 528 C231 466 204 432 189 432 C172 432 157 456 163 490 L104 490 C92 425 125 373 178 373 C226 373 283 421 302 528 C317 618 290 666 250 684 L362 810 L176 810 Z M78 0 L157 0 L581 805 L503 805 L78 0 Z " />
<glyph glyph-name="fiveeighths" unicode="&#x215d;" horiz-adv-x="617" d="M588 283 C604 300 616 320 620 344 C629 395 599 437 551 437 C503 437 457 395 448 344 C444 320 448 300 458 283 C436 266 422 244 417 217 L394 89 C386 40 419 0 468 0 L480 0 C529 0 576 40 584 89 L607 217 C612 244 603 266 588 283 L588 283 Z M540 378 C554 378 565 362 562 344 C559 325 542 311 528 311 C512 311 503 325 506 344 C509 362 524 378 540 378 L540 378 Z M525 89 C522 72 507 59 490 59 L478 59 C461 59 450 72 453 89 L476 217 C479 234 494 247 511 247 L523 247 C540 247 551 234 548 217 L525 89 Z M325 682 C308 695 286 701 258 697 L268 751 L362 751 L372 810 L219 810 L185 618 L227 632 C253 641 273 642 283 634 C299 620 301 584 292 533 C287 503 272 432 238 432 C227 432 219 440 214 455 C210 466 210 478 212 491 L153 491 C149 468 150 446 157 428 C167 394 193 373 227 373 C263 373 327 394 351 533 C365 607 355 656 325 682 L325 682 Z M136 0 L215 0 L639 805 L561 805 L136 0 Z " />
<glyph glyph-name="seveneighths" unicode="&#x215e;" horiz-adv-x="541" d="M504 283 C520 300 532 320 536 344 C545 395 515 437 467 437 C419 437 373 395 364 344 C360 320 364 300 374 283 C352 266 338 244 333 217 L310 89 C302 40 335 0 384 0 L396 0 C445 0 492 40 500 89 L523 217 C528 244 519 266 504 283 L504 283 Z M456 378 C470 378 481 362 478 344 C475 325 458 311 444 311 C428 311 419 325 422 344 C425 362 440 378 456 378 L456 378 Z M441 89 C438 72 423 59 406 59 L394 59 C377 59 366 72 369 89 L392 217 C395 234 410 247 427 247 L439 247 C456 247 467 234 464 217 L441 89 Z M184 810 L174 751 L287 751 C242 684 164 547 133 373 L192 373 C232 600 362 764 364 766 L400 810 L184 810 Z M48 0 L127 0 L551 805 L473 805 L48 0 Z " />
<glyph glyph-name="partialdiff" unicode="&#x2202;" horiz-adv-x="502" d="M448 778 C363 778 266 702 233 610 L295 610 C315 667 373 714 424 714 C474 714 500 667 480 610 L435 484 C416 504 389 516 354 516 C269 516 173 442 141 349 L79 175 C79 173 77 169 77 167 L77 167 C44 74 88 0 173 0 C258 0 354 74 387 167 L389 175 L451 349 L543 610 C575 702 533 778 448 778 L448 778 Z M204 349 C223 407 283 454 333 454 C384 454 408 407 389 349 L326 175 C307 118 248 72 198 72 C148 72 122 118 142 175 L204 349 L204 349 Z " />
<glyph glyph-name="product" unicode="&#x220f;" horiz-adv-x="490" d="M249 806 L218 806 L185 806 L43 0 L107 0 L238 744 L502 744 L370 -1 L433 -1 L576 806 L249 806 L249 806 Z " />
<glyph glyph-name="summation" unicode="&#x2211;" horiz-adv-x="463" d="M279 328 L48 0 L415 0 L425 62 L162 62 L351 328 L256 593 L519 593 L530 655 L163 655 L279 328 L279 328 Z " />
<glyph glyph-name="minus" unicode="&#x2212;" horiz-adv-x="563" d="M94 360 L569 360 L586 455 L111 455 L94 360 L94 360 Z " />
<glyph glyph-name="radical" unicode="&#x221a;" horiz-adv-x="686" d="M350 79 L273 386 L88 295 L108 239 L226 299 L328 -100 L774 787 L718 806 L350 79 L350 79 Z " />
<glyph glyph-name="infinity" unicode="&#x221e;" horiz-adv-x="707" d="M636 510 C616 510 594 505 569 496 L425 439 C385 457 347 475 320 488 L303 496 C283 505 262 510 240 510 C180 510 130 467 119 404 C113 373 120 347 135 328 C150 310 174 299 204 299 C225 299 247 304 271 313 L413 370 C452 353 486 336 514 324 L537 313 C557 304 578 299 598 299 C598 299 598 299 598 299 C628 299 656 310 679 328 C702 347 715 373 721 404 C732 467 697 510 636 510 L636 510 Z M256 371 C242 366 227 362 215 362 C206 362 195 364 187 373 C180 382 181 395 183 404 C189 439 211 446 229 446 C241 446 256 444 268 438 L284 430 C300 422 318 414 340 404 L256 371 L256 371 Z M642 373 C632 364 619 362 609 362 C609 362 609 362 609 362 C597 362 585 365 573 371 L548 382 C534 389 518 396 499 404 L585 438 C600 444 613 448 625 448 C643 448 665 439 659 404 C657 395 653 382 642 373 L642 373 Z " />
<glyph glyph-name="integral" unicode="&#x222b;" horiz-adv-x="377" d="M218 618 L139 167 C127 102 84 62 58 62 L48 0 C118 0 187 74 203 167 L282 618 C292 674 339 722 385 722 C402 722 418 716 429 703 L481 750 C459 773 428 786 396 786 C314 786 235 710 218 618 L218 618 Z " />
<glyph glyph-name="approxequal" unicode="&#x2248;" horiz-adv-x="510" d="M322 474 C298 461 278 449 258 449 C258 449 258 449 258 449 C234 449 209 466 180 500 L128 456 C172 403 211 385 247 385 C284 385 318 404 346 420 C396 449 429 467 490 392 L543 437 C451 547 377 505 322 474 L322 474 Z M292 306 C268 293 248 281 228 281 C228 281 228 281 228 281 C204 281 179 298 150 332 L98 288 C142 235 182 218 218 218 C255 218 288 236 316 253 C366 281 399 299 460 224 L513 270 C421 379 347 337 292 306 L292 306 Z " />
<glyph glyph-name="notequal" unicode="&#x2260;" horiz-adv-x="380" d="M396 538 L344 564 L280 464 L117 464 L106 402 L240 402 L186 313 L91 313 L80 250 L146 250 L107 192 L161 166 L214 250 L385 250 L396 313 L254 313 L310 402 L411 402 L422 464 L350 464 L396 538 L396 538 Z " />
<glyph glyph-name="lessequal" unicode="&#x2264;" horiz-adv-x="390" d="M330 270 L252 454 L394 631 L347 665 L178 454 L270 238 L330 270 Z M390 184 L66 184 L55 121 L379 121 L390 184 Z " />
<glyph glyph-name="greaterequal" unicode="&#x2265;" horiz-adv-x="391" d="M203 238 L373 454 L278 665 L219 631 L300 454 L155 270 L203 238 L203 238 Z M55 121 L379 121 L390 184 L66 184 L55 121 L55 121 Z " />
<glyph glyph-name="lozenge" unicode="&#x25ca;" horiz-adv-x="414" d="M347 701 L308 701 L122 421 L209 137 L248 137 L434 415 L353 683 L347 701 L347 701 Z M247 240 L192 421 L309 598 L365 415 L247 240 L247 240 Z " />
<glyph glyph-name="fi" unicode="&#xfb01;" horiz-adv-x="527" d="M356 0 L420 0 L522 583 L458 583 L356 0 L356 0 Z M500 775 C478 799 449 812 415 812 C335 812 255 734 238 640 L228 583 L151 583 L140 521 L217 521 L126 1 L188 1 L279 521 L360 521 L371 583 L290 583 L300 640 C311 698 359 749 404 749 C426 749 441 738 448 728 C467 708 474 674 468 640 L532 640 C542 692 530 742 500 775 L500 775 Z " />
<glyph glyph-name="fl" unicode="&#xfb02;" horiz-adv-x="538" d="M510 774 C489 798 448 811 414 811 C334 811 254 734 237 638 L227 583 L150 583 L139 521 L216 521 L125 0 L187 0 L278 521 L359 521 L370 583 L289 583 L299 638 C310 698 358 749 403 749 C425 749 451 737 459 728 C478 707 485 673 479 638 L367 0 L431 0 L543 638 C552 691 540 740 510 774 L510 774 Z " />
</font>
</svg>
